NotoSansMyanmarUI-Light.ufo
<glyph name="question" format="2">
  <advance width="374"/>
  <unicode hex="003F"/>
  <outline>
    <contour>
      <point x="119" y="356" type="line"/>
      <point x="144" y="356" type="line"/>
      <point x="145" y="365" type="line" smooth="yes"/>
      <point x="147" y="387"/>
      <point x="162" y="432"/>
      <point x="216" y="464" type="curve" smooth="yes"/>
      <point x="296" y="512"/>
      <point x="348" y="558"/>
      <point x="348" y="648" type="curve" smooth="yes"/>
      <point x="348" y="750"/>
      <point x="274" y="801"/>
      <point x="162" y="801" type="curve" smooth="yes"/>
      <point x="108" y="801"/>
      <point x="70" y="793"/>
      <point x="12" y="771" type="curve"/>
      <point x="22" y="748" type="line"/>
      <point x="70" y="769"/>
      <point x="113" y="778"/>
      <point x="162" y="778" type="curve" smooth="yes"/>
      <point x="255" y="778"/>
      <point x="321" y="738"/>
      <point x="321" y="648" type="curve" smooth="yes"/>
      <point x="321" y="566"/>
      <point x="276" y="530"/>
      <point x="203" y="483" type="curve" smooth="yes"/>
      <point x="132" y="437"/>
      <point x="123" y="395"/>
      <point x="120" y="365" type="curve" smooth="yes"/>
    </contour>
    <contour>
      <point x="135" y="140" type="curve"/>
      <point x="187" y="140"/>
      <point x="226" y="170"/>
      <point x="226" y="223" type="curve" smooth="yes"/>
      <point x="226" y="275"/>
      <point x="187" y="305"/>
      <point x="135" y="305" type="curve" smooth="yes"/>
      <point x="82" y="305"/>
      <point x="45" y="269"/>
      <point x="45" y="222" type="curve" smooth="yes"/>
      <point x="45" y="172"/>
      <point x="81" y="140"/>
    </contour>
    <contour>
      <point x="136" y="163" type="curve" smooth="yes"/>
      <point x="95" y="163"/>
      <point x="71" y="183"/>
      <point x="71" y="222" type="curve" smooth="yes"/>
      <point x="71" y="257"/>
      <point x="96" y="282"/>
      <point x="136" y="282" type="curve" smooth="yes"/>
      <point x="174" y="282"/>
      <point x="200" y="257"/>
      <point x="200" y="222" type="curve" smooth="yes"/>
      <point x="200" y="185"/>
      <point x="174" y="163"/>
    </contour>
  </outline>
</glyph>
<glyph name="ka" format="2">
  <advance width="1119"/>
  <unicode hex="1000"/>
  <note>
ka
</note>
  <outline>
    <contour>
      <point x="167" y="140" type="curve"/>
      <point x="185" y="158" type="line"/>
      <point x="125" y="196"/>
      <point x="81" y="299"/>
      <point x="81" y="375" type="curve" smooth="yes"/>
      <point x="81" y="525"/>
      <point x="188" y="608"/>
      <point x="318" y="608" type="curve" smooth="yes"/>
      <point x="448" y="608"/>
      <point x="555" y="525"/>
      <point x="555" y="375" type="curve" smooth="yes"/>
      <point x="555" y="299"/>
      <point x="511" y="196"/>
      <point x="451" y="158" type="curve"/>
      <point x="469" y="140" type="line"/>
      <point x="531" y="183"/>
      <point x="581" y="285"/>
      <point x="581" y="375" type="curve" smooth="yes"/>
      <point x="581" y="529"/>
      <point x="469" y="631"/>
      <point x="318" y="631" type="curve" smooth="yes"/>
      <point x="167" y="631"/>
      <point x="55" y="529"/>
      <point x="55" y="375" type="curve" smooth="yes"/>
      <point x="55" y="285"/>
      <point x="105" y="183"/>
    </contour>
    <contour>
      <point x="811" y="142" type="curve" smooth="yes"/>
      <point x="961" y="142"/>
      <point x="1063" y="230"/>
      <point x="1063" y="375" type="curve" smooth="yes"/>
      <point x="1063" y="520"/>
      <point x="972" y="631"/>
      <point x="811" y="631" type="curve" smooth="yes"/>
      <point x="692" y="631"/>
      <point x="610" y="578"/>
      <point x="549" y="486" type="curve"/>
      <point x="561" y="460" type="line"/>
      <point x="639" y="573"/>
      <point x="707" y="608"/>
      <point x="811" y="608" type="curve" smooth="yes"/>
      <point x="962" y="608"/>
      <point x="1037" y="505"/>
      <point x="1037" y="375" type="curve" smooth="yes"/>
      <point x="1037" y="242"/>
      <point x="946" y="165"/>
      <point x="811" y="165" type="curve" smooth="yes"/>
      <point x="768" y="165"/>
      <point x="719" y="169"/>
      <point x="685" y="181" type="curve"/>
      <point x="671" y="160" type="line"/>
      <point x="712" y="146"/>
      <point x="736" y="142"/>
    </contour>
  </outline>
</glyph>
<glyph name="kha" format="2">
  <advance width="635"/>
  <unicode hex="1001"/>
  <note>
kha
</note>
  <outline>
    <contour>
      <point x="329" y="140" type="curve" smooth="yes"/>
      <point x="474" y="140"/>
      <point x="572" y="242"/>
      <point x="572" y="384" type="curve" smooth="yes"/>
      <point x="572" y="521"/>
      <point x="479" y="631"/>
      <point x="319" y="631" type="curve" smooth="yes"/>
      <point x="192" y="631"/>
      <point x="99" y="570"/>
      <point x="60" y="487" type="curve"/>
      <point x="83" y="476" type="line"/>
      <point x="118" y="553"/>
      <point x="202" y="608"/>
      <point x="319" y="608" type="curve" smooth="yes"/>
      <point x="465" y="608"/>
      <point x="546" y="508"/>
      <point x="546" y="380" type="curve" smooth="yes"/>
      <point x="546" y="250"/>
      <point x="457" y="163"/>
      <point x="329" y="163" type="curve" smooth="yes"/>
      <point x="229" y="163"/>
      <point x="146" y="204"/>
      <point x="103" y="276" type="curve"/>
      <point x="152" y="315"/>
      <point x="224" y="343"/>
      <point x="296" y="343" type="curve" smooth="yes"/>
      <point x="425" y="343"/>
      <point x="487" y="299"/>
      <point x="532" y="259" type="curve"/>
      <point x="541" y="280" type="line"/>
      <point x="501" y="323"/>
      <point x="425" y="367"/>
      <point x="296" y="367" type="curve" smooth="yes"/>
      <point x="211" y="367"/>
      <point x="129" y="332"/>
      <point x="70" y="280" type="curve"/>
      <point x="119" y="191"/>
      <point x="212" y="140"/>
    </contour>
  </outline>
</glyph>
<glyph name="ga" format="2">
  <advance width="628"/>
  <unicode hex="1002"/>
  <note>
ga
</note>
  <outline>
    <contour>
      <point x="167" y="140" type="curve"/>
      <point x="185" y="158" type="line"/>
      <point x="125" y="196"/>
      <point x="81" y="299"/>
      <point x="81" y="375" type="curve" smooth="yes"/>
      <point x="81" y="525"/>
      <point x="188" y="608"/>
      <point x="318" y="608" type="curve" smooth="yes"/>
      <point x="444" y="608"/>
      <point x="547" y="529"/>
      <point x="547" y="384" type="curve" smooth="yes"/>
      <point x="547" y="308"/>
      <point x="503" y="198"/>
      <point x="443" y="158" type="curve"/>
      <point x="461" y="140" type="line"/>
      <point x="523" y="185"/>
      <point x="573" y="294"/>
      <point x="573" y="384" type="curve" smooth="yes"/>
      <point x="573" y="532"/>
      <point x="464" y="631"/>
      <point x="318" y="631" type="curve" smooth="yes"/>
      <point x="167" y="631"/>
      <point x="55" y="529"/>
      <point x="55" y="375" type="curve" smooth="yes"/>
      <point x="55" y="285"/>
      <point x="105" y="183"/>
    </contour>
  </outline>
</glyph>
<glyph name="gha" format="2">
  <advance width="1123"/>
  <unicode hex="1003"/>
  <note>
gha
</note>
  <outline>
    <contour>
      <point x="323" y="140" type="curve" smooth="yes"/>
      <point x="474" y="140"/>
      <point x="586" y="243"/>
      <point x="586" y="397" type="curve" smooth="yes"/>
      <point x="586" y="497"/>
      <point x="536" y="580"/>
      <point x="474" y="631" type="curve"/>
      <point x="456" y="613" type="line"/>
      <point x="516" y="568"/>
      <point x="560" y="483"/>
      <point x="560" y="397" type="curve" smooth="yes"/>
      <point x="560" y="248"/>
      <point x="453" y="163"/>
      <point x="323" y="163" type="curve" smooth="yes"/>
      <point x="180" y="163"/>
      <point x="97" y="233"/>
      <point x="97" y="333" type="curve" smooth="yes"/>
      <point x="97" y="397"/>
      <point x="125" y="431"/>
      <point x="176" y="474" type="curve" smooth="yes"/>
      <point x="219" y="510"/>
      <point x="230" y="532"/>
      <point x="230" y="563" type="curve" smooth="yes"/>
      <point x="230" y="600"/>
      <point x="199" y="630"/>
      <point x="152" y="630" type="curve" smooth="yes"/>
      <point x="111" y="630"/>
      <point x="84" y="611"/>
      <point x="65" y="589" type="curve"/>
      <point x="84" y="573" type="line"/>
      <point x="99" y="593"/>
      <point x="124" y="606"/>
      <point x="152" y="606" type="curve" smooth="yes"/>
      <point x="186" y="606"/>
      <point x="204" y="588"/>
      <point x="204" y="563" type="curve" smooth="yes"/>
      <point x="204" y="540"/>
      <point x="194" y="519"/>
      <point x="160" y="492" type="curve" smooth="yes"/>
      <point x="102" y="445"/>
      <point x="71" y="401"/>
      <point x="71" y="333" type="curve" smooth="yes"/>
      <point x="71" y="222"/>
      <point x="166" y="140"/>
    </contour>
    <contour>
      <point x="816" y="142" type="curve" smooth="yes"/>
      <point x="977" y="142"/>
      <point x="1068" y="253"/>
      <point x="1068" y="398" type="curve" smooth="yes"/>
      <point x="1068" y="543"/>
      <point x="966" y="631"/>
      <point x="816" y="631" type="curve" smooth="yes"/>
      <point x="759" y="631"/>
      <point x="717" y="627"/>
      <point x="676" y="613" type="curve"/>
      <point x="690" y="593" type="line"/>
      <point x="724" y="604"/>
      <point x="773" y="608"/>
      <point x="816" y="608" type="curve" smooth="yes"/>
      <point x="951" y="608"/>
      <point x="1042" y="532"/>
      <point x="1042" y="398" type="curve" smooth="yes"/>
      <point x="1042" y="268"/>
      <point x="967" y="165"/>
      <point x="816" y="165" type="curve" smooth="yes"/>
      <point x="717" y="165"/>
      <point x="644" y="200"/>
      <point x="566" y="314" type="curve"/>
      <point x="554" y="288" type="line"/>
      <point x="615" y="195"/>
      <point x="702" y="142"/>
    </contour>
  </outline>
</glyph>
<glyph name="nga" format="2">
  <advance width="618"/>
  <unicode hex="1004"/>
  <note>
nga
</note>
  <outline>
    <contour>
      <point x="310" y="140" type="curve" smooth="yes"/>
      <point x="431" y="140"/>
      <point x="521" y="200"/>
      <point x="557" y="292" type="curve"/>
      <point x="533" y="302" type="line"/>
      <point x="501" y="217"/>
      <point x="419" y="163"/>
      <point x="310" y="163" type="curve" smooth="yes"/>
      <point x="179" y="163"/>
      <point x="81" y="247"/>
      <point x="81" y="384" type="curve" smooth="yes"/>
      <point x="81" y="505"/>
      <point x="161" y="608"/>
      <point x="310" y="608" type="curve" smooth="yes"/>
      <point x="419" y="608"/>
      <point x="496" y="555"/>
      <point x="529" y="477" type="curve"/>
      <point x="553" y="486" type="line"/>
      <point x="515" y="571"/>
      <point x="429" y="631"/>
      <point x="310" y="631" type="curve" smooth="yes"/>
      <point x="146" y="631"/>
      <point x="55" y="516"/>
      <point x="55" y="384" type="curve" smooth="yes"/>
      <point x="55" y="249"/>
      <point x="150" y="140"/>
    </contour>
  </outline>
</glyph>
<glyph name="ca" format="2">
  <advance width="629"/>
  <unicode hex="1005"/>
  <note>
ca
</note>
  <outline>
    <contour>
      <point x="310" y="140" type="curve" smooth="yes"/>
      <point x="467" y="140"/>
      <point x="573" y="242"/>
      <point x="573" y="384" type="curve" smooth="yes"/>
      <point x="573" y="521"/>
      <point x="472" y="631"/>
      <point x="310" y="631" type="curve" smooth="yes"/>
      <point x="146" y="631"/>
      <point x="55" y="516"/>
      <point x="55" y="384" type="curve" smooth="yes"/>
      <point x="55" y="249"/>
      <point x="150" y="140"/>
    </contour>
    <contour>
      <point x="155" y="195" type="line"/>
      <point x="219" y="231"/>
      <point x="267" y="300"/>
      <point x="267" y="381" type="curve" smooth="yes"/>
      <point x="267" y="461"/>
      <point x="226" y="531"/>
      <point x="150" y="574" type="curve"/>
      <point x="132" y="556" type="line"/>
      <point x="198" y="517"/>
      <point x="241" y="453"/>
      <point x="241" y="381" type="curve" smooth="yes"/>
      <point x="241" y="307"/>
      <point x="201" y="245"/>
      <point x="137" y="211" type="curve"/>
    </contour>
    <contour>
      <point x="310" y="163" type="curve" smooth="yes"/>
      <point x="179" y="163"/>
      <point x="81" y="247"/>
      <point x="81" y="384" type="curve" smooth="yes"/>
      <point x="81" y="505"/>
      <point x="161" y="608"/>
      <point x="310" y="608" type="curve" smooth="yes"/>
      <point x="458" y="608"/>
      <point x="547" y="510"/>
      <point x="547" y="384" type="curve" smooth="yes"/>
      <point x="547" y="252"/>
      <point x="450" y="163"/>
    </contour>
  </outline>
</glyph>
<glyph name="cha" format="2">
  <advance width="1122"/>
  <unicode hex="1006"/>
  <note>
cha
</note>
  <outline>
    <contour>
      <point x="320" y="140" type="curve" smooth="yes"/>
      <point x="477" y="140"/>
      <point x="583" y="242"/>
      <point x="583" y="384" type="curve" smooth="yes"/>
      <point x="583" y="521"/>
      <point x="482" y="631"/>
      <point x="320" y="631" type="curve" smooth="yes"/>
      <point x="183" y="631"/>
      <point x="90" y="570"/>
      <point x="51" y="487" type="curve"/>
      <point x="74" y="476" type="line"/>
      <point x="109" y="553"/>
      <point x="193" y="608"/>
      <point x="320" y="608" type="curve" smooth="yes"/>
      <point x="468" y="608"/>
      <point x="557" y="510"/>
      <point x="557" y="384" type="curve" smooth="yes"/>
      <point x="557" y="252"/>
      <point x="460" y="163"/>
      <point x="320" y="163" type="curve" smooth="yes"/>
      <point x="220" y="163"/>
      <point x="137" y="204"/>
      <point x="94" y="276" type="curve"/>
      <point x="143" y="315"/>
      <point x="215" y="343"/>
      <point x="303" y="343" type="curve" smooth="yes"/>
      <point x="424" y="343"/>
      <point x="490" y="307"/>
      <point x="538" y="273" type="curve"/>
      <point x="557" y="287" type="line"/>
      <point x="512" y="326"/>
      <point x="429" y="367"/>
      <point x="303" y="367" type="curve" smooth="yes"/>
      <point x="202" y="367"/>
      <point x="120" y="332"/>
      <point x="61" y="280" type="curve"/>
      <point x="110" y="191"/>
      <point x="203" y="140"/>
    </contour>
    <contour>
      <point x="797" y="140" type="curve" smooth="yes"/>
      <point x="958" y="140"/>
      <point x="1067" y="242"/>
      <point x="1067" y="384" type="curve" smooth="yes"/>
      <point x="1067" y="521"/>
      <point x="964" y="631"/>
      <point x="797" y="631" type="curve" smooth="yes"/>
      <point x="663" y="631"/>
      <point x="590" y="575"/>
      <point x="535" y="496" type="curve"/>
      <point x="555" y="477" type="line"/>
      <point x="603" y="553"/>
      <point x="669" y="608"/>
      <point x="797" y="608" type="curve" smooth="yes"/>
      <point x="950" y="608"/>
      <point x="1041" y="510"/>
      <point x="1041" y="384" type="curve" smooth="yes"/>
      <point x="1041" y="252"/>
      <point x="941" y="163"/>
      <point x="797" y="163" type="curve" smooth="yes"/>
      <point x="689" y="163"/>
      <point x="620" y="209"/>
      <point x="561" y="282" type="curve"/>
      <point x="538" y="274" type="line"/>
      <point x="598" y="198"/>
      <point x="669" y="140"/>
    </contour>
  </outline>
</glyph>
<glyph name="ja" format="2">
  <advance width="649"/>
  <unicode hex="1007"/>
  <note>
ja
</note>
  <outline>
    <contour>
      <point x="310" y="140" type="curve" smooth="yes"/>
      <point x="408" y="140"/>
      <point x="486" y="180"/>
      <point x="531" y="244" type="curve"/>
      <point x="509" y="257" type="line"/>
      <point x="469" y="199"/>
      <point x="398" y="163"/>
      <point x="310" y="163" type="curve" smooth="yes"/>
      <point x="179" y="163"/>
      <point x="81" y="247"/>
      <point x="81" y="384" type="curve" smooth="yes"/>
      <point x="81" y="505"/>
      <point x="161" y="608"/>
      <point x="328" y="608" type="curve" smooth="yes"/>
      <point x="343" y="608"/>
      <point x="365" y="608"/>
      <point x="388" y="606" type="curve"/>
      <point x="386" y="610" type="line"/>
      <point x="340" y="594"/>
      <point x="303" y="556"/>
      <point x="303" y="504" type="curve" smooth="yes"/>
      <point x="303" y="448"/>
      <point x="348" y="394"/>
      <point x="427" y="394" type="curve" smooth="yes"/>
      <point x="467" y="394"/>
      <point x="515" y="407"/>
      <point x="536" y="445" type="curve"/>
      <point x="532" y="442" type="line"/>
      <point x="532" y="346"/>
      <point x="552" y="307"/>
      <point x="637" y="307" type="curve" smooth="yes"/>
      <point x="642" y="307" type="line"/>
      <point x="642" y="330" type="line"/>
      <point x="572" y="330"/>
      <point x="558" y="354"/>
      <point x="558" y="433" type="curve" smooth="yes"/>
      <point x="558" y="451"/>
      <point x="558" y="467"/>
      <point x="558" y="492" type="curve" smooth="yes"/>
      <point x="558" y="587"/>
      <point x="516" y="631"/>
      <point x="330" y="631" type="curve" smooth="yes"/>
      <point x="146" y="631"/>
      <point x="55" y="516"/>
      <point x="55" y="384" type="curve" smooth="yes"/>
      <point x="55" y="249"/>
      <point x="150" y="140"/>
    </contour>
    <contour>
      <point x="429" y="417" type="curve" smooth="yes"/>
      <point x="359" y="417"/>
      <point x="329" y="458"/>
      <point x="329" y="504" type="curve" smooth="yes"/>
      <point x="329" y="554"/>
      <point x="373" y="598"/>
      <point x="435" y="598" type="curve" smooth="yes"/>
      <point x="500" y="598"/>
      <point x="532" y="559"/>
      <point x="532" y="496" type="curve" smooth="yes"/>
      <point x="532" y="454"/>
      <point x="485" y="417"/>
    </contour>
  </outline>
</glyph>
<glyph name="jha" format="2">
  <advance width="771"/>
  <unicode hex="1008"/>
  <note>
jha
</note>
  <outline>
    <contour>
      <point x="567" y="-263" type="curve" smooth="yes"/>
      <point x="670" y="-263"/>
      <point x="706" y="-199"/>
      <point x="706" y="-35" type="curve" smooth="yes"/>
      <point x="706" y="621" type="line"/>
      <point x="680" y="621" type="line"/>
      <point x="680" y="-35" type="line" smooth="yes"/>
      <point x="680" y="-179"/>
      <point x="656" y="-240"/>
      <point x="567" y="-240" type="curve" smooth="yes"/>
      <point x="483" y="-240"/>
      <point x="449" y="-191"/>
      <point x="449" y="-35" type="curve" smooth="yes"/>
      <point x="449" y="182" type="line"/>
      <point x="423" y="171" type="line"/>
      <point x="423" y="-35" type="line" smooth="yes"/>
      <point x="423" y="-204"/>
      <point x="468" y="-263"/>
    </contour>
    <contour>
      <point x="320" y="140" type="curve" smooth="yes"/>
      <point x="471" y="140"/>
      <point x="573" y="242"/>
      <point x="573" y="384" type="curve" smooth="yes"/>
      <point x="573" y="521"/>
      <point x="476" y="631"/>
      <point x="320" y="631" type="curve" smooth="yes"/>
      <point x="156" y="631"/>
      <point x="65" y="516"/>
      <point x="65" y="384" type="curve" smooth="yes"/>
      <point x="65" y="249"/>
      <point x="160" y="140"/>
    </contour>
    <contour>
      <point x="320" y="163" type="curve" smooth="yes"/>
      <point x="189" y="163"/>
      <point x="91" y="247"/>
      <point x="91" y="384" type="curve" smooth="yes"/>
      <point x="91" y="505"/>
      <point x="171" y="608"/>
      <point x="320" y="608" type="curve" smooth="yes"/>
      <point x="462" y="608"/>
      <point x="547" y="510"/>
      <point x="547" y="384" type="curve" smooth="yes"/>
      <point x="547" y="252"/>
      <point x="454" y="163"/>
    </contour>
    <contour>
      <point x="165" y="195" type="line"/>
      <point x="229" y="231"/>
      <point x="277" y="300"/>
      <point x="277" y="381" type="curve" smooth="yes"/>
      <point x="277" y="461"/>
      <point x="228" y="531"/>
      <point x="160" y="574" type="curve"/>
      <point x="142" y="556" type="line"/>
      <point x="208" y="517"/>
      <point x="251" y="453"/>
      <point x="251" y="381" type="curve" smooth="yes"/>
      <point x="251" y="307"/>
      <point x="211" y="245"/>
      <point x="147" y="211" type="curve"/>
    </contour>
  </outline>
</glyph>
<glyph name="nya" format="2">
  <advance width="632"/>
  <unicode hex="1009"/>
  <note>
nya
</note>
  <outline>
    <contour>
      <point x="283" y="-272" type="curve" smooth="yes"/>
      <point x="874" y="-272" type="line" smooth="yes"/>
      <point x="999" y="-272"/>
      <point x="1063" y="-211"/>
      <point x="1063" y="-90" type="curve" smooth="yes"/>
      <point x="1063" y="-79" type="line"/>
      <point x="1037" y="-79" type="line"/>
      <point x="1037" y="-90" type="line" smooth="yes"/>
      <point x="1037" y="-199"/>
      <point x="986" y="-249"/>
      <point x="874" y="-249" type="curve" smooth="yes"/>
      <point x="283" y="-249" type="line" smooth="yes"/>
      <point x="165" y="-249"/>
      <point x="121" y="-194"/>
      <point x="121" y="-83" type="curve" smooth="yes"/>
      <point x="121" y="270" type="line"/>
      <point x="95" y="293" type="line"/>
      <point x="95" y="-83" type="line" smooth="yes"/>
      <point x="95" y="-210"/>
      <point x="154" y="-272"/>
    </contour>
    <contour>
      <point x="341" y="140" type="curve" smooth="yes"/>
      <point x="493" y="140"/>
      <point x="582" y="249"/>
      <point x="582" y="384" type="curve" smooth="yes"/>
      <point x="582" y="516"/>
      <point x="497" y="631"/>
      <point x="335" y="631" type="curve" smooth="yes"/>
      <point x="221" y="631"/>
      <point x="133" y="571"/>
      <point x="94" y="486" type="curve"/>
      <point x="118" y="477" type="line"/>
      <point x="152" y="555"/>
      <point x="231" y="608"/>
      <point x="335" y="608" type="curve" smooth="yes"/>
      <point x="482" y="608"/>
      <point x="556" y="505"/>
      <point x="556" y="384" type="curve" smooth="yes"/>
      <point x="556" y="247"/>
      <point x="465" y="163"/>
      <point x="341" y="163" type="curve" smooth="yes"/>
      <point x="233" y="163"/>
      <point x="151" y="217"/>
      <point x="119" y="303" type="curve"/>
      <point x="95" y="293" type="line"/>
      <point x="131" y="200"/>
      <point x="221" y="140"/>
    </contour>
  </outline>
</glyph>
<glyph name="nnya" format="2">
  <advance width="1122"/>
  <unicode hex="100A"/>
  <note>
nnya
</note>
  <outline>
    <contour>
      <point x="283" y="-272" type="curve" smooth="yes"/>
      <point x="874" y="-272" type="line" smooth="yes"/>
      <point x="999" y="-272"/>
      <point x="1063" y="-211"/>
      <point x="1063" y="-90" type="curve" smooth="yes"/>
      <point x="1063" y="-79" type="line"/>
      <point x="1037" y="-79" type="line"/>
      <point x="1037" y="-90" type="line" smooth="yes"/>
      <point x="1037" y="-199"/>
      <point x="986" y="-249"/>
      <point x="874" y="-249" type="curve" smooth="yes"/>
      <point x="283" y="-249" type="line" smooth="yes"/>
      <point x="165" y="-249"/>
      <point x="121" y="-194"/>
      <point x="121" y="-83" type="curve" smooth="yes"/>
      <point x="121" y="270" type="line"/>
      <point x="95" y="293" type="line"/>
      <point x="95" y="-83" type="line" smooth="yes"/>
      <point x="95" y="-210"/>
      <point x="154" y="-272"/>
    </contour>
    <contour>
      <point x="351" y="140" type="curve" smooth="yes"/>
      <point x="503" y="140"/>
      <point x="592" y="249"/>
      <point x="592" y="384" type="curve" smooth="yes"/>
      <point x="592" y="516"/>
      <point x="507" y="631"/>
      <point x="345" y="631" type="curve" smooth="yes"/>
      <point x="226" y="631"/>
      <point x="135" y="571"/>
      <point x="94" y="486" type="curve"/>
      <point x="118" y="477" type="line"/>
      <point x="154" y="555"/>
      <point x="236" y="608"/>
      <point x="345" y="608" type="curve" smooth="yes"/>
      <point x="492" y="608"/>
      <point x="566" y="505"/>
      <point x="566" y="384" type="curve" smooth="yes"/>
      <point x="566" y="247"/>
      <point x="475" y="163"/>
      <point x="351" y="163" type="curve" smooth="yes"/>
      <point x="238" y="163"/>
      <point x="152" y="217"/>
      <point x="119" y="303" type="curve"/>
      <point x="95" y="293" type="line"/>
      <point x="132" y="200"/>
      <point x="226" y="140"/>
    </contour>
    <contour>
      <point x="815" y="142" type="curve" smooth="yes"/>
      <point x="976" y="142"/>
      <point x="1067" y="253"/>
      <point x="1067" y="398" type="curve" smooth="yes"/>
      <point x="1067" y="543"/>
      <point x="965" y="631"/>
      <point x="815" y="631" type="curve" smooth="yes"/>
      <point x="758" y="631"/>
      <point x="716" y="627"/>
      <point x="675" y="613" type="curve"/>
      <point x="689" y="593" type="line"/>
      <point x="723" y="604"/>
      <point x="772" y="608"/>
      <point x="815" y="608" type="curve" smooth="yes"/>
      <point x="950" y="608"/>
      <point x="1041" y="532"/>
      <point x="1041" y="398" type="curve" smooth="yes"/>
      <point x="1041" y="268"/>
      <point x="966" y="165"/>
      <point x="815" y="165" type="curve" smooth="yes"/>
      <point x="716" y="165"/>
      <point x="643" y="200"/>
      <point x="565" y="314" type="curve"/>
      <point x="553" y="288" type="line"/>
      <point x="614" y="195"/>
      <point x="701" y="142"/>
    </contour>
  </outline>
</glyph>
<glyph name="tta" format="2">
  <advance width="622"/>
  <unicode hex="100B"/>
  <note>
tta
</note>
  <outline>
    <contour>
      <point x="516" y="-272" type="line"/>
      <point x="697" y="-272" type="line"/>
      <point x="697" y="-249" type="line"/>
      <point x="542" y="-249" type="line"/>
      <point x="542" y="-35" type="line"/>
      <point x="470" y="-71"/>
      <point x="400" y="-90"/>
      <point x="319" y="-90" type="curve" smooth="yes"/>
      <point x="237" y="-90"/>
      <point x="171" y="-78"/>
      <point x="107" y="-57" type="curve"/>
      <point x="107" y="54" type="line"/>
      <point x="173" y="23"/>
      <point x="246" y="8"/>
      <point x="319" y="8" type="curve" smooth="yes"/>
      <point x="403" y="8"/>
      <point x="482" y="40"/>
      <point x="542" y="87" type="curve"/>
      <point x="542" y="292" type="line"/>
      <point x="516" y="258" type="line"/>
      <point x="516" y="97" type="line"/>
      <point x="467" y="63"/>
      <point x="394" y="31"/>
      <point x="319" y="31" type="curve" smooth="yes"/>
      <point x="245" y="31"/>
      <point x="157" y="49"/>
      <point x="81" y="94" type="curve"/>
      <point x="81" y="-74" type="line"/>
      <point x="154" y="-98"/>
      <point x="233" y="-113"/>
      <point x="319" y="-113" type="curve" smooth="yes"/>
      <point x="389" y="-113"/>
      <point x="460" y="-96"/>
      <point x="516" y="-72" type="curve"/>
    </contour>
    <contour>
      <point x="303" y="140" type="curve" smooth="yes"/>
      <point x="420" y="140"/>
      <point x="507" y="200"/>
      <point x="542" y="292" type="curve"/>
      <point x="518" y="302" type="line"/>
      <point x="487" y="217"/>
      <point x="408" y="163"/>
      <point x="303" y="163" type="curve" smooth="yes"/>
      <point x="176" y="163"/>
      <point x="81" y="247"/>
      <point x="81" y="384" type="curve" smooth="yes"/>
      <point x="81" y="505"/>
      <point x="159" y="608"/>
      <point x="303" y="608" type="curve" smooth="yes"/>
      <point x="408" y="608"/>
      <point x="482" y="555"/>
      <point x="514" y="477" type="curve"/>
      <point x="538" y="486" type="line"/>
      <point x="501" y="571"/>
      <point x="418" y="631"/>
      <point x="303" y="631" type="curve" smooth="yes"/>
      <point x="144" y="631"/>
      <point x="55" y="516"/>
      <point x="55" y="384" type="curve" smooth="yes"/>
      <point x="55" y="249"/>
      <point x="148" y="140"/>
    </contour>
  </outline>
</glyph>
<glyph name="ttha" format="2">
  <advance width="628"/>
  <unicode hex="100C"/>
  <note>
ttha
</note>
  <outline>
    <contour>
      <point x="243" y="-271" type="curve" smooth="yes"/>
      <point x="353" y="-271" type="line" smooth="yes"/>
      <point x="477" y="-271"/>
      <point x="543" y="-216"/>
      <point x="543" y="-95" type="curve" smooth="yes"/>
      <point x="543" y="292" type="line"/>
      <point x="517" y="253" type="line"/>
      <point x="517" y="-95" type="line" smooth="yes"/>
      <point x="517" y="-197"/>
      <point x="461" y="-248"/>
      <point x="353" y="-248" type="curve" smooth="yes"/>
      <point x="243" y="-248" type="line" smooth="yes"/>
      <point x="136" y="-248"/>
      <point x="82" y="-216"/>
      <point x="82" y="-144" type="curve" smooth="yes"/>
      <point x="82" y="-87"/>
      <point x="121" y="-47"/>
      <point x="181" y="-47" type="curve" smooth="yes"/>
      <point x="234" y="-47"/>
      <point x="262" y="-65"/>
      <point x="290" y="-91" type="curve"/>
      <point x="309" y="-74" type="line"/>
      <point x="270" y="-43"/>
      <point x="241" y="-24"/>
      <point x="181" y="-24" type="curve" smooth="yes"/>
      <point x="110" y="-24"/>
      <point x="56" y="-72"/>
      <point x="56" y="-144" type="curve" smooth="yes"/>
      <point x="56" y="-229"/>
      <point x="121" y="-271"/>
    </contour>
    <contour>
      <point x="304" y="140" type="curve" smooth="yes"/>
      <point x="421" y="140"/>
      <point x="508" y="200"/>
      <point x="543" y="292" type="curve"/>
      <point x="519" y="302" type="line"/>
      <point x="488" y="217"/>
      <point x="409" y="163"/>
      <point x="304" y="163" type="curve" smooth="yes"/>
      <point x="177" y="163"/>
      <point x="82" y="247"/>
      <point x="82" y="384" type="curve" smooth="yes"/>
      <point x="82" y="505"/>
      <point x="160" y="608"/>
      <point x="304" y="608" type="curve" smooth="yes"/>
      <point x="409" y="608"/>
      <point x="483" y="555"/>
      <point x="515" y="477" type="curve"/>
      <point x="539" y="486" type="line"/>
      <point x="502" y="571"/>
      <point x="419" y="631"/>
      <point x="304" y="631" type="curve" smooth="yes"/>
      <point x="145" y="631"/>
      <point x="56" y="516"/>
      <point x="56" y="384" type="curve" smooth="yes"/>
      <point x="56" y="249"/>
      <point x="149" y="140"/>
    </contour>
  </outline>
</glyph>
<glyph name="dda" format="2">
  <advance width="630"/>
  <unicode hex="100D"/>
  <note>
dda
</note>
  <outline>
    <contour>
      <point x="513" y="-272" type="line"/>
      <point x="691" y="-272" type="line"/>
      <point x="691" y="-249" type="line"/>
      <point x="539" y="-249" type="line"/>
      <point x="539" y="90" type="line"/>
      <point x="466" y="50"/>
      <point x="386" y="34"/>
      <point x="317" y="34" type="curve" smooth="yes"/>
      <point x="233" y="34"/>
      <point x="160" y="66"/>
      <point x="111" y="99" type="curve"/>
      <point x="111" y="261" type="line"/>
      <point x="85" y="295" type="line"/>
      <point x="85" y="90" type="line"/>
      <point x="145" y="43"/>
      <point x="224" y="10"/>
      <point x="317" y="10" type="curve" smooth="yes"/>
      <point x="386" y="10"/>
      <point x="449" y="25"/>
      <point x="513" y="53" type="curve"/>
    </contour>
    <contour>
      <point x="324" y="143" type="curve" smooth="yes"/>
      <point x="479" y="143"/>
      <point x="572" y="252"/>
      <point x="572" y="387" type="curve" smooth="yes"/>
      <point x="572" y="519"/>
      <point x="483" y="634"/>
      <point x="324" y="634" type="curve" smooth="yes"/>
      <point x="209" y="634"/>
      <point x="126" y="574"/>
      <point x="89" y="488" type="curve"/>
      <point x="113" y="479" type="line"/>
      <point x="145" y="558"/>
      <point x="219" y="611"/>
      <point x="324" y="611" type="curve" smooth="yes"/>
      <point x="468" y="611"/>
      <point x="546" y="508"/>
      <point x="546" y="387" type="curve" smooth="yes"/>
      <point x="546" y="250"/>
      <point x="451" y="166"/>
      <point x="324" y="166" type="curve" smooth="yes"/>
      <point x="219" y="166"/>
      <point x="140" y="219"/>
      <point x="109" y="305" type="curve"/>
      <point x="85" y="295" type="line"/>
      <point x="120" y="203"/>
      <point x="207" y="143"/>
    </contour>
  </outline>
</glyph>
<glyph name="ddha" format="2">
  <advance width="630"/>
  <unicode hex="100E"/>
  <note>
ddha
</note>
  <outline>
    <contour>
      <point x="311" y="140" type="curve" smooth="yes"/>
      <point x="462" y="140"/>
      <point x="574" y="243"/>
      <point x="574" y="397" type="curve" smooth="yes"/>
      <point x="574" y="497"/>
      <point x="524" y="580"/>
      <point x="462" y="631" type="curve"/>
      <point x="444" y="613" type="line"/>
      <point x="504" y="568"/>
      <point x="548" y="483"/>
      <point x="548" y="397" type="curve" smooth="yes"/>
      <point x="548" y="248"/>
      <point x="441" y="163"/>
      <point x="311" y="163" type="curve" smooth="yes"/>
      <point x="168" y="163"/>
      <point x="85" y="233"/>
      <point x="85" y="333" type="curve" smooth="yes"/>
      <point x="85" y="397"/>
      <point x="112" y="432"/>
      <point x="164" y="474" type="curve" smooth="yes"/>
      <point x="208" y="509"/>
      <point x="218" y="532"/>
      <point x="218" y="563" type="curve" smooth="yes"/>
      <point x="218" y="600"/>
      <point x="187" y="630"/>
      <point x="140" y="630" type="curve" smooth="yes"/>
      <point x="99" y="630"/>
      <point x="72" y="611"/>
      <point x="53" y="589" type="curve"/>
      <point x="72" y="573" type="line"/>
      <point x="87" y="593"/>
      <point x="112" y="606"/>
      <point x="140" y="606" type="curve" smooth="yes"/>
      <point x="174" y="606"/>
      <point x="192" y="588"/>
      <point x="192" y="563" type="curve" smooth="yes"/>
      <point x="192" y="540"/>
      <point x="183" y="518"/>
      <point x="148" y="492" type="curve" smooth="yes"/>
      <point x="91" y="450"/>
      <point x="59" y="401"/>
      <point x="59" y="333" type="curve" smooth="yes"/>
      <point x="59" y="222"/>
      <point x="154" y="140"/>
    </contour>
  </outline>
</glyph>
<glyph name="nna" format="2">
  <advance width="1132"/>
  <unicode hex="100F"/>
  <note>
nna
</note>
  <outline>
    <contour>
      <point x="566" y="138" type="curve" smooth="yes"/>
      <point x="653" y="138"/>
      <point x="688" y="180"/>
      <point x="688" y="233" type="curve" smooth="yes"/>
      <point x="688" y="307"/>
      <point x="649" y="331"/>
      <point x="649" y="416" type="curve" smooth="yes"/>
      <point x="649" y="528"/>
      <point x="700" y="608"/>
      <point x="840" y="608" type="curve" smooth="yes"/>
      <point x="982" y="608"/>
      <point x="1051" y="508"/>
      <point x="1051" y="385" type="curve" smooth="yes"/>
      <point x="1051" y="252"/>
      <point x="954" y="163"/>
      <point x="831" y="163" type="curve" smooth="yes"/>
      <point x="810" y="163"/>
      <point x="795" y="163"/>
      <point x="780" y="165" type="curve"/>
      <point x="774" y="142" type="line"/>
      <point x="794" y="140"/>
      <point x="811" y="139"/>
      <point x="831" y="139" type="curve" smooth="yes"/>
      <point x="967" y="139"/>
      <point x="1077" y="240"/>
      <point x="1077" y="385" type="curve" smooth="yes"/>
      <point x="1077" y="523"/>
      <point x="996" y="631"/>
      <point x="840" y="631" type="curve" smooth="yes"/>
      <point x="687" y="631"/>
      <point x="624" y="542"/>
      <point x="624" y="415" type="curve" smooth="yes"/>
      <point x="624" y="314"/>
      <point x="662" y="303"/>
      <point x="662" y="233" type="curve" smooth="yes"/>
      <point x="662" y="193"/>
      <point x="636" y="159"/>
      <point x="566" y="159" type="curve" smooth="yes"/>
      <point x="496" y="159"/>
      <point x="470" y="193"/>
      <point x="470" y="233" type="curve" smooth="yes"/>
      <point x="470" y="303"/>
      <point x="508" y="314"/>
      <point x="508" y="415" type="curve" smooth="yes"/>
      <point x="508" y="542"/>
      <point x="445" y="631"/>
      <point x="292" y="631" type="curve" smooth="yes"/>
      <point x="136" y="631"/>
      <point x="55" y="523"/>
      <point x="55" y="385" type="curve" smooth="yes"/>
      <point x="55" y="240"/>
      <point x="165" y="139"/>
      <point x="301" y="139" type="curve" smooth="yes"/>
      <point x="321" y="139"/>
      <point x="338" y="140"/>
      <point x="358" y="142" type="curve"/>
      <point x="352" y="165" type="line"/>
      <point x="335" y="163"/>
      <point x="322" y="163"/>
      <point x="301" y="163" type="curve" smooth="yes"/>
      <point x="180" y="163"/>
      <point x="81" y="252"/>
      <point x="81" y="385" type="curve" smooth="yes"/>
      <point x="81" y="508"/>
      <point x="150" y="608"/>
      <point x="292" y="608" type="curve" smooth="yes"/>
      <point x="432" y="608"/>
      <point x="483" y="528"/>
      <point x="483" y="416" type="curve" smooth="yes"/>
      <point x="483" y="331"/>
      <point x="444" y="307"/>
      <point x="444" y="233" type="curve" smooth="yes"/>
      <point x="444" y="180"/>
      <point x="479" y="138"/>
    </contour>
    <contour>
      <point x="455" y="555" type="line"/>
      <point x="487" y="582"/>
      <point x="510" y="608"/>
      <point x="566" y="608" type="curve" smooth="yes"/>
      <point x="622" y="608"/>
      <point x="645" y="582"/>
      <point x="677" y="555" type="curve"/>
      <point x="693" y="571" type="line"/>
      <point x="665" y="598"/>
      <point x="636" y="631"/>
      <point x="566" y="631" type="curve" smooth="yes"/>
      <point x="496" y="631"/>
      <point x="467" y="598"/>
      <point x="439" y="571" type="curve"/>
    </contour>
  </outline>
</glyph>
<glyph name="ta" format="2">
  <advance width="1118"/>
  <unicode hex="1010"/>
  <note>
ta
</note>
  <outline>
    <contour>
      <point x="310" y="140" type="curve" smooth="yes"/>
      <point x="467" y="140"/>
      <point x="573" y="242"/>
      <point x="573" y="384" type="curve" smooth="yes"/>
      <point x="573" y="521"/>
      <point x="472" y="631"/>
      <point x="310" y="631" type="curve" smooth="yes"/>
      <point x="146" y="631"/>
      <point x="55" y="516"/>
      <point x="55" y="384" type="curve" smooth="yes"/>
      <point x="55" y="249"/>
      <point x="150" y="140"/>
    </contour>
    <contour>
      <point x="310" y="163" type="curve" smooth="yes"/>
      <point x="179" y="163"/>
      <point x="81" y="247"/>
      <point x="81" y="384" type="curve" smooth="yes"/>
      <point x="81" y="505"/>
      <point x="161" y="608"/>
      <point x="310" y="608" type="curve" smooth="yes"/>
      <point x="458" y="608"/>
      <point x="547" y="510"/>
      <point x="547" y="384" type="curve" smooth="yes"/>
      <point x="547" y="252"/>
      <point x="450" y="163"/>
    </contour>
    <contour>
      <point x="811" y="142" type="curve" smooth="yes"/>
      <point x="961" y="142"/>
      <point x="1063" y="230"/>
      <point x="1063" y="375" type="curve" smooth="yes"/>
      <point x="1063" y="520"/>
      <point x="972" y="631"/>
      <point x="811" y="631" type="curve" smooth="yes"/>
      <point x="697" y="631"/>
      <point x="610" y="578"/>
      <point x="549" y="486" type="curve"/>
      <point x="561" y="460" type="line"/>
      <point x="639" y="573"/>
      <point x="712" y="608"/>
      <point x="811" y="608" type="curve" smooth="yes"/>
      <point x="962" y="608"/>
      <point x="1037" y="505"/>
      <point x="1037" y="375" type="curve" smooth="yes"/>
      <point x="1037" y="242"/>
      <point x="946" y="165"/>
      <point x="811" y="165" type="curve" smooth="yes"/>
      <point x="768" y="165"/>
      <point x="719" y="169"/>
      <point x="685" y="181" type="curve"/>
      <point x="671" y="160" type="line"/>
      <point x="712" y="146"/>
      <point x="754" y="142"/>
    </contour>
  </outline>
</glyph>
<glyph name="da" format="2">
  <advance width="614"/>
  <unicode hex="1012"/>
  <note>
da
</note>
  <outline>
    <contour>
      <point x="309" y="140" type="curve" smooth="yes"/>
      <point x="473" y="140"/>
      <point x="561" y="193"/>
      <point x="561" y="286" type="curve" smooth="yes"/>
      <point x="561" y="345"/>
      <point x="516" y="386"/>
      <point x="439" y="401" type="curve"/>
      <point x="439" y="403" type="line"/>
      <point x="487" y="415"/>
      <point x="542" y="445"/>
      <point x="542" y="509" type="curve" smooth="yes"/>
      <point x="542" y="587"/>
      <point x="465" y="631"/>
      <point x="313" y="631" type="curve" smooth="yes"/>
      <point x="181" y="631"/>
      <point x="80" y="593"/>
      <point x="80" y="519" type="curve" smooth="yes"/>
      <point x="80" y="500"/>
      <point x="89" y="483"/>
      <point x="104" y="471" type="curve"/>
      <point x="126" y="484" type="line"/>
      <point x="111" y="495"/>
      <point x="106" y="505"/>
      <point x="106" y="519" type="curve" smooth="yes"/>
      <point x="106" y="576"/>
      <point x="189" y="608"/>
      <point x="313" y="608" type="curve" smooth="yes"/>
      <point x="410" y="608"/>
      <point x="516" y="593"/>
      <point x="516" y="509" type="curve" smooth="yes"/>
      <point x="516" y="452"/>
      <point x="450" y="410"/>
      <point x="373" y="410" type="curve" smooth="yes"/>
      <point x="339" y="410" type="line"/>
      <point x="339" y="387" type="line"/>
      <point x="381" y="387" type="line" smooth="yes"/>
      <point x="477" y="387"/>
      <point x="535" y="346"/>
      <point x="535" y="286" type="curve" smooth="yes"/>
      <point x="535" y="201"/>
      <point x="448" y="163"/>
      <point x="309" y="163" type="curve" smooth="yes"/>
      <point x="188" y="163"/>
      <point x="102" y="200"/>
      <point x="80" y="271" type="curve"/>
      <point x="57" y="260" type="line"/>
      <point x="81" y="188"/>
      <point x="169" y="140"/>
    </contour>
  </outline>
</glyph>
<glyph name="dha" format="2">
  <advance width="629"/>
  <unicode hex="1013"/>
  <note>
dha
</note>
  <outline>
    <contour>
      <point x="113" y="252" type="line"/>
      <point x="158" y="311"/>
      <point x="234" y="350"/>
      <point x="318" y="350" type="curve" smooth="yes"/>
      <point x="406" y="350"/>
      <point x="477" y="314"/>
      <point x="517" y="256" type="curve"/>
      <point x="535" y="272" type="line"/>
      <point x="490" y="334"/>
      <point x="412" y="373"/>
      <point x="318" y="373" type="curve" smooth="yes"/>
      <point x="227" y="373"/>
      <point x="142" y="331"/>
      <point x="95" y="267" type="curve"/>
    </contour>
    <contour>
      <point x="310" y="140" type="curve" smooth="yes"/>
      <point x="467" y="140"/>
      <point x="573" y="242"/>
      <point x="573" y="384" type="curve" smooth="yes"/>
      <point x="573" y="521"/>
      <point x="472" y="631"/>
      <point x="310" y="631" type="curve" smooth="yes"/>
      <point x="146" y="631"/>
      <point x="55" y="516"/>
      <point x="55" y="384" type="curve" smooth="yes"/>
      <point x="55" y="249"/>
      <point x="150" y="140"/>
    </contour>
    <contour>
      <point x="310" y="163" type="curve" smooth="yes"/>
      <point x="179" y="163"/>
      <point x="81" y="247"/>
      <point x="81" y="384" type="curve" smooth="yes"/>
      <point x="81" y="505"/>
      <point x="161" y="608"/>
      <point x="310" y="608" type="curve" smooth="yes"/>
      <point x="458" y="608"/>
      <point x="547" y="510"/>
      <point x="547" y="384" type="curve" smooth="yes"/>
      <point x="547" y="252"/>
      <point x="450" y="163"/>
    </contour>
  </outline>
</glyph>
<glyph name="na" format="2">
  <advance width="608"/>
  <unicode hex="1014"/>
  <note>
na
</note>
  <outline>
    <contour>
      <point x="323" y="-272" type="line"/>
      <point x="349" y="-272" type="line"/>
      <point x="349" y="199" type="line" smooth="yes"/>
      <point x="349" y="307"/>
      <point x="292" y="377"/>
      <point x="182" y="377" type="curve" smooth="yes"/>
      <point x="103" y="377"/>
      <point x="50" y="332"/>
      <point x="50" y="263" type="curve" smooth="yes"/>
      <point x="50" y="178"/>
      <point x="131" y="138"/>
      <point x="268" y="138" type="curve" smooth="yes"/>
      <point x="347" y="138" type="line" smooth="yes"/>
      <point x="499" y="138"/>
      <point x="565" y="199"/>
      <point x="565" y="271" type="curve" smooth="yes"/>
      <point x="565" y="353"/>
      <point x="489" y="388"/>
      <point x="361" y="420" type="curve" smooth="yes"/>
      <point x="249" y="449"/>
      <point x="212" y="479"/>
      <point x="212" y="529" type="curve" smooth="yes"/>
      <point x="212" y="570"/>
      <point x="254" y="606"/>
      <point x="324" y="606" type="curve" smooth="yes"/>
      <point x="401" y="606"/>
      <point x="436" y="591"/>
      <point x="483" y="545" type="curve"/>
      <point x="501" y="560" type="line"/>
      <point x="463" y="597"/>
      <point x="431" y="630"/>
      <point x="324" y="630" type="curve" smooth="yes"/>
      <point x="243" y="630"/>
      <point x="186" y="582"/>
      <point x="186" y="529" type="curve" smooth="yes"/>
      <point x="186" y="464"/>
      <point x="238" y="430"/>
      <point x="351" y="399" type="curve" smooth="yes"/>
      <point x="484" y="368"/>
      <point x="539" y="334"/>
      <point x="539" y="271" type="curve" smooth="yes"/>
      <point x="539" y="211"/>
      <point x="487" y="162"/>
      <point x="346" y="162" type="curve" smooth="yes"/>
      <point x="268" y="162" type="line" smooth="yes"/>
      <point x="152" y="162"/>
      <point x="76" y="190"/>
      <point x="76" y="263" type="curve" smooth="yes"/>
      <point x="76" y="318"/>
      <point x="117" y="353"/>
      <point x="182" y="353" type="curve" smooth="yes"/>
      <point x="284" y="353"/>
      <point x="323" y="288"/>
      <point x="323" y="198" type="curve" smooth="yes"/>
    </contour>
  </outline>
</glyph>
<glyph name="pa" format="2">
  <advance width="626"/>
  <unicode hex="1015"/>
  <note>
pa
</note>
  <outline>
    <contour>
      <point x="318" y="140" type="curve" smooth="yes"/>
      <point x="463" y="140"/>
      <point x="571" y="227"/>
      <point x="571" y="397" type="curve" smooth="yes"/>
      <point x="571" y="487"/>
      <point x="521" y="588"/>
      <point x="459" y="631" type="curve"/>
      <point x="441" y="613" type="line"/>
      <point x="501" y="576"/>
      <point x="545" y="472"/>
      <point x="545" y="397" type="curve" smooth="yes"/>
      <point x="545" y="237"/>
      <point x="443" y="163"/>
      <point x="318" y="163" type="curve" smooth="yes"/>
      <point x="188" y="163"/>
      <point x="81" y="246"/>
      <point x="81" y="397" type="curve" smooth="yes"/>
      <point x="81" y="472"/>
      <point x="125" y="576"/>
      <point x="185" y="613" type="curve"/>
      <point x="167" y="631" type="line"/>
      <point x="105" y="588"/>
      <point x="55" y="487"/>
      <point x="55" y="397" type="curve" smooth="yes"/>
      <point x="55" y="243"/>
      <point x="167" y="140"/>
    </contour>
  </outline>
</glyph>
<glyph name="pha" format="2">
  <advance width="632"/>
  <unicode hex="1016"/>
  <note>
pha
</note>
  <outline>
    <contour>
      <point x="309" y="140" type="curve" smooth="yes"/>
      <point x="460" y="140"/>
      <point x="576" y="251"/>
      <point x="576" y="406" type="curve" smooth="yes"/>
      <point x="576" y="496"/>
      <point x="526" y="569"/>
      <point x="455" y="629" type="curve"/>
      <point x="369" y="574"/>
      <point x="334" y="506"/>
      <point x="334" y="406" type="curve" smooth="yes"/>
      <point x="334" y="316"/>
      <point x="389" y="226"/>
      <point x="444" y="188" type="curve"/>
      <point x="462" y="203" type="line"/>
      <point x="408" y="243"/>
      <point x="360" y="324"/>
      <point x="360" y="406" type="curve" smooth="yes"/>
      <point x="360" y="491"/>
      <point x="389" y="558"/>
      <point x="454" y="598" type="curve"/>
      <point x="504" y="554"/>
      <point x="550" y="488"/>
      <point x="550" y="406" type="curve" smooth="yes"/>
      <point x="550" y="257"/>
      <point x="440" y="163"/>
      <point x="309" y="163" type="curve" smooth="yes"/>
      <point x="175" y="163"/>
      <point x="81" y="260"/>
      <point x="81" y="406" type="curve" smooth="yes"/>
      <point x="81" y="473"/>
      <point x="105" y="556"/>
      <point x="180" y="613" type="curve"/>
      <point x="164" y="631" type="line"/>
      <point x="82" y="570"/>
      <point x="55" y="478"/>
      <point x="55" y="406" type="curve" smooth="yes"/>
      <point x="55" y="248"/>
      <point x="158" y="140"/>
    </contour>
  </outline>
</glyph>
<glyph name="ba" format="2">
  <advance width="630"/>
  <unicode hex="1017"/>
  <note>
ba
</note>
  <outline>
    <contour>
      <point x="318" y="140" type="curve" smooth="yes"/>
      <point x="466" y="140"/>
      <point x="575" y="243"/>
      <point x="575" y="397" type="curve" smooth="yes"/>
      <point x="575" y="484"/>
      <point x="522" y="584"/>
      <point x="457" y="625" type="curve"/>
      <point x="439" y="609" type="line"/>
      <point x="503" y="571"/>
      <point x="549" y="470"/>
      <point x="549" y="397" type="curve" smooth="yes"/>
      <point x="549" y="246"/>
      <point x="445" y="163"/>
      <point x="318" y="163" type="curve" smooth="yes"/>
      <point x="188" y="163"/>
      <point x="81" y="246"/>
      <point x="81" y="397" type="curve" smooth="yes"/>
      <point x="81" y="472"/>
      <point x="127" y="575"/>
      <point x="190" y="613" type="curve"/>
      <point x="172" y="631" type="line"/>
      <point x="107" y="587"/>
      <point x="55" y="486"/>
      <point x="55" y="397" type="curve" smooth="yes"/>
      <point x="55" y="243"/>
      <point x="167" y="140"/>
    </contour>
    <contour>
      <point x="316" y="404" type="curve" smooth="yes"/>
      <point x="423" y="404"/>
      <point x="490" y="471"/>
      <point x="490" y="548" type="curve" smooth="yes"/>
      <point x="490" y="577"/>
      <point x="478" y="604"/>
      <point x="457" y="625" type="curve"/>
      <point x="439" y="609" type="line"/>
      <point x="455" y="591"/>
      <point x="464" y="570"/>
      <point x="464" y="548" type="curve" smooth="yes"/>
      <point x="464" y="479"/>
      <point x="405" y="427"/>
      <point x="316" y="427" type="curve" smooth="yes"/>
      <point x="225" y="427"/>
      <point x="161" y="478"/>
      <point x="161" y="548" type="curve" smooth="yes"/>
      <point x="161" y="572"/>
      <point x="172" y="595"/>
      <point x="190" y="613" type="curve"/>
      <point x="172" y="630" type="line"/>
      <point x="149" y="607"/>
      <point x="135" y="578"/>
      <point x="135" y="548" type="curve" smooth="yes"/>
      <point x="135" y="466"/>
      <point x="211" y="404"/>
    </contour>
  </outline>
</glyph>
<glyph name="bha" format="2">
  <advance width="1128"/>
  <unicode hex="1018"/>
  <note>
bha
</note>
  <outline>
    <contour>
      <point x="310" y="140" type="curve" smooth="yes"/>
      <point x="470" y="140"/>
      <point x="565" y="249"/>
      <point x="565" y="384" type="curve" smooth="yes"/>
      <point x="565" y="516"/>
      <point x="474" y="631"/>
      <point x="310" y="631" type="curve" smooth="yes"/>
      <point x="191" y="631"/>
      <point x="105" y="571"/>
      <point x="67" y="486" type="curve"/>
      <point x="91" y="477" type="line"/>
      <point x="124" y="555"/>
      <point x="201" y="608"/>
      <point x="310" y="608" type="curve" smooth="yes"/>
      <point x="459" y="608"/>
      <point x="539" y="505"/>
      <point x="539" y="384" type="curve" smooth="yes"/>
      <point x="539" y="247"/>
      <point x="441" y="163"/>
      <point x="310" y="163" type="curve" smooth="yes"/>
      <point x="201" y="163"/>
      <point x="119" y="217"/>
      <point x="87" y="302" type="curve"/>
      <point x="63" y="292" type="line"/>
      <point x="99" y="200"/>
      <point x="189" y="140"/>
    </contour>
    <contour>
      <point x="821" y="142" type="curve" smooth="yes"/>
      <point x="971" y="142"/>
      <point x="1073" y="230"/>
      <point x="1073" y="375" type="curve" smooth="yes"/>
      <point x="1073" y="520"/>
      <point x="982" y="631"/>
      <point x="818" y="631" type="curve" smooth="yes"/>
      <point x="698" y="631"/>
      <point x="610" y="578"/>
      <point x="534" y="486" type="curve"/>
      <point x="546" y="460" type="line"/>
      <point x="629" y="566"/>
      <point x="712" y="608"/>
      <point x="818" y="608" type="curve" smooth="yes"/>
      <point x="972" y="608"/>
      <point x="1047" y="505"/>
      <point x="1047" y="375" type="curve" smooth="yes"/>
      <point x="1047" y="242"/>
      <point x="956" y="165"/>
      <point x="821" y="165" type="curve" smooth="yes"/>
      <point x="774" y="165"/>
      <point x="721" y="171"/>
      <point x="684" y="187" type="curve"/>
      <point x="670" y="166" type="line"/>
      <point x="714" y="148"/>
      <point x="740" y="142"/>
    </contour>
  </outline>
</glyph>
<glyph name="ma" format="2">
  <advance width="627"/>
  <unicode hex="1019"/>
  <note>
ma
</note>
  <outline>
    <contour>
      <point x="318" y="140" type="curve" smooth="yes"/>
      <point x="464" y="140"/>
      <point x="572" y="235"/>
      <point x="572" y="397" type="curve" smooth="yes"/>
      <point x="572" y="487"/>
      <point x="522" y="588"/>
      <point x="460" y="631" type="curve"/>
      <point x="442" y="613" type="line"/>
      <point x="502" y="576"/>
      <point x="546" y="472"/>
      <point x="546" y="397" type="curve" smooth="yes"/>
      <point x="546" y="239"/>
      <point x="443" y="163"/>
      <point x="318" y="163" type="curve" smooth="yes"/>
      <point x="188" y="163"/>
      <point x="81" y="246"/>
      <point x="81" y="397" type="curve" smooth="yes"/>
      <point x="81" y="472"/>
      <point x="125" y="576"/>
      <point x="185" y="613" type="curve"/>
      <point x="167" y="631" type="line"/>
      <point x="105" y="588"/>
      <point x="55" y="487"/>
      <point x="55" y="397" type="curve" smooth="yes"/>
      <point x="55" y="243"/>
      <point x="167" y="140"/>
    </contour>
    <contour>
      <point x="113" y="252" type="line"/>
      <point x="158" y="311"/>
      <point x="234" y="350"/>
      <point x="318" y="350" type="curve" smooth="yes"/>
      <point x="402" y="350"/>
      <point x="468" y="314"/>
      <point x="508" y="256" type="curve"/>
      <point x="526" y="272" type="line"/>
      <point x="481" y="334"/>
      <point x="408" y="373"/>
      <point x="318" y="373" type="curve" smooth="yes"/>
      <point x="227" y="373"/>
      <point x="142" y="331"/>
      <point x="95" y="267" type="curve"/>
    </contour>
  </outline>
</glyph>
<glyph name="sa" format="2">
  <advance width="1123"/>
  <unicode hex="101E"/>
  <note>
sa
</note>
  <outline>
    <contour>
      <point x="307" y="140" type="curve" smooth="yes"/>
      <point x="467" y="140"/>
      <point x="562" y="249"/>
      <point x="562" y="384" type="curve" smooth="yes"/>
      <point x="562" y="516"/>
      <point x="471" y="631"/>
      <point x="307" y="631" type="curve" smooth="yes"/>
      <point x="186" y="631"/>
      <point x="98" y="571"/>
      <point x="59" y="486" type="curve"/>
      <point x="83" y="477" type="line"/>
      <point x="117" y="555"/>
      <point x="196" y="608"/>
      <point x="307" y="608" type="curve" smooth="yes"/>
      <point x="456" y="608"/>
      <point x="536" y="505"/>
      <point x="536" y="384" type="curve" smooth="yes"/>
      <point x="536" y="247"/>
      <point x="438" y="163"/>
      <point x="307" y="163" type="curve" smooth="yes"/>
      <point x="196" y="163"/>
      <point x="112" y="217"/>
      <point x="79" y="302" type="curve"/>
      <point x="55" y="292" type="line"/>
      <point x="92" y="200"/>
      <point x="184" y="140"/>
    </contour>
    <contour>
      <point x="816" y="142" type="curve" smooth="yes"/>
      <point x="977" y="142"/>
      <point x="1068" y="253"/>
      <point x="1068" y="398" type="curve" smooth="yes"/>
      <point x="1068" y="543"/>
      <point x="966" y="631"/>
      <point x="816" y="631" type="curve" smooth="yes"/>
      <point x="759" y="631"/>
      <point x="717" y="627"/>
      <point x="676" y="613" type="curve"/>
      <point x="690" y="593" type="line"/>
      <point x="724" y="604"/>
      <point x="773" y="608"/>
      <point x="816" y="608" type="curve" smooth="yes"/>
      <point x="951" y="608"/>
      <point x="1042" y="532"/>
      <point x="1042" y="398" type="curve" smooth="yes"/>
      <point x="1042" y="268"/>
      <point x="967" y="165"/>
      <point x="816" y="165" type="curve" smooth="yes"/>
      <point x="710" y="165"/>
      <point x="632" y="200"/>
      <point x="549" y="314" type="curve"/>
      <point x="537" y="288" type="line"/>
      <point x="602" y="195"/>
      <point x="694" y="142"/>
    </contour>
  </outline>
</glyph>
<glyph name="ha" format="2">
  <advance width="1118"/>
  <unicode hex="101F"/>
  <note>
ha
</note>
  <outline>
    <contour>
      <point x="318" y="140" type="curve" smooth="yes"/>
      <point x="469" y="140"/>
      <point x="581" y="243"/>
      <point x="581" y="397" type="curve" smooth="yes"/>
      <point x="581" y="487"/>
      <point x="531" y="588"/>
      <point x="469" y="631" type="curve"/>
      <point x="451" y="613" type="line"/>
      <point x="511" y="576"/>
      <point x="555" y="472"/>
      <point x="555" y="397" type="curve" smooth="yes"/>
      <point x="555" y="246"/>
      <point x="448" y="163"/>
      <point x="318" y="163" type="curve" smooth="yes"/>
      <point x="188" y="163"/>
      <point x="81" y="246"/>
      <point x="81" y="397" type="curve" smooth="yes"/>
      <point x="81" y="472"/>
      <point x="125" y="576"/>
      <point x="185" y="613" type="curve"/>
      <point x="167" y="631" type="line"/>
      <point x="105" y="588"/>
      <point x="55" y="487"/>
      <point x="55" y="397" type="curve" smooth="yes"/>
      <point x="55" y="243"/>
      <point x="167" y="140"/>
    </contour>
    <contour>
      <point x="811" y="142" type="curve" smooth="yes"/>
      <point x="961" y="142"/>
      <point x="1063" y="230"/>
      <point x="1063" y="375" type="curve" smooth="yes"/>
      <point x="1063" y="520"/>
      <point x="972" y="631"/>
      <point x="811" y="631" type="curve" smooth="yes"/>
      <point x="697" y="631"/>
      <point x="610" y="578"/>
      <point x="549" y="486" type="curve"/>
      <point x="561" y="460" type="line"/>
      <point x="639" y="573"/>
      <point x="712" y="608"/>
      <point x="811" y="608" type="curve" smooth="yes"/>
      <point x="962" y="608"/>
      <point x="1037" y="505"/>
      <point x="1037" y="375" type="curve" smooth="yes"/>
      <point x="1037" y="242"/>
      <point x="946" y="165"/>
      <point x="811" y="165" type="curve" smooth="yes"/>
      <point x="768" y="165"/>
      <point x="719" y="169"/>
      <point x="685" y="181" type="curve"/>
      <point x="671" y="160" type="line"/>
      <point x="712" y="146"/>
      <point x="754" y="142"/>
    </contour>
  </outline>
</glyph>
<glyph name="lla" format="2">
  <advance width="632"/>
  <unicode hex="1020"/>
  <note>
lla
</note>
  <outline>
    <contour>
      <point x="283" y="-272" type="curve" smooth="yes"/>
      <point x="367" y="-272" type="line" smooth="yes"/>
      <point x="492" y="-272"/>
      <point x="556" y="-216"/>
      <point x="556" y="-105" type="curve" smooth="yes"/>
      <point x="556" y="-99" type="line"/>
      <point x="530" y="-99" type="line"/>
      <point x="530" y="-105" type="line" smooth="yes"/>
      <point x="530" y="-204"/>
      <point x="479" y="-249"/>
      <point x="367" y="-249" type="curve" smooth="yes"/>
      <point x="283" y="-249" type="line" smooth="yes"/>
      <point x="165" y="-249"/>
      <point x="121" y="-194"/>
      <point x="121" y="-83" type="curve" smooth="yes"/>
      <point x="121" y="54" type="line"/>
      <point x="187" y="23"/>
      <point x="260" y="8"/>
      <point x="324" y="8" type="curve" smooth="yes"/>
      <point x="417" y="8"/>
      <point x="496" y="40"/>
      <point x="556" y="87" type="curve"/>
      <point x="556" y="292" type="line"/>
      <point x="530" y="258" type="line"/>
      <point x="530" y="97" type="line"/>
      <point x="481" y="63"/>
      <point x="408" y="31"/>
      <point x="324" y="31" type="curve" smooth="yes"/>
      <point x="259" y="31"/>
      <point x="171" y="49"/>
      <point x="95" y="94" type="curve"/>
      <point x="95" y="-83" type="line" smooth="yes"/>
      <point x="95" y="-210"/>
      <point x="154" y="-272"/>
    </contour>
    <contour>
      <point x="319" y="140" type="curve" smooth="yes"/>
      <point x="436" y="140"/>
      <point x="523" y="200"/>
      <point x="558" y="292" type="curve"/>
      <point x="534" y="302" type="line"/>
      <point x="503" y="217"/>
      <point x="424" y="163"/>
      <point x="319" y="163" type="curve" smooth="yes"/>
      <point x="192" y="163"/>
      <point x="97" y="247"/>
      <point x="97" y="384" type="curve" smooth="yes"/>
      <point x="97" y="505"/>
      <point x="175" y="608"/>
      <point x="319" y="608" type="curve" smooth="yes"/>
      <point x="424" y="608"/>
      <point x="498" y="555"/>
      <point x="530" y="477" type="curve"/>
      <point x="554" y="486" type="line"/>
      <point x="517" y="571"/>
      <point x="434" y="631"/>
      <point x="319" y="631" type="curve" smooth="yes"/>
      <point x="160" y="631"/>
      <point x="71" y="516"/>
      <point x="71" y="384" type="curve" smooth="yes"/>
      <point x="71" y="249"/>
      <point x="164" y="140"/>
    </contour>
  </outline>
</glyph>
<glyph name="a_m" format="2">
  <advance width="1120"/>
  <unicode hex="1021"/>
  <note>
a_m
</note>
  <outline>
    <contour>
      <point x="322" y="140" type="curve" smooth="yes"/>
      <point x="490" y="140"/>
      <point x="578" y="195"/>
      <point x="578" y="286" type="curve" smooth="yes"/>
      <point x="578" y="331"/>
      <point x="554" y="384"/>
      <point x="466" y="401" type="curve"/>
      <point x="466" y="403" type="line"/>
      <point x="514" y="415"/>
      <point x="569" y="445"/>
      <point x="569" y="509" type="curve" smooth="yes"/>
      <point x="569" y="587"/>
      <point x="492" y="631"/>
      <point x="336" y="631" type="curve" smooth="yes"/>
      <point x="204" y="631"/>
      <point x="100" y="593"/>
      <point x="100" y="519" type="curve" smooth="yes"/>
      <point x="100" y="500"/>
      <point x="109" y="483"/>
      <point x="124" y="471" type="curve"/>
      <point x="146" y="484" type="line"/>
      <point x="131" y="495"/>
      <point x="126" y="505"/>
      <point x="126" y="519" type="curve" smooth="yes"/>
      <point x="126" y="576"/>
      <point x="212" y="608"/>
      <point x="336" y="608" type="curve" smooth="yes"/>
      <point x="437" y="608"/>
      <point x="543" y="593"/>
      <point x="543" y="509" type="curve" smooth="yes"/>
      <point x="543" y="452"/>
      <point x="477" y="410"/>
      <point x="400" y="410" type="curve" smooth="yes"/>
      <point x="366" y="410" type="line"/>
      <point x="366" y="387" type="line"/>
      <point x="408" y="387" type="line" smooth="yes"/>
      <point x="512" y="387"/>
      <point x="552" y="337"/>
      <point x="552" y="286" type="curve" smooth="yes"/>
      <point x="552" y="203"/>
      <point x="465" y="163"/>
      <point x="322" y="163" type="curve" smooth="yes"/>
      <point x="201" y="163"/>
      <point x="123" y="200"/>
      <point x="100" y="271" type="curve"/>
      <point x="77" y="260" type="line"/>
      <point x="102" y="188"/>
      <point x="182" y="140"/>
    </contour>
    <contour>
      <point x="815" y="140" type="curve" smooth="yes"/>
      <point x="973" y="140"/>
      <point x="1065" y="250"/>
      <point x="1065" y="386" type="curve" smooth="yes"/>
      <point x="1065" y="523"/>
      <point x="967" y="631"/>
      <point x="803" y="631" type="curve" smooth="yes"/>
      <point x="686" y="631"/>
      <point x="614" y="592"/>
      <point x="545" y="552" type="curve"/>
      <point x="558" y="532" type="line"/>
      <point x="624" y="571"/>
      <point x="696" y="608"/>
      <point x="803" y="608" type="curve" smooth="yes"/>
      <point x="956" y="608"/>
      <point x="1039" y="511"/>
      <point x="1039" y="386" type="curve" smooth="yes"/>
      <point x="1039" y="259"/>
      <point x="961" y="163"/>
      <point x="815" y="163" type="curve" smooth="yes"/>
      <point x="780" y="163"/>
      <point x="755" y="170"/>
      <point x="724" y="178" type="curve"/>
      <point x="732" y="172" type="line"/>
      <point x="735" y="312"/>
      <point x="846" y="397"/>
      <point x="1048" y="397" type="curve"/>
      <point x="1045" y="420" type="line"/>
      <point x="819" y="419"/>
      <point x="706" y="318"/>
      <point x="706" y="160" type="curve"/>
      <point x="729" y="153"/>
      <point x="770" y="140"/>
    </contour>
  </outline>
</glyph>
<glyph name="a_shn" format="2">
  <advance width="1143"/>
  <unicode hex="1022"/>
  <note>
a_shn
</note>
  <outline>
    <contour>
      <point x="147" y="142" type="curve" smooth="yes"/>
      <point x="194" y="142"/>
      <point x="225" y="172"/>
      <point x="225" y="208" type="curve" smooth="yes"/>
      <point x="225" y="240"/>
      <point x="214" y="262"/>
      <point x="170" y="298" type="curve" smooth="yes"/>
      <point x="119" y="340"/>
      <point x="92" y="374"/>
      <point x="92" y="439" type="curve" smooth="yes"/>
      <point x="92" y="539"/>
      <point x="174" y="608"/>
      <point x="316" y="608" type="curve" smooth="yes"/>
      <point x="446" y="608"/>
      <point x="553" y="523"/>
      <point x="553" y="375" type="curve" smooth="yes"/>
      <point x="553" y="289"/>
      <point x="509" y="204"/>
      <point x="449" y="158" type="curve"/>
      <point x="467" y="140" type="line"/>
      <point x="529" y="191"/>
      <point x="579" y="274"/>
      <point x="579" y="375" type="curve" smooth="yes"/>
      <point x="579" y="529"/>
      <point x="467" y="631"/>
      <point x="316" y="631" type="curve" smooth="yes"/>
      <point x="160" y="631"/>
      <point x="66" y="550"/>
      <point x="66" y="439" type="curve" smooth="yes"/>
      <point x="66" y="370"/>
      <point x="98" y="322"/>
      <point x="155" y="280" type="curve" smooth="yes"/>
      <point x="190" y="254"/>
      <point x="199" y="232"/>
      <point x="199" y="208" type="curve" smooth="yes"/>
      <point x="199" y="183"/>
      <point x="181" y="165"/>
      <point x="147" y="165" type="curve" smooth="yes"/>
      <point x="119" y="165"/>
      <point x="94" y="179"/>
      <point x="79" y="199" type="curve"/>
      <point x="60" y="182" type="line"/>
      <point x="79" y="161"/>
      <point x="106" y="142"/>
    </contour>
    <contour>
      <point x="811" y="140" type="curve" smooth="yes"/>
      <point x="961" y="140"/>
      <point x="1063" y="228"/>
      <point x="1063" y="373" type="curve" smooth="yes"/>
      <point x="1063" y="518"/>
      <point x="972" y="630"/>
      <point x="811" y="630" type="curve" smooth="yes"/>
      <point x="697" y="630"/>
      <point x="610" y="577"/>
      <point x="549" y="484" type="curve"/>
      <point x="561" y="458" type="line"/>
      <point x="639" y="571"/>
      <point x="712" y="606"/>
      <point x="811" y="606" type="curve" smooth="yes"/>
      <point x="962" y="606"/>
      <point x="1037" y="504"/>
      <point x="1037" y="373" type="curve" smooth="yes"/>
      <point x="1037" y="240"/>
      <point x="946" y="163"/>
      <point x="811" y="163" type="curve" smooth="yes"/>
      <point x="768" y="163"/>
      <point x="719" y="167"/>
      <point x="685" y="179" type="curve"/>
      <point x="671" y="158" type="line"/>
      <point x="712" y="144"/>
      <point x="754" y="140"/>
    </contour>
  </outline>
</glyph>
<glyph name="i_m" format="2">
  <advance width="1092"/>
  <unicode hex="1023"/>
  <note>
i_m
</note>
  <outline>
    <contour>
      <point x="172" y="140" type="curve"/>
      <point x="186" y="157" type="line"/>
      <point x="126" y="197"/>
      <point x="81" y="265"/>
      <point x="81" y="375" type="curve" smooth="yes"/>
      <point x="81" y="521"/>
      <point x="178" y="608"/>
      <point x="309" y="608" type="curve" smooth="yes"/>
      <point x="472" y="608"/>
      <point x="533" y="495"/>
      <point x="533" y="333" type="curve" smooth="yes"/>
      <point x="533" y="254" type="line"/>
      <point x="559" y="254" type="line"/>
      <point x="559" y="333" type="line" smooth="yes"/>
      <point x="559" y="495"/>
      <point x="620" y="608"/>
      <point x="783" y="608" type="curve" smooth="yes"/>
      <point x="914" y="608"/>
      <point x="1011" y="521"/>
      <point x="1011" y="375" type="curve" smooth="yes"/>
      <point x="1011" y="265"/>
      <point x="966" y="197"/>
      <point x="906" y="157" type="curve"/>
      <point x="920" y="140" type="line"/>
      <point x="988" y="185"/>
      <point x="1037" y="256"/>
      <point x="1037" y="375" type="curve" smooth="yes"/>
      <point x="1037" y="533"/>
      <point x="924" y="631"/>
      <point x="784" y="631" type="curve" smooth="yes"/>
      <point x="637" y="631"/>
      <point x="554" y="533"/>
      <point x="545" y="428" type="curve"/>
      <point x="547" y="428" type="line"/>
      <point x="538" y="533"/>
      <point x="455" y="631"/>
      <point x="308" y="631" type="curve" smooth="yes"/>
      <point x="168" y="631"/>
      <point x="55" y="533"/>
      <point x="55" y="375" type="curve" smooth="yes"/>
      <point x="55" y="256"/>
      <point x="104" y="185"/>
    </contour>
    <contour>
      <point x="839" y="-272" type="line"/>
      <point x="990" y="-272" type="line"/>
      <point x="990" y="-249" type="line"/>
      <point x="855" y="-249" type="line"/>
      <point x="883" y="-224"/>
      <point x="927" y="-169"/>
      <point x="927" y="-87" type="curve" smooth="yes"/>
      <point x="927" y="35"/>
      <point x="845" y="105"/>
      <point x="734" y="105" type="curve" smooth="yes"/>
      <point x="623" y="105"/>
      <point x="552" y="29"/>
      <point x="546" y="-42" type="curve"/>
      <point x="548" y="-42" type="line"/>
      <point x="534" y="36"/>
      <point x="470" y="105"/>
      <point x="362" y="105" type="curve" smooth="yes"/>
      <point x="257" y="105"/>
      <point x="168" y="35"/>
      <point x="168" y="-76" type="curve" smooth="yes"/>
      <point x="168" y="-165"/>
      <point x="223" y="-233"/>
      <point x="259" y="-263" type="curve"/>
      <point x="279" y="-249" type="line"/>
      <point x="244" y="-216"/>
      <point x="194" y="-165"/>
      <point x="194" y="-76" type="curve" smooth="yes"/>
      <point x="194" y="19"/>
      <point x="262" y="81"/>
      <point x="362" y="81" type="curve" smooth="yes"/>
      <point x="474" y="81"/>
      <point x="535" y="0"/>
      <point x="535" y="-122" type="curve" smooth="yes"/>
      <point x="535" y="-180" type="line"/>
      <point x="561" y="-180" type="line"/>
      <point x="561" y="-124" type="line" smooth="yes"/>
      <point x="561" y="11"/>
      <point x="624" y="81"/>
      <point x="734" y="81" type="curve" smooth="yes"/>
      <point x="833" y="81"/>
      <point x="901" y="22"/>
      <point x="901" y="-87" type="curve" smooth="yes"/>
      <point x="901" y="-167"/>
      <point x="860" y="-216"/>
      <point x="817" y="-252" type="curve"/>
    </contour>
  </outline>
</glyph>
<glyph name="ii" format="2">
  <advance width="1225"/>
  <unicode hex="1024"/>
  <note>
ii
</note>
  <outline>
    <contour>
      <point x="327" y="-271" type="curve" smooth="yes"/>
      <point x="787" y="-271" type="line" smooth="yes"/>
      <point x="908" y="-271"/>
      <point x="974" y="-211"/>
      <point x="978" y="-98" type="curve" smooth="yes"/>
      <point x="978" y="360" type="line" smooth="yes"/>
      <point x="978" y="526"/>
      <point x="901" y="631"/>
      <point x="762" y="631" type="curve" smooth="yes"/>
      <point x="646" y="631"/>
      <point x="586" y="587"/>
      <point x="533" y="520" type="curve"/>
      <point x="549" y="499" type="line"/>
      <point x="601" y="570"/>
      <point x="655" y="608"/>
      <point x="762" y="608" type="curve" smooth="yes"/>
      <point x="882" y="608"/>
      <point x="952" y="521"/>
      <point x="952" y="355" type="curve" smooth="yes"/>
      <point x="952" y="-98" type="line" smooth="yes"/>
      <point x="952" y="-195"/>
      <point x="897" y="-248"/>
      <point x="787" y="-248" type="curve" smooth="yes"/>
      <point x="327" y="-248" type="line" smooth="yes"/>
      <point x="163" y="-248"/>
      <point x="81" y="-222"/>
      <point x="81" y="-141" type="curve" smooth="yes"/>
      <point x="81" y="-50"/>
      <point x="179" y="-22"/>
      <point x="373" y="-22" type="curve" smooth="yes"/>
      <point x="519" y="-22"/>
      <point x="629" y="-57"/>
      <point x="711" y="-86" type="curve"/>
      <point x="725" y="-65" type="line"/>
      <point x="640" y="-36"/>
      <point x="515" y="1"/>
      <point x="373" y="1" type="curve" smooth="yes"/>
      <point x="163" y="1"/>
      <point x="55" y="-36"/>
      <point x="55" y="-141" type="curve" smooth="yes"/>
      <point x="55" y="-236"/>
      <point x="145" y="-271"/>
    </contour>
    <contour>
      <point x="170" y="140" type="curve"/>
      <point x="188" y="158" type="line"/>
      <point x="128" y="196"/>
      <point x="84" y="299"/>
      <point x="84" y="375" type="curve" smooth="yes"/>
      <point x="84" y="525"/>
      <point x="191" y="608"/>
      <point x="321" y="608" type="curve" smooth="yes"/>
      <point x="451" y="608"/>
      <point x="558" y="525"/>
      <point x="558" y="375" type="curve" smooth="yes"/>
      <point x="558" y="299"/>
      <point x="514" y="196"/>
      <point x="454" y="158" type="curve"/>
      <point x="472" y="140" type="line"/>
      <point x="534" y="183"/>
      <point x="584" y="285"/>
      <point x="584" y="375" type="curve" smooth="yes"/>
      <point x="584" y="529"/>
      <point x="472" y="631"/>
      <point x="321" y="631" type="curve" smooth="yes"/>
      <point x="170" y="631"/>
      <point x="58" y="529"/>
      <point x="58" y="375" type="curve" smooth="yes"/>
      <point x="58" y="285"/>
      <point x="108" y="183"/>
    </contour>
    <contour>
      <point x="1118" y="-272" type="line"/>
      <point x="1144" y="-272" type="line"/>
      <point x="1144" y="317" type="line" smooth="yes"/>
      <point x="1144" y="530"/>
      <point x="1096" y="631"/>
      <point x="974" y="717" type="curve" smooth="yes"/>
      <point x="868" y="792"/>
      <point x="841" y="840"/>
      <point x="841" y="901" type="curve" smooth="yes"/>
      <point x="841" y="971"/>
      <point x="894" y="1029"/>
      <point x="1001" y="1029" type="curve" smooth="yes"/>
      <point x="1067" y="1029"/>
      <point x="1121" y="1010"/>
      <point x="1148" y="962" type="curve"/>
      <point x="1170" y="973" type="line"/>
      <point x="1143" y="1022"/>
      <point x="1084" y="1053"/>
      <point x="1001" y="1053" type="curve" smooth="yes"/>
      <point x="886" y="1053"/>
      <point x="815" y="985"/>
      <point x="815" y="901" type="curve" smooth="yes"/>
      <point x="815" y="825"/>
      <point x="861" y="767"/>
      <point x="957" y="699" type="curve" smooth="yes"/>
      <point x="1078" y="613"/>
      <point x="1118" y="523"/>
      <point x="1118" y="324" type="curve" smooth="yes"/>
    </contour>
  </outline>
</glyph>
<glyph name="u_m" format="2">
  <advance width="639"/>
  <unicode hex="1025"/>
  <note>
u_m
</note>
  <outline>
    <contour>
      <point x="285" y="-271" type="curve" smooth="yes"/>
      <point x="395" y="-271" type="line" smooth="yes"/>
      <point x="517" y="-271"/>
      <point x="582" y="-229"/>
      <point x="582" y="-144" type="curve" smooth="yes"/>
      <point x="582" y="-72"/>
      <point x="528" y="-24"/>
      <point x="457" y="-24" type="curve" smooth="yes"/>
      <point x="397" y="-24"/>
      <point x="368" y="-43"/>
      <point x="329" y="-74" type="curve"/>
      <point x="348" y="-91" type="line"/>
      <point x="376" y="-65"/>
      <point x="404" y="-47"/>
      <point x="457" y="-47" type="curve" smooth="yes"/>
      <point x="517" y="-47"/>
      <point x="556" y="-87"/>
      <point x="556" y="-144" type="curve" smooth="yes"/>
      <point x="556" y="-216"/>
      <point x="502" y="-248"/>
      <point x="395" y="-248" type="curve" smooth="yes"/>
      <point x="285" y="-248" type="line" smooth="yes"/>
      <point x="177" y="-248"/>
      <point x="121" y="-197"/>
      <point x="121" y="-95" type="curve" smooth="yes"/>
      <point x="121" y="253" type="line"/>
      <point x="95" y="292" type="line"/>
      <point x="95" y="-95" type="line" smooth="yes"/>
      <point x="95" y="-216"/>
      <point x="161" y="-271"/>
    </contour>
    <contour>
      <point x="334" y="140" type="curve" smooth="yes"/>
      <point x="489" y="140"/>
      <point x="582" y="249"/>
      <point x="582" y="384" type="curve" smooth="yes"/>
      <point x="582" y="516"/>
      <point x="493" y="631"/>
      <point x="334" y="631" type="curve" smooth="yes"/>
      <point x="219" y="631"/>
      <point x="136" y="571"/>
      <point x="99" y="486" type="curve"/>
      <point x="123" y="477" type="line"/>
      <point x="155" y="555"/>
      <point x="229" y="608"/>
      <point x="334" y="608" type="curve" smooth="yes"/>
      <point x="478" y="608"/>
      <point x="556" y="505"/>
      <point x="556" y="384" type="curve" smooth="yes"/>
      <point x="556" y="247"/>
      <point x="461" y="163"/>
      <point x="334" y="163" type="curve" smooth="yes"/>
      <point x="229" y="163"/>
      <point x="150" y="217"/>
      <point x="119" y="302" type="curve"/>
      <point x="95" y="292" type="line"/>
      <point x="130" y="200"/>
      <point x="217" y="140"/>
    </contour>
  </outline>
</glyph>
<glyph name="e_m" format="2">
  <advance width="605"/>
  <unicode hex="1027"/>
  <note>
e_m
</note>
  <outline>
    <contour>
      <point x="310" y="140" type="curve" smooth="yes"/>
      <point x="423" y="140"/>
      <point x="493" y="189"/>
      <point x="554" y="254" type="curve"/>
      <point x="492" y="310"/>
      <point x="408" y="343"/>
      <point x="321" y="343" type="curve" smooth="yes"/>
      <point x="224" y="343"/>
      <point x="152" y="299"/>
      <point x="112" y="264" type="curve"/>
      <point x="91" y="299"/>
      <point x="81" y="343"/>
      <point x="81" y="386" type="curve" smooth="yes"/>
      <point x="81" y="429"/>
      <point x="91" y="472"/>
      <point x="112" y="507" type="curve"/>
      <point x="152" y="472"/>
      <point x="224" y="429"/>
      <point x="321" y="429" type="curve" smooth="yes"/>
      <point x="408" y="429"/>
      <point x="492" y="461"/>
      <point x="554" y="517" type="curve"/>
      <point x="493" y="583"/>
      <point x="423" y="631"/>
      <point x="310" y="631" type="curve" smooth="yes"/>
      <point x="146" y="631"/>
      <point x="55" y="519"/>
      <point x="55" y="386" type="curve" smooth="yes"/>
      <point x="55" y="253"/>
      <point x="146" y="140"/>
    </contour>
    <contour>
      <point x="310" y="163" type="curve" smooth="yes"/>
      <point x="219" y="163"/>
      <point x="161" y="200"/>
      <point x="126" y="245" type="curve"/>
      <point x="168" y="283"/>
      <point x="234" y="319"/>
      <point x="321" y="319" type="curve" smooth="yes"/>
      <point x="400" y="319"/>
      <point x="476" y="290"/>
      <point x="516" y="253" type="curve"/>
      <point x="470" y="200"/>
      <point x="401" y="163"/>
    </contour>
    <contour>
      <point x="321" y="452" type="curve" smooth="yes"/>
      <point x="234" y="452"/>
      <point x="168" y="488"/>
      <point x="126" y="526" type="curve"/>
      <point x="161" y="571"/>
      <point x="219" y="608"/>
      <point x="310" y="608" type="curve" smooth="yes"/>
      <point x="401" y="608"/>
      <point x="470" y="571"/>
      <point x="516" y="519" type="curve"/>
      <point x="476" y="481"/>
      <point x="400" y="452"/>
    </contour>
  </outline>
</glyph>
<glyph name="e_mon" format="2">
  <advance width="607"/>
  <unicode hex="1028"/>
  <note>
e_mon
</note>
  <outline>
    <contour>
      <point x="341" y="-271" type="curve" smooth="yes"/>
      <point x="488" y="-271"/>
      <point x="580" y="-171"/>
      <point x="580" y="-55" type="curve" smooth="yes"/>
      <point x="580" y="-36" type="line"/>
      <point x="554" y="-36" type="line"/>
      <point x="554" y="-55" type="line" smooth="yes"/>
      <point x="554" y="-160"/>
      <point x="474" y="-248"/>
      <point x="341" y="-248" type="curve" smooth="yes"/>
      <point x="201" y="-248"/>
      <point x="129" y="-164"/>
      <point x="129" y="1" type="curve" smooth="yes"/>
      <point x="129" y="377" type="line" smooth="yes"/>
      <point x="129" y="513"/>
      <point x="212" y="617"/>
      <point x="336" y="617" type="curve" smooth="yes"/>
      <point x="469" y="617"/>
      <point x="554" y="523"/>
      <point x="554" y="397" type="curve" smooth="yes"/>
      <point x="554" y="260"/>
      <point x="480" y="163"/>
      <point x="403" y="163" type="curve" smooth="yes"/>
      <point x="369" y="163"/>
      <point x="355" y="181"/>
      <point x="355" y="207" type="curve" smooth="yes"/>
      <point x="355" y="235"/>
      <point x="368" y="252"/>
      <point x="389" y="277" type="curve" smooth="yes"/>
      <point x="403" y="294"/>
      <point x="435" y="323"/>
      <point x="435" y="365" type="curve" smooth="yes"/>
      <point x="435" y="415"/>
      <point x="402" y="445"/>
      <point x="354" y="445" type="curve" smooth="yes"/>
      <point x="302" y="445"/>
      <point x="271" y="412"/>
      <point x="252" y="375" type="curve"/>
      <point x="275" y="363" type="line"/>
      <point x="291" y="394"/>
      <point x="312" y="422"/>
      <point x="354" y="422" type="curve" smooth="yes"/>
      <point x="392" y="422"/>
      <point x="409" y="398"/>
      <point x="409" y="365" type="curve" smooth="yes"/>
      <point x="409" y="334"/>
      <point x="388" y="311"/>
      <point x="371" y="293" type="curve" smooth="yes"/>
      <point x="345" y="264"/>
      <point x="329" y="241"/>
      <point x="329" y="207" type="curve" smooth="yes"/>
      <point x="329" y="167"/>
      <point x="357" y="140"/>
      <point x="403" y="140" type="curve" smooth="yes"/>
      <point x="493" y="140"/>
      <point x="580" y="244"/>
      <point x="580" y="397" type="curve" smooth="yes"/>
      <point x="580" y="533"/>
      <point x="486" y="640"/>
      <point x="334" y="640" type="curve" smooth="yes"/>
      <point x="196" y="640"/>
      <point x="103" y="523"/>
      <point x="103" y="377" type="curve" smooth="yes"/>
      <point x="103" y="1" type="line" smooth="yes"/>
      <point x="103" y="-179"/>
      <point x="188" y="-271"/>
    </contour>
  </outline>
</glyph>
<glyph name="o_m" format="2">
  <advance width="1275"/>
  <unicode hex="1029"/>
  <note>
o_m
</note>
  <outline>
    <contour>
      <point x="255" y="-272" type="curve" smooth="yes"/>
      <point x="1016" y="-272" type="line" smooth="yes"/>
      <point x="1142" y="-272"/>
      <point x="1206" y="-210"/>
      <point x="1206" y="-93" type="curve" smooth="yes"/>
      <point x="1206" y="307" type="line"/>
      <point x="1180" y="307" type="line"/>
      <point x="1180" y="-93" type="line" smooth="yes"/>
      <point x="1180" y="-196"/>
      <point x="1130" y="-249"/>
      <point x="1016" y="-249" type="curve" smooth="yes"/>
      <point x="255" y="-249" type="line" smooth="yes"/>
      <point x="147" y="-249"/>
      <point x="90" y="-200"/>
      <point x="90" y="-93" type="curve" smooth="yes"/>
      <point x="90" y="872" type="line" smooth="yes"/>
      <point x="90" y="979"/>
      <point x="147" y="1027"/>
      <point x="255" y="1027" type="curve" smooth="yes"/>
      <point x="1016" y="1027" type="line" smooth="yes"/>
      <point x="1130" y="1027"/>
      <point x="1180" y="974"/>
      <point x="1180" y="872" type="curve" smooth="yes"/>
      <point x="1180" y="838" type="line"/>
      <point x="1206" y="838" type="line"/>
      <point x="1206" y="872" type="line" smooth="yes"/>
      <point x="1206" y="989"/>
      <point x="1142" y="1051"/>
      <point x="1016" y="1051" type="curve" smooth="yes"/>
      <point x="255" y="1051" type="line" smooth="yes"/>
      <point x="129" y="1051"/>
      <point x="65" y="989"/>
      <point x="65" y="872" type="curve" smooth="yes"/>
      <point x="65" y="-93" type="line" smooth="yes"/>
      <point x="65" y="-210"/>
      <point x="129" y="-272"/>
    </contour>
    <contour>
      <point x="459" y="140" type="curve" smooth="yes"/>
      <point x="619" y="140"/>
      <point x="714" y="249"/>
      <point x="714" y="384" type="curve" smooth="yes"/>
      <point x="714" y="516"/>
      <point x="623" y="631"/>
      <point x="459" y="631" type="curve" smooth="yes"/>
      <point x="338" y="631"/>
      <point x="250" y="571"/>
      <point x="211" y="486" type="curve"/>
      <point x="235" y="477" type="line"/>
      <point x="269" y="555"/>
      <point x="348" y="608"/>
      <point x="459" y="608" type="curve" smooth="yes"/>
      <point x="608" y="608"/>
      <point x="688" y="505"/>
      <point x="688" y="384" type="curve" smooth="yes"/>
      <point x="688" y="247"/>
      <point x="590" y="163"/>
      <point x="459" y="163" type="curve" smooth="yes"/>
      <point x="348" y="163"/>
      <point x="264" y="217"/>
      <point x="231" y="302" type="curve"/>
      <point x="207" y="292" type="line"/>
      <point x="244" y="200"/>
      <point x="336" y="140"/>
    </contour>
    <contour>
      <point x="968" y="142" type="curve" smooth="yes"/>
      <point x="1129" y="142"/>
      <point x="1220" y="253"/>
      <point x="1220" y="398" type="curve" smooth="yes"/>
      <point x="1220" y="543"/>
      <point x="1118" y="631"/>
      <point x="968" y="631" type="curve" smooth="yes"/>
      <point x="911" y="631"/>
      <point x="869" y="627"/>
      <point x="828" y="613" type="curve"/>
      <point x="842" y="593" type="line"/>
      <point x="876" y="604"/>
      <point x="925" y="608"/>
      <point x="968" y="608" type="curve" smooth="yes"/>
      <point x="1103" y="608"/>
      <point x="1194" y="532"/>
      <point x="1194" y="398" type="curve" smooth="yes"/>
      <point x="1194" y="268"/>
      <point x="1119" y="165"/>
      <point x="968" y="165" type="curve" smooth="yes"/>
      <point x="862" y="165"/>
      <point x="784" y="200"/>
      <point x="701" y="314" type="curve"/>
      <point x="689" y="288" type="line"/>
      <point x="754" y="195"/>
      <point x="846" y="142"/>
    </contour>
  </outline>
</glyph>
<glyph name="_tall_aa" format="2">
  <advance width="215"/>
  <unicode hex="102B"/>
  <note>
_tall_aa
</note>
  <outline>
    <contour>
      <point x="87" y="149" type="line"/>
      <point x="113" y="149" type="line"/>
      <point x="113" y="877" type="line" smooth="yes"/>
      <point x="113" y="985"/>
      <point x="60" y="1051"/>
      <point x="-33" y="1051" type="curve" smooth="yes"/>
      <point x="-115" y="1051"/>
      <point x="-181" y="997"/>
      <point x="-181" y="886" type="curve" smooth="yes"/>
      <point x="-181" y="843" type="line"/>
      <point x="-155" y="843" type="line"/>
      <point x="-155" y="886" type="line" smooth="yes"/>
      <point x="-155" y="982"/>
      <point x="-106" y="1027"/>
      <point x="-33" y="1027" type="curve" smooth="yes"/>
      <point x="51" y="1027"/>
      <point x="87" y="966"/>
      <point x="87" y="877" type="curve" smooth="yes"/>
    </contour>
  </outline>
</glyph>
<glyph name="_aa" format="2">
  <advance width="535"/>
  <unicode hex="102C"/>
  <note>
_aa
</note>
  <outline>
    <contour>
      <point x="141" y="142" type="curve" smooth="yes"/>
      <point x="291" y="142"/>
      <point x="393" y="230"/>
      <point x="393" y="375" type="curve" smooth="yes"/>
      <point x="393" y="520"/>
      <point x="302" y="631"/>
      <point x="136" y="631" type="curve" smooth="yes"/>
      <point x="25" y="631"/>
      <point x="-58" y="594"/>
      <point x="-110" y="558" type="curve"/>
      <point x="-102" y="533" type="line"/>
      <point x="-49" y="573"/>
      <point x="25" y="608"/>
      <point x="136" y="608" type="curve" smooth="yes"/>
      <point x="292" y="608"/>
      <point x="367" y="505"/>
      <point x="367" y="375" type="curve" smooth="yes"/>
      <point x="367" y="242"/>
      <point x="276" y="165"/>
      <point x="141" y="165" type="curve" smooth="yes"/>
      <point x="98" y="165"/>
      <point x="49" y="169"/>
      <point x="15" y="181" type="curve"/>
      <point x="1" y="160" type="line"/>
      <point x="42" y="146"/>
      <point x="74" y="142"/>
    </contour>
  </outline>
</glyph>
<glyph name="_i" format="2">
  <unicode hex="102D"/>
  <note>
_i
</note>
  <outline>
    <contour>
      <point x="-293" y="713" type="curve" smooth="yes"/>
      <point x="-190" y="713"/>
      <point x="-120" y="783"/>
      <point x="-120" y="879" type="curve" smooth="yes"/>
      <point x="-120" y="967"/>
      <point x="-182" y="1046"/>
      <point x="-293" y="1046" type="curve" smooth="yes"/>
      <point x="-388" y="1046"/>
      <point x="-465" y="975"/>
      <point x="-465" y="879" type="curve" smooth="yes"/>
      <point x="-465" y="793"/>
      <point x="-404" y="713"/>
    </contour>
    <contour>
      <point x="-293" y="737" type="curve" smooth="yes"/>
      <point x="-386" y="737"/>
      <point x="-439" y="801"/>
      <point x="-439" y="879" type="curve" smooth="yes"/>
      <point x="-439" y="964"/>
      <point x="-373" y="1023"/>
      <point x="-293" y="1023" type="curve" smooth="yes"/>
      <point x="-200" y="1023"/>
      <point x="-146" y="957"/>
      <point x="-146" y="879" type="curve" smooth="yes"/>
      <point x="-146" y="787"/>
      <point x="-211" y="737"/>
    </contour>
  </outline>
</glyph>
<glyph name="_ii" format="2">
  <unicode hex="102E"/>
  <note>
_ii
</note>
  <outline>
    <contour>
      <point x="-293" y="713" type="curve" smooth="yes"/>
      <point x="-190" y="713"/>
      <point x="-120" y="783"/>
      <point x="-120" y="879" type="curve" smooth="yes"/>
      <point x="-120" y="967"/>
      <point x="-182" y="1046"/>
      <point x="-293" y="1046" type="curve" smooth="yes"/>
      <point x="-388" y="1046"/>
      <point x="-465" y="975"/>
      <point x="-465" y="879" type="curve" smooth="yes"/>
      <point x="-465" y="793"/>
      <point x="-404" y="713"/>
    </contour>
    <contour>
      <point x="-293" y="737" type="curve" smooth="yes"/>
      <point x="-386" y="737"/>
      <point x="-439" y="801"/>
      <point x="-439" y="879" type="curve" smooth="yes"/>
      <point x="-439" y="964"/>
      <point x="-373" y="1023"/>
      <point x="-293" y="1023" type="curve" smooth="yes"/>
      <point x="-200" y="1023"/>
      <point x="-146" y="957"/>
      <point x="-146" y="879" type="curve" smooth="yes"/>
      <point x="-146" y="787"/>
      <point x="-211" y="737"/>
    </contour>
    <contour>
      <point x="-426" y="802" type="line"/>
      <point x="-386" y="834"/>
      <point x="-345" y="854"/>
      <point x="-294" y="854" type="curve" smooth="yes"/>
      <point x="-243" y="854"/>
      <point x="-202" y="834"/>
      <point x="-162" y="802" type="curve"/>
      <point x="-146" y="820" type="line"/>
      <point x="-186" y="850"/>
      <point x="-225" y="877"/>
      <point x="-294" y="877" type="curve" smooth="yes"/>
      <point x="-363" y="877"/>
      <point x="-402" y="850"/>
      <point x="-442" y="820" type="curve"/>
    </contour>
  </outline>
</glyph>
<glyph name="_u" format="2">
  <unicode hex="102F"/>
  <note>
_u
</note>
  <outline>
    <contour>
      <point x="-366" y="-272" type="line"/>
      <point x="-170" y="-272" type="line"/>
      <point x="-170" y="-249" type="line"/>
      <point x="-340" y="-249" type="line"/>
      <point x="-340" y="103" type="line"/>
      <point x="-366" y="103" type="line"/>
    </contour>
  </outline>
</glyph>
<glyph name="_uu" format="2">
  <unicode hex="1030"/>
  <note>
_uu
</note>
  <outline>
    <contour>
      <point x="-319" y="-272" type="line"/>
      <point x="-125" y="-272" type="line"/>
      <point x="-125" y="-249" type="line"/>
      <point x="-293" y="-249" type="line"/>
      <point x="-293" y="103" type="line"/>
      <point x="-319" y="103" type="line"/>
    </contour>
    <contour>
      <point x="-481" y="-272" type="line"/>
      <point x="-455" y="-272" type="line"/>
      <point x="-455" y="103" type="line"/>
      <point x="-481" y="103" type="line"/>
    </contour>
  </outline>
</glyph>
<glyph name="_e" format="2">
  <advance width="611"/>
  <unicode hex="1031"/>
  <note>
_e
</note>
  <outline>
    <contour>
      <point x="305" y="140" type="curve" smooth="yes"/>
      <point x="423" y="140"/>
      <point x="507" y="191"/>
      <point x="551" y="280" type="curve"/>
      <point x="499" y="332"/>
      <point x="426" y="367"/>
      <point x="338" y="367" type="curve" smooth="yes"/>
      <point x="214" y="367"/>
      <point x="134" y="316"/>
      <point x="91" y="267" type="curve"/>
      <point x="110" y="253" type="line"/>
      <point x="156" y="297"/>
      <point x="219" y="343"/>
      <point x="338" y="343" type="curve" smooth="yes"/>
      <point x="413" y="343"/>
      <point x="476" y="315"/>
      <point x="518" y="276" type="curve"/>
      <point x="480" y="204"/>
      <point x="406" y="163"/>
      <point x="305" y="163" type="curve" smooth="yes"/>
      <point x="178" y="163"/>
      <point x="81" y="252"/>
      <point x="81" y="384" type="curve" smooth="yes"/>
      <point x="81" y="510"/>
      <point x="170" y="608"/>
      <point x="315" y="608" type="curve" smooth="yes"/>
      <point x="432" y="608"/>
      <point x="507" y="553"/>
      <point x="538" y="476" type="curve"/>
      <point x="561" y="487" type="line"/>
      <point x="526" y="570"/>
      <point x="442" y="631"/>
      <point x="315" y="631" type="curve" smooth="yes"/>
      <point x="156" y="631"/>
      <point x="55" y="521"/>
      <point x="55" y="384" type="curve" smooth="yes"/>
      <point x="55" y="242"/>
      <point x="161" y="140"/>
    </contour>
  </outline>
</glyph>
<glyph name="_ai" format="2">
  <unicode hex="1032"/>
  <note>
_ai
</note>
  <outline>
    <contour>
      <point x="-191" y="706" type="line"/>
      <point x="-173" y="723" type="line"/>
      <point x="-355" y="915" type="line"/>
      <point x="-375" y="900" type="line"/>
    </contour>
  </outline>
</glyph>
<glyph name="_ii_mon" format="2">
  <unicode hex="1033"/>
  <note>
_ii_mon
</note>
  <outline>
    <contour>
      <point x="-315" y="713" type="curve" smooth="yes"/>
      <point x="-212" y="713"/>
      <point x="-128" y="779"/>
      <point x="-128" y="880" type="curve" smooth="yes"/>
      <point x="-128" y="973"/>
      <point x="-208" y="1045"/>
      <point x="-315" y="1045" type="curve" smooth="yes"/>
      <point x="-421" y="1045"/>
      <point x="-499" y="968"/>
      <point x="-499" y="880" type="curve" smooth="yes"/>
      <point x="-499" y="785"/>
      <point x="-419" y="713"/>
    </contour>
    <contour>
      <point x="-315" y="738" type="curve" smooth="yes"/>
      <point x="-404" y="738"/>
      <point x="-473" y="794"/>
      <point x="-473" y="880" type="curve" smooth="yes"/>
      <point x="-473" y="962"/>
      <point x="-405" y="1021"/>
      <point x="-315" y="1021" type="curve" smooth="yes"/>
      <point x="-222" y="1021"/>
      <point x="-154" y="957"/>
      <point x="-154" y="880" type="curve" smooth="yes"/>
      <point x="-154" y="788"/>
      <point x="-223" y="738"/>
    </contour>
    <contour>
      <point x="-315" y="810" type="curve" smooth="yes"/>
      <point x="-272" y="810"/>
      <point x="-235" y="839"/>
      <point x="-235" y="880" type="curve" smooth="yes"/>
      <point x="-235" y="922"/>
      <point x="-269" y="949"/>
      <point x="-315" y="949" type="curve" smooth="yes"/>
      <point x="-360" y="949"/>
      <point x="-392" y="921"/>
      <point x="-392" y="880" type="curve" smooth="yes"/>
      <point x="-392" y="838"/>
      <point x="-356" y="810"/>
    </contour>
    <contour>
      <point x="-315" y="833" type="curve" smooth="yes"/>
      <point x="-344" y="833"/>
      <point x="-366" y="852"/>
      <point x="-366" y="880" type="curve" smooth="yes"/>
      <point x="-366" y="908"/>
      <point x="-341" y="926"/>
      <point x="-315" y="926" type="curve" smooth="yes"/>
      <point x="-283" y="926"/>
      <point x="-261" y="908"/>
      <point x="-261" y="880" type="curve" smooth="yes"/>
      <point x="-261" y="852"/>
      <point x="-282" y="833"/>
    </contour>
  </outline>
</glyph>
<glyph name="_o_mon" format="2">
  <unicode hex="1034"/>
  <note>
_o_mon
</note>
  <outline>
    <contour>
      <point x="-404" y="713" type="line"/>
      <point x="-232" y="904" type="line"/>
      <point x="-255" y="917" type="line"/>
      <point x="-425" y="732" type="line"/>
    </contour>
  </outline>
</glyph>
<glyph name="_e_above" format="2">
  <unicode hex="1035"/>
  <note>
_e_above
</note>
  <outline>
    <contour>
      <point x="-293" y="713" type="curve" smooth="yes"/>
      <point x="-212" y="713"/>
      <point x="-147" y="751"/>
      <point x="-117" y="815" type="curve"/>
      <point x="-164" y="851"/>
      <point x="-217" y="872"/>
      <point x="-285" y="872" type="curve" smooth="yes"/>
      <point x="-360" y="872"/>
      <point x="-414" y="849"/>
      <point x="-446" y="826" type="curve"/>
      <point x="-431" y="808" type="line"/>
      <point x="-399" y="828"/>
      <point x="-357" y="848"/>
      <point x="-284" y="848" type="curve" smooth="yes"/>
      <point x="-227" y="848"/>
      <point x="-183" y="831"/>
      <point x="-149" y="808" type="curve"/>
      <point x="-178" y="762"/>
      <point x="-231" y="737"/>
      <point x="-294" y="737" type="curve" smooth="yes"/>
      <point x="-389" y="737"/>
      <point x="-446" y="798"/>
      <point x="-446" y="880" type="curve" smooth="yes"/>
      <point x="-446" y="962"/>
      <point x="-388" y="1023"/>
      <point x="-293" y="1023" type="curve" smooth="yes"/>
      <point x="-216" y="1023"/>
      <point x="-162" y="989"/>
      <point x="-139" y="937" type="curve"/>
      <point x="-117" y="948" type="line"/>
      <point x="-143" y="1005"/>
      <point x="-204" y="1046"/>
      <point x="-293" y="1046" type="curve" smooth="yes"/>
      <point x="-403" y="1046"/>
      <point x="-472" y="973"/>
      <point x="-472" y="880" type="curve" smooth="yes"/>
      <point x="-472" y="784"/>
      <point x="-402" y="713"/>
    </contour>
  </outline>
</glyph>
<glyph name="anusvara" format="2">
  <unicode hex="1036"/>
  <note>
anusvara
</note>
  <outline>
    <contour>
      <point x="-321" y="727" type="curve" smooth="yes"/>
      <point x="-269" y="727"/>
      <point x="-230" y="757"/>
      <point x="-230" y="811" type="curve" smooth="yes"/>
      <point x="-230" y="862"/>
      <point x="-269" y="892"/>
      <point x="-321" y="892" type="curve" smooth="yes"/>
      <point x="-374" y="892"/>
      <point x="-411" y="856"/>
      <point x="-411" y="810" type="curve" smooth="yes"/>
      <point x="-411" y="759"/>
      <point x="-375" y="727"/>
    </contour>
    <contour>
      <point x="-320" y="750" type="curve" smooth="yes"/>
      <point x="-361" y="750"/>
      <point x="-385" y="770"/>
      <point x="-385" y="810" type="curve" smooth="yes"/>
      <point x="-385" y="844"/>
      <point x="-360" y="869"/>
      <point x="-320" y="869" type="curve" smooth="yes"/>
      <point x="-282" y="869"/>
      <point x="-256" y="844"/>
      <point x="-256" y="810" type="curve" smooth="yes"/>
      <point x="-256" y="772"/>
      <point x="-282" y="750"/>
    </contour>
  </outline>
</glyph>
<glyph name="dot_below" format="2">
  <unicode hex="1037"/>
  <note>
dot_below
</note>
  <outline>
    <contour>
      <point x="-322" y="-154" type="curve" smooth="yes"/>
      <point x="-270" y="-154"/>
      <point x="-231" y="-124"/>
      <point x="-231" y="-71" type="curve" smooth="yes"/>
      <point x="-231" y="-19"/>
      <point x="-270" y="11"/>
      <point x="-322" y="11" type="curve" smooth="yes"/>
      <point x="-375" y="11"/>
      <point x="-412" y="-25"/>
      <point x="-412" y="-72" type="curve" smooth="yes"/>
      <point x="-412" y="-122"/>
      <point x="-376" y="-154"/>
    </contour>
    <contour>
      <point x="-321" y="-131" type="curve" smooth="yes"/>
      <point x="-362" y="-131"/>
      <point x="-386" y="-111"/>
      <point x="-386" y="-72" type="curve" smooth="yes"/>
      <point x="-386" y="-37"/>
      <point x="-361" y="-12"/>
      <point x="-321" y="-12" type="curve" smooth="yes"/>
      <point x="-283" y="-12"/>
      <point x="-257" y="-37"/>
      <point x="-257" y="-72" type="curve" smooth="yes"/>
      <point x="-257" y="-109"/>
      <point x="-283" y="-131"/>
    </contour>
  </outline>
</glyph>
<glyph name="visarga" format="2">
  <advance width="307"/>
  <unicode hex="1038"/>
  <note>
visarga
</note>
  <outline>
    <contour>
      <point x="152" y="464" type="curve" smooth="yes"/>
      <point x="204" y="464"/>
      <point x="243" y="495"/>
      <point x="243" y="548" type="curve" smooth="yes"/>
      <point x="243" y="599"/>
      <point x="204" y="630"/>
      <point x="152" y="630" type="curve" smooth="yes"/>
      <point x="99" y="630"/>
      <point x="62" y="594"/>
      <point x="62" y="547" type="curve" smooth="yes"/>
      <point x="62" y="496"/>
      <point x="98" y="464"/>
    </contour>
    <contour>
      <point x="153" y="137" type="curve" smooth="yes"/>
      <point x="205" y="137"/>
      <point x="244" y="168"/>
      <point x="244" y="221" type="curve" smooth="yes"/>
      <point x="244" y="272"/>
      <point x="205" y="303"/>
      <point x="153" y="303" type="curve" smooth="yes"/>
      <point x="100" y="303"/>
      <point x="63" y="267"/>
      <point x="63" y="220" type="curve" smooth="yes"/>
      <point x="63" y="170"/>
      <point x="99" y="137"/>
    </contour>
    <contour>
      <point x="154" y="161" type="curve" smooth="yes"/>
      <point x="113" y="161"/>
      <point x="89" y="181"/>
      <point x="89" y="220" type="curve" smooth="yes"/>
      <point x="89" y="254"/>
      <point x="114" y="280"/>
      <point x="154" y="280" type="curve" smooth="yes"/>
      <point x="192" y="280"/>
      <point x="218" y="254"/>
      <point x="218" y="220" type="curve" smooth="yes"/>
      <point x="218" y="182"/>
      <point x="192" y="161"/>
    </contour>
    <contour>
      <point x="153" y="487" type="curve" smooth="yes"/>
      <point x="112" y="487"/>
      <point x="88" y="507"/>
      <point x="88" y="547" type="curve" smooth="yes"/>
      <point x="88" y="581"/>
      <point x="113" y="606"/>
      <point x="153" y="606" type="curve" smooth="yes"/>
      <point x="191" y="606"/>
      <point x="217" y="581"/>
      <point x="217" y="547" type="curve" smooth="yes"/>
      <point x="217" y="509"/>
      <point x="191" y="487"/>
    </contour>
  </outline>
</glyph>
<glyph name="asat" format="2">
  <unicode hex="103A"/>
  <note>
asat
</note>
  <outline>
    <contour>
      <point x="-366" y="723" type="curve"/>
      <point x="-347" y="740" type="line"/>
      <point x="-407" y="775"/>
      <point x="-438" y="824"/>
      <point x="-438" y="886" type="curve" smooth="yes"/>
      <point x="-438" y="971"/>
      <point x="-379" y="1023"/>
      <point x="-298" y="1023" type="curve" smooth="yes"/>
      <point x="-239" y="1023"/>
      <point x="-206" y="993"/>
      <point x="-183" y="958" type="curve"/>
      <point x="-162" y="971" type="line"/>
      <point x="-188" y="1011"/>
      <point x="-228" y="1046"/>
      <point x="-298" y="1046" type="curve" smooth="yes"/>
      <point x="-387" y="1046"/>
      <point x="-464" y="989"/>
      <point x="-464" y="886" type="curve" smooth="yes"/>
      <point x="-464" y="802"/>
      <point x="-413" y="755"/>
    </contour>
  </outline>
</glyph>
<glyph name="medial_ya" format="2">
  <advance width="196"/>
  <unicode hex="103B"/>
  <note>
medial_ya
</note>
  <outline>
    <contour>
      <point x="111" y="-263" type="line"/>
      <point x="111" y="613" type="line"/>
      <point x="85" y="613" type="line"/>
      <point x="85" y="-228" type="line"/>
      <point x="-98" y="-153" type="line"/>
      <point x="-98" y="252" type="line"/>
      <point x="-124" y="252" type="line"/>
      <point x="-124" y="-169" type="line"/>
    </contour>
  </outline>
</glyph>
<glyph name="medial_wa" format="2">
  <unicode hex="103D"/>
  <note>
medial_wa
</note>
  <outline>
    <contour>
      <point x="-325" y="-218" type="curve" smooth="yes"/>
      <point x="-230" y="-218"/>
      <point x="-166" y="-153"/>
      <point x="-166" y="-62" type="curve" smooth="yes"/>
      <point x="-166" y="26"/>
      <point x="-224" y="103"/>
      <point x="-328" y="103" type="curve" smooth="yes"/>
      <point x="-420" y="103"/>
      <point x="-488" y="36"/>
      <point x="-488" y="-62" type="curve" smooth="yes"/>
      <point x="-488" y="-143"/>
      <point x="-430" y="-218"/>
    </contour>
    <contour>
      <point x="-325" y="-196" type="curve" smooth="yes"/>
      <point x="-412" y="-196"/>
      <point x="-462" y="-136"/>
      <point x="-462" y="-62" type="curve" smooth="yes"/>
      <point x="-462" y="24"/>
      <point x="-408" y="81"/>
      <point x="-328" y="81" type="curve" smooth="yes"/>
      <point x="-242" y="81"/>
      <point x="-192" y="17"/>
      <point x="-192" y="-62" type="curve" smooth="yes"/>
      <point x="-192" y="-148"/>
      <point x="-251" y="-196"/>
    </contour>
  </outline>
</glyph>
<glyph name="medial_ha" format="2">
  <unicode hex="103E"/>
  <note>
medial_ha
</note>
  <outline>
    <contour>
      <point x="-472" y="-272" type="line"/>
      <point x="-278" y="-272" type="line"/>
      <point x="-278" y="103" type="line"/>
      <point x="-304" y="103" type="line"/>
      <point x="-304" y="-249" type="line"/>
      <point x="-472" y="-249" type="line"/>
    </contour>
  </outline>
</glyph>
<glyph name="great_sa" format="2">
  <advance width="1617"/>
  <unicode hex="103F"/>
  <note>
great_sa
</note>
  <outline>
    <contour>
      <point x="302" y="140" type="curve" smooth="yes"/>
      <point x="462" y="140"/>
      <point x="557" y="249"/>
      <point x="557" y="384" type="curve" smooth="yes"/>
      <point x="557" y="516"/>
      <point x="466" y="631"/>
      <point x="302" y="631" type="curve" smooth="yes"/>
      <point x="183" y="631"/>
      <point x="97" y="571"/>
      <point x="59" y="486" type="curve"/>
      <point x="83" y="477" type="line"/>
      <point x="116" y="555"/>
      <point x="193" y="608"/>
      <point x="302" y="608" type="curve" smooth="yes"/>
      <point x="451" y="608"/>
      <point x="531" y="505"/>
      <point x="531" y="384" type="curve" smooth="yes"/>
      <point x="531" y="247"/>
      <point x="433" y="163"/>
      <point x="302" y="163" type="curve" smooth="yes"/>
      <point x="193" y="163"/>
      <point x="111" y="217"/>
      <point x="79" y="302" type="curve"/>
      <point x="55" y="292" type="line"/>
      <point x="91" y="200"/>
      <point x="181" y="140"/>
    </contour>
    <contour>
      <point x="806" y="142" type="curve" smooth="yes"/>
      <point x="967" y="142"/>
      <point x="1058" y="253"/>
      <point x="1058" y="398" type="curve" smooth="yes"/>
      <point x="1058" y="543"/>
      <point x="956" y="631"/>
      <point x="806" y="631" type="curve" smooth="yes"/>
      <point x="749" y="631"/>
      <point x="707" y="627"/>
      <point x="666" y="613" type="curve"/>
      <point x="680" y="593" type="line"/>
      <point x="714" y="604"/>
      <point x="763" y="608"/>
      <point x="806" y="608" type="curve" smooth="yes"/>
      <point x="941" y="608"/>
      <point x="1032" y="532"/>
      <point x="1032" y="398" type="curve" smooth="yes"/>
      <point x="1032" y="268"/>
      <point x="957" y="165"/>
      <point x="806" y="165" type="curve" smooth="yes"/>
      <point x="700" y="165"/>
      <point x="622" y="200"/>
      <point x="539" y="314" type="curve"/>
      <point x="527" y="288" type="line"/>
      <point x="592" y="195"/>
      <point x="684" y="142"/>
    </contour>
    <contour>
      <point x="1310" y="142" type="curve" smooth="yes"/>
      <point x="1471" y="142"/>
      <point x="1562" y="253"/>
      <point x="1562" y="398" type="curve" smooth="yes"/>
      <point x="1562" y="543"/>
      <point x="1460" y="631"/>
      <point x="1310" y="631" type="curve" smooth="yes"/>
      <point x="1253" y="631"/>
      <point x="1211" y="627"/>
      <point x="1170" y="613" type="curve"/>
      <point x="1184" y="593" type="line"/>
      <point x="1218" y="604"/>
      <point x="1267" y="608"/>
      <point x="1310" y="608" type="curve" smooth="yes"/>
      <point x="1445" y="608"/>
      <point x="1536" y="532"/>
      <point x="1536" y="398" type="curve" smooth="yes"/>
      <point x="1536" y="268"/>
      <point x="1461" y="165"/>
      <point x="1310" y="165" type="curve" smooth="yes"/>
      <point x="1204" y="165"/>
      <point x="1126" y="200"/>
      <point x="1040" y="316" type="curve"/>
      <point x="1028" y="290" type="line"/>
      <point x="1096" y="195"/>
      <point x="1188" y="142"/>
    </contour>
  </outline>
</glyph>
<glyph name="zero_m" format="2">
  <advance width="638"/>
  <unicode hex="1040"/>
  <note>
zero_m
</note>
  <outline>
    <contour>
      <point x="315" y="140" type="curve" smooth="yes"/>
      <point x="470" y="140"/>
      <point x="572" y="242"/>
      <point x="572" y="384" type="curve" smooth="yes"/>
      <point x="572" y="521"/>
      <point x="475" y="631"/>
      <point x="315" y="631" type="curve" smooth="yes"/>
      <point x="156" y="631"/>
      <point x="65" y="516"/>
      <point x="65" y="384" type="curve" smooth="yes"/>
      <point x="65" y="249"/>
      <point x="160" y="140"/>
    </contour>
    <contour>
      <point x="315" y="163" type="curve" smooth="yes"/>
      <point x="189" y="163"/>
      <point x="91" y="247"/>
      <point x="91" y="384" type="curve" smooth="yes"/>
      <point x="91" y="505"/>
      <point x="171" y="608"/>
      <point x="315" y="608" type="curve" smooth="yes"/>
      <point x="461" y="608"/>
      <point x="546" y="510"/>
      <point x="546" y="384" type="curve" smooth="yes"/>
      <point x="546" y="252"/>
      <point x="454" y="163"/>
    </contour>
  </outline>
</glyph>
<glyph name="one_m" format="2">
  <advance width="601"/>
  <unicode hex="1041"/>
  <note>
one_m
</note>
  <outline>
    <contour>
      <point x="310" y="140" type="curve" smooth="yes"/>
      <point x="474" y="140"/>
      <point x="571" y="249"/>
      <point x="571" y="384" type="curve" smooth="yes"/>
      <point x="571" y="516"/>
      <point x="478" y="631"/>
      <point x="310" y="631" type="curve" smooth="yes"/>
      <point x="194" y="631"/>
      <point x="110" y="571"/>
      <point x="73" y="486" type="curve"/>
      <point x="97" y="477" type="line"/>
      <point x="129" y="555"/>
      <point x="204" y="608"/>
      <point x="310" y="608" type="curve" smooth="yes"/>
      <point x="463" y="608"/>
      <point x="545" y="505"/>
      <point x="545" y="384" type="curve" smooth="yes"/>
      <point x="545" y="247"/>
      <point x="445" y="163"/>
      <point x="310" y="163" type="curve" smooth="yes"/>
      <point x="204" y="163"/>
      <point x="124" y="217"/>
      <point x="93" y="302" type="curve"/>
      <point x="69" y="292" type="line"/>
      <point x="104" y="200"/>
      <point x="192" y="140"/>
    </contour>
  </outline>
</glyph>
<glyph name="two_m" format="2">
  <advance width="619"/>
  <unicode hex="1042"/>
  <note>
two_m
</note>
  <outline>
    <contour>
      <point x="280" y="-263" type="curve" smooth="yes"/>
      <point x="433" y="-263"/>
      <point x="518" y="-171"/>
      <point x="518" y="9" type="curve" smooth="yes"/>
      <point x="518" y="622" type="line"/>
      <point x="492" y="622" type="line"/>
      <point x="492" y="9" type="line" smooth="yes"/>
      <point x="492" y="-156"/>
      <point x="420" y="-240"/>
      <point x="280" y="-240" type="curve" smooth="yes"/>
      <point x="147" y="-240"/>
      <point x="67" y="-152"/>
      <point x="67" y="-47" type="curve" smooth="yes"/>
      <point x="67" y="-27" type="line"/>
      <point x="41" y="-27" type="line"/>
      <point x="41" y="-47" type="line" smooth="yes"/>
      <point x="41" y="-162"/>
      <point x="133" y="-263"/>
    </contour>
  </outline>
</glyph>
<glyph name="three_m" format="2">
  <advance width="626"/>
  <unicode hex="1043"/>
  <note>
three_m
</note>
  <outline>
    <contour>
      <point x="423" y="-272" type="line"/>
      <point x="452" y="-272" type="line"/>
      <point x="283" y="6" type="line" smooth="yes"/>
      <point x="246" y="66"/>
      <point x="195" y="154"/>
      <point x="169" y="189" type="curve"/>
      <point x="164" y="189" type="line"/>
      <point x="208" y="157"/>
      <point x="262" y="140"/>
      <point x="321" y="140" type="curve" smooth="yes"/>
      <point x="480" y="140"/>
      <point x="571" y="249"/>
      <point x="571" y="384" type="curve" smooth="yes"/>
      <point x="571" y="516"/>
      <point x="484" y="631"/>
      <point x="321" y="631" type="curve" smooth="yes"/>
      <point x="207" y="631"/>
      <point x="121" y="571"/>
      <point x="83" y="486" type="curve"/>
      <point x="107" y="477" type="line"/>
      <point x="140" y="555"/>
      <point x="217" y="608"/>
      <point x="321" y="608" type="curve" smooth="yes"/>
      <point x="468" y="608"/>
      <point x="545" y="505"/>
      <point x="545" y="384" type="curve" smooth="yes"/>
      <point x="545" y="247"/>
      <point x="451" y="163"/>
      <point x="321" y="163" type="curve" smooth="yes"/>
      <point x="222" y="163"/>
      <point x="153" y="211"/>
      <point x="103" y="302" type="curve"/>
      <point x="79" y="292" type="line"/>
    </contour>
  </outline>
</glyph>
<glyph name="four_m" format="2">
  <advance width="636"/>
  <unicode hex="1044"/>
  <note>
four_m
</note>
  <outline>
    <contour>
      <point x="184" y="-272" type="line"/>
      <point x="213" y="-272" type="line"/>
      <point x="557" y="292" type="line"/>
      <point x="533" y="302" type="line"/>
      <point x="483" y="211"/>
      <point x="414" y="163"/>
      <point x="315" y="163" type="curve" smooth="yes"/>
      <point x="179" y="163"/>
      <point x="81" y="247"/>
      <point x="81" y="384" type="curve" smooth="yes"/>
      <point x="81" y="505"/>
      <point x="161" y="608"/>
      <point x="315" y="608" type="curve" smooth="yes"/>
      <point x="419" y="608"/>
      <point x="496" y="555"/>
      <point x="529" y="477" type="curve"/>
      <point x="553" y="486" type="line"/>
      <point x="515" y="571"/>
      <point x="429" y="631"/>
      <point x="315" y="631" type="curve" smooth="yes"/>
      <point x="145" y="631"/>
      <point x="55" y="516"/>
      <point x="55" y="384" type="curve" smooth="yes"/>
      <point x="55" y="249"/>
      <point x="150" y="140"/>
      <point x="315" y="140" type="curve" smooth="yes"/>
      <point x="373" y="140"/>
      <point x="428" y="158"/>
      <point x="472" y="190" type="curve"/>
      <point x="470" y="193" type="line"/>
      <point x="444" y="157"/>
      <point x="391" y="68"/>
      <point x="353" y="6" type="curve" smooth="yes"/>
    </contour>
  </outline>
</glyph>
<glyph name="five_m" format="2">
  <advance width="625"/>
  <unicode hex="1045"/>
  <note>
five_m
</note>
  <outline>
    <contour>
      <point x="282" y="-263" type="curve" smooth="yes"/>
      <point x="435" y="-263"/>
      <point x="520" y="-171"/>
      <point x="520" y="9" type="curve" smooth="yes"/>
      <point x="520" y="400" type="line" smooth="yes"/>
      <point x="520" y="539"/>
      <point x="449" y="630"/>
      <point x="303" y="630" type="curve" smooth="yes"/>
      <point x="173" y="630"/>
      <point x="83" y="525"/>
      <point x="83" y="421" type="curve" smooth="yes"/>
      <point x="83" y="312"/>
      <point x="146" y="271"/>
      <point x="215" y="271" type="curve" smooth="yes"/>
      <point x="286" y="271"/>
      <point x="344" y="321"/>
      <point x="344" y="385" type="curve" smooth="yes"/>
      <point x="344" y="445"/>
      <point x="290" y="499"/>
      <point x="215" y="499" type="curve" smooth="yes"/>
      <point x="166" y="499"/>
      <point x="128" y="478"/>
      <point x="112" y="452" type="curve"/>
      <point x="127" y="526"/>
      <point x="190" y="606"/>
      <point x="303" y="606" type="curve" smooth="yes"/>
      <point x="436" y="606"/>
      <point x="494" y="524"/>
      <point x="494" y="400" type="curve" smooth="yes"/>
      <point x="494" y="9" type="line" smooth="yes"/>
      <point x="494" y="-156"/>
      <point x="422" y="-240"/>
      <point x="282" y="-240" type="curve" smooth="yes"/>
      <point x="149" y="-240"/>
      <point x="69" y="-152"/>
      <point x="69" y="-47" type="curve" smooth="yes"/>
      <point x="69" y="-27" type="line"/>
      <point x="43" y="-27" type="line"/>
      <point x="43" y="-47" type="line" smooth="yes"/>
      <point x="43" y="-162"/>
      <point x="135" y="-263"/>
    </contour>
    <contour>
      <point x="215" y="294" type="curve" smooth="yes"/>
      <point x="153" y="294"/>
      <point x="114" y="336"/>
      <point x="114" y="385" type="curve" smooth="yes"/>
      <point x="114" y="435"/>
      <point x="151" y="476"/>
      <point x="215" y="476" type="curve" smooth="yes"/>
      <point x="278" y="476"/>
      <point x="318" y="432"/>
      <point x="318" y="385" type="curve" smooth="yes"/>
      <point x="318" y="332"/>
      <point x="273" y="294"/>
    </contour>
  </outline>
</glyph>
<glyph name="six_m" format="2">
  <advance width="635"/>
  <unicode hex="1046"/>
  <note>
six_m
</note>
  <outline>
    <contour>
      <point x="349" y="140" type="curve" smooth="yes"/>
      <point x="513" y="140"/>
      <point x="611" y="243"/>
      <point x="611" y="380" type="curve" smooth="yes"/>
      <point x="611" y="430"/>
      <point x="582" y="460"/>
      <point x="527" y="460" type="curve" smooth="yes"/>
      <point x="456" y="460"/>
      <point x="423" y="406"/>
      <point x="354" y="406" type="curve" smooth="yes"/>
      <point x="285" y="406"/>
      <point x="247" y="451"/>
      <point x="247" y="514" type="curve" smooth="yes"/>
      <point x="247" y="558"/>
      <point x="281" y="609"/>
      <point x="358" y="609" type="curve" smooth="yes"/>
      <point x="388" y="609"/>
      <point x="414" y="602"/>
      <point x="426" y="582" type="curve"/>
      <point x="450" y="594" type="line"/>
      <point x="428" y="622"/>
      <point x="395" y="632"/>
      <point x="358" y="632" type="curve" smooth="yes"/>
      <point x="265" y="632"/>
      <point x="221" y="568"/>
      <point x="221" y="514" type="curve" smooth="yes"/>
      <point x="221" y="440"/>
      <point x="269" y="383"/>
      <point x="354" y="383" type="curve" smooth="yes"/>
      <point x="427" y="383"/>
      <point x="464" y="437"/>
      <point x="527" y="437" type="curve" smooth="yes"/>
      <point x="577" y="437"/>
      <point x="585" y="412"/>
      <point x="585" y="380" type="curve" smooth="yes"/>
      <point x="585" y="253"/>
      <point x="496" y="163"/>
      <point x="349" y="163" type="curve" smooth="yes"/>
      <point x="180" y="163"/>
      <point x="91" y="250"/>
      <point x="91" y="397" type="curve" smooth="yes"/>
      <point x="91" y="757" type="line" smooth="yes"/>
      <point x="91" y="937"/>
      <point x="183" y="1009"/>
      <point x="344" y="1009" type="curve" smooth="yes"/>
      <point x="497" y="1009"/>
      <point x="585" y="915"/>
      <point x="585" y="824" type="curve" smooth="yes"/>
      <point x="585" y="817" type="line"/>
      <point x="611" y="817" type="line"/>
      <point x="611" y="824" type="line" smooth="yes"/>
      <point x="611" y="930"/>
      <point x="507" y="1033"/>
      <point x="344" y="1033" type="curve" smooth="yes"/>
      <point x="169" y="1033"/>
      <point x="65" y="949"/>
      <point x="65" y="757" type="curve" smooth="yes"/>
      <point x="65" y="397" type="line" smooth="yes"/>
      <point x="65" y="241"/>
      <point x="162" y="140"/>
    </contour>
  </outline>
</glyph>
<glyph name="seven_m" format="2">
  <advance width="643"/>
  <unicode hex="1047"/>
  <note>
seven_m
</note>
  <outline>
    <contour>
      <point x="344" y="-263" type="curve" smooth="yes"/>
      <point x="402" y="-263"/>
      <point x="440" y="-243"/>
      <point x="470" y="-196" type="curve"/>
      <point x="450" y="-181" type="line"/>
      <point x="423" y="-222"/>
      <point x="396" y="-240"/>
      <point x="344" y="-240" type="curve" smooth="yes"/>
      <point x="275" y="-240"/>
      <point x="238" y="-206"/>
      <point x="238" y="-147" type="curve" smooth="yes"/>
      <point x="238" y="-74"/>
      <point x="311" y="27"/>
      <point x="419" y="142" type="curve" smooth="yes"/>
      <point x="522" y="251"/>
      <point x="582" y="318"/>
      <point x="582" y="424" type="curve" smooth="yes"/>
      <point x="582" y="548"/>
      <point x="462" y="631"/>
      <point x="322" y="631" type="curve" smooth="yes"/>
      <point x="152" y="631"/>
      <point x="55" y="537"/>
      <point x="55" y="393" type="curve" smooth="yes"/>
      <point x="55" y="285"/>
      <point x="116" y="221"/>
      <point x="173" y="194" type="curve"/>
      <point x="188" y="209" type="line"/>
      <point x="141" y="235"/>
      <point x="81" y="289"/>
      <point x="81" y="393" type="curve" smooth="yes"/>
      <point x="81" y="523"/>
      <point x="163" y="608"/>
      <point x="322" y="608" type="curve" smooth="yes"/>
      <point x="461" y="608"/>
      <point x="556" y="528"/>
      <point x="556" y="424" type="curve" smooth="yes"/>
      <point x="556" y="312"/>
      <point x="480" y="244"/>
      <point x="393" y="151" type="curve" smooth="yes"/>
      <point x="265" y="13"/>
      <point x="212" y="-72"/>
      <point x="212" y="-147" type="curve" smooth="yes"/>
      <point x="212" y="-214"/>
      <point x="258" y="-263"/>
    </contour>
  </outline>
</glyph>
<glyph name="eight_m" format="2">
  <advance width="624"/>
  <unicode hex="1048"/>
  <note>
eight_m
</note>
  <outline>
    <contour>
      <point x="163" y="138" type="curve"/>
      <point x="231" y="197"/>
      <point x="277" y="278"/>
      <point x="277" y="361" type="curve" smooth="yes"/>
      <point x="277" y="473"/>
      <point x="215" y="538"/>
      <point x="157" y="573" type="curve"/>
      <point x="142" y="556" type="line"/>
      <point x="194" y="519"/>
      <point x="251" y="468"/>
      <point x="251" y="361" type="curve" smooth="yes"/>
      <point x="251" y="290"/>
      <point x="211" y="215"/>
      <point x="162" y="172" type="curve"/>
      <point x="116" y="213"/>
      <point x="81" y="283"/>
      <point x="81" y="372" type="curve" smooth="yes"/>
      <point x="81" y="511"/>
      <point x="173" y="608"/>
      <point x="312" y="608" type="curve" smooth="yes"/>
      <point x="439" y="608"/>
      <point x="543" y="525"/>
      <point x="543" y="375" type="curve" smooth="yes"/>
      <point x="543" y="299"/>
      <point x="499" y="196"/>
      <point x="439" y="158" type="curve"/>
      <point x="457" y="140" type="line"/>
      <point x="519" y="183"/>
      <point x="569" y="285"/>
      <point x="569" y="375" type="curve" smooth="yes"/>
      <point x="569" y="529"/>
      <point x="460" y="631"/>
      <point x="312" y="631" type="curve" smooth="yes"/>
      <point x="161" y="631"/>
      <point x="55" y="527"/>
      <point x="55" y="372" type="curve" smooth="yes"/>
      <point x="55" y="267"/>
      <point x="101" y="186"/>
    </contour>
  </outline>
</glyph>
<glyph name="nine_m" format="2">
  <advance width="635"/>
  <unicode hex="1049"/>
  <note>
nine_m
</note>
  <outline>
    <contour>
      <point x="344" y="-263" type="curve" smooth="yes"/>
      <point x="507" y="-263"/>
      <point x="611" y="-161"/>
      <point x="611" y="-54" type="curve" smooth="yes"/>
      <point x="611" y="-47" type="line"/>
      <point x="585" y="-47" type="line"/>
      <point x="585" y="-54" type="line" smooth="yes"/>
      <point x="585" y="-145"/>
      <point x="497" y="-240"/>
      <point x="344" y="-240" type="curve" smooth="yes"/>
      <point x="183" y="-240"/>
      <point x="91" y="-168"/>
      <point x="91" y="12" type="curve" smooth="yes"/>
      <point x="91" y="372" type="line" smooth="yes"/>
      <point x="91" y="520"/>
      <point x="180" y="606"/>
      <point x="349" y="606" type="curve" smooth="yes"/>
      <point x="496" y="606"/>
      <point x="585" y="517"/>
      <point x="585" y="389" type="curve" smooth="yes"/>
      <point x="585" y="358"/>
      <point x="577" y="333"/>
      <point x="527" y="333" type="curve" smooth="yes"/>
      <point x="464" y="333"/>
      <point x="427" y="387"/>
      <point x="354" y="387" type="curve" smooth="yes"/>
      <point x="269" y="387"/>
      <point x="221" y="330"/>
      <point x="221" y="256" type="curve" smooth="yes"/>
      <point x="221" y="202"/>
      <point x="265" y="137"/>
      <point x="358" y="137" type="curve" smooth="yes"/>
      <point x="395" y="137"/>
      <point x="428" y="148"/>
      <point x="450" y="176" type="curve"/>
      <point x="426" y="188" type="line"/>
      <point x="414" y="168"/>
      <point x="388" y="161"/>
      <point x="358" y="161" type="curve" smooth="yes"/>
      <point x="281" y="161"/>
      <point x="247" y="212"/>
      <point x="247" y="256" type="curve" smooth="yes"/>
      <point x="247" y="319"/>
      <point x="285" y="363"/>
      <point x="354" y="363" type="curve" smooth="yes"/>
      <point x="423" y="363"/>
      <point x="456" y="309"/>
      <point x="527" y="309" type="curve" smooth="yes"/>
      <point x="582" y="309"/>
      <point x="611" y="340"/>
      <point x="611" y="389" type="curve" smooth="yes"/>
      <point x="611" y="527"/>
      <point x="513" y="630"/>
      <point x="349" y="630" type="curve" smooth="yes"/>
      <point x="162" y="630"/>
      <point x="65" y="529"/>
      <point x="65" y="372" type="curve" smooth="yes"/>
      <point x="65" y="12" type="line" smooth="yes"/>
      <point x="65" y="-180"/>
      <point x="169" y="-263"/>
    </contour>
  </outline>
</glyph>
<glyph name="little_section" format="2">
  <advance width="233"/>
  <unicode hex="104A"/>
  <note>
little_section
</note>
  <outline>
    <contour>
      <point x="104" y="149" type="line"/>
      <point x="130" y="149" type="line"/>
      <point x="130" y="622" type="line"/>
      <point x="104" y="622" type="line"/>
    </contour>
  </outline>
</glyph>
<glyph name="locative" format="2">
  <advance width="622"/>
  <unicode hex="104C"/>
  <note>
locative
</note>
  <outline>
    <contour>
      <point x="241" y="-271" type="curve" smooth="yes"/>
      <point x="351" y="-271" type="line" smooth="yes"/>
      <point x="475" y="-271"/>
      <point x="541" y="-216"/>
      <point x="541" y="-95" type="curve" smooth="yes"/>
      <point x="541" y="90" type="line"/>
      <point x="468" y="50"/>
      <point x="388" y="34"/>
      <point x="319" y="34" type="curve" smooth="yes"/>
      <point x="235" y="34"/>
      <point x="162" y="66"/>
      <point x="113" y="99" type="curve"/>
      <point x="113" y="261" type="line"/>
      <point x="87" y="295" type="line"/>
      <point x="87" y="90" type="line"/>
      <point x="147" y="43"/>
      <point x="226" y="10"/>
      <point x="319" y="10" type="curve" smooth="yes"/>
      <point x="388" y="10"/>
      <point x="451" y="25"/>
      <point x="515" y="53" type="curve"/>
      <point x="515" y="-95" type="line" smooth="yes"/>
      <point x="515" y="-197"/>
      <point x="459" y="-248"/>
      <point x="351" y="-248" type="curve" smooth="yes"/>
      <point x="241" y="-248" type="line" smooth="yes"/>
      <point x="154" y="-248"/>
      <point x="109" y="-225"/>
      <point x="109" y="-170" type="curve" smooth="yes"/>
      <point x="109" y="-126"/>
      <point x="138" y="-95"/>
      <point x="190" y="-95" type="curve" smooth="yes"/>
      <point x="236" y="-95"/>
      <point x="264" y="-113"/>
      <point x="292" y="-139" type="curve"/>
      <point x="311" y="-122" type="line"/>
      <point x="272" y="-90"/>
      <point x="243" y="-72"/>
      <point x="190" y="-72" type="curve" smooth="yes"/>
      <point x="126" y="-72"/>
      <point x="83" y="-110"/>
      <point x="83" y="-170" type="curve" smooth="yes"/>
      <point x="83" y="-237"/>
      <point x="138" y="-271"/>
    </contour>
    <contour>
      <point x="326" y="143" type="curve" smooth="yes"/>
      <point x="481" y="143"/>
      <point x="574" y="252"/>
      <point x="574" y="387" type="curve" smooth="yes"/>
      <point x="574" y="519"/>
      <point x="485" y="634"/>
      <point x="326" y="634" type="curve" smooth="yes"/>
      <point x="211" y="634"/>
      <point x="128" y="574"/>
      <point x="91" y="488" type="curve"/>
      <point x="115" y="479" type="line"/>
      <point x="147" y="558"/>
      <point x="221" y="611"/>
      <point x="326" y="611" type="curve" smooth="yes"/>
      <point x="470" y="611"/>
      <point x="548" y="508"/>
      <point x="548" y="387" type="curve" smooth="yes"/>
      <point x="548" y="250"/>
      <point x="453" y="166"/>
      <point x="326" y="166" type="curve" smooth="yes"/>
      <point x="221" y="166"/>
      <point x="142" y="219"/>
      <point x="111" y="305" type="curve"/>
      <point x="87" y="295" type="line"/>
      <point x="122" y="203"/>
      <point x="209" y="143"/>
    </contour>
    <component base="asat" xOffset="696"/>
  </outline>
</glyph>
<glyph name="completed" format="2">
  <advance width="811"/>
  <unicode hex="104D"/>
  <note>
completed
</note>
  <outline>
    <contour>
      <point x="243" y="-271" type="curve" smooth="yes"/>
      <point x="540" y="-271" type="line" smooth="yes"/>
      <point x="664" y="-271"/>
      <point x="730" y="-216"/>
      <point x="730" y="-95" type="curve" smooth="yes"/>
      <point x="730" y="317" type="line" smooth="yes"/>
      <point x="730" y="530"/>
      <point x="682" y="631"/>
      <point x="560" y="717" type="curve" smooth="yes"/>
      <point x="454" y="792"/>
      <point x="427" y="840"/>
      <point x="427" y="901" type="curve" smooth="yes"/>
      <point x="427" y="971"/>
      <point x="480" y="1029"/>
      <point x="587" y="1029" type="curve" smooth="yes"/>
      <point x="653" y="1029"/>
      <point x="707" y="1010"/>
      <point x="734" y="962" type="curve"/>
      <point x="756" y="973" type="line"/>
      <point x="729" y="1022"/>
      <point x="670" y="1053"/>
      <point x="587" y="1053" type="curve" smooth="yes"/>
      <point x="472" y="1053"/>
      <point x="401" y="985"/>
      <point x="401" y="901" type="curve" smooth="yes"/>
      <point x="401" y="825"/>
      <point x="447" y="767"/>
      <point x="543" y="699" type="curve" smooth="yes"/>
      <point x="664" y="613"/>
      <point x="704" y="523"/>
      <point x="704" y="324" type="curve" smooth="yes"/>
      <point x="704" y="-95" type="line" smooth="yes"/>
      <point x="704" y="-197"/>
      <point x="648" y="-248"/>
      <point x="540" y="-248" type="curve" smooth="yes"/>
      <point x="243" y="-248" type="line" smooth="yes"/>
      <point x="136" y="-248"/>
      <point x="82" y="-216"/>
      <point x="82" y="-144" type="curve" smooth="yes"/>
      <point x="82" y="-87"/>
      <point x="121" y="-47"/>
      <point x="181" y="-47" type="curve" smooth="yes"/>
      <point x="234" y="-47"/>
      <point x="262" y="-65"/>
      <point x="290" y="-91" type="curve"/>
      <point x="309" y="-74" type="line"/>
      <point x="270" y="-43"/>
      <point x="241" y="-24"/>
      <point x="181" y="-24" type="curve" smooth="yes"/>
      <point x="110" y="-24"/>
      <point x="56" y="-72"/>
      <point x="56" y="-144" type="curve" smooth="yes"/>
      <point x="56" y="-229"/>
      <point x="121" y="-271"/>
    </contour>
    <contour>
      <point x="538" y="-91" type="line"/>
      <point x="564" y="-91" type="line"/>
      <point x="564" y="384" type="line" smooth="yes"/>
      <point x="564" y="525"/>
      <point x="470" y="631"/>
      <point x="317" y="631" type="curve" smooth="yes"/>
      <point x="153" y="631"/>
      <point x="55" y="523"/>
      <point x="55" y="386" type="curve" smooth="yes"/>
      <point x="55" y="250"/>
      <point x="147" y="140"/>
      <point x="305" y="140" type="curve" smooth="yes"/>
      <point x="350" y="140"/>
      <point x="391" y="153"/>
      <point x="414" y="160" type="curve"/>
      <point x="414" y="318"/>
      <point x="301" y="419"/>
      <point x="75" y="420" type="curve"/>
      <point x="72" y="397" type="line"/>
      <point x="274" y="397"/>
      <point x="385" y="312"/>
      <point x="388" y="172" type="curve"/>
      <point x="396" y="178" type="line"/>
      <point x="365" y="170"/>
      <point x="340" y="163"/>
      <point x="305" y="163" type="curve" smooth="yes"/>
      <point x="159" y="163"/>
      <point x="81" y="259"/>
      <point x="81" y="386" type="curve" smooth="yes"/>
      <point x="81" y="511"/>
      <point x="164" y="608"/>
      <point x="317" y="608" type="curve" smooth="yes"/>
      <point x="454" y="608"/>
      <point x="538" y="514"/>
      <point x="538" y="384" type="curve" smooth="yes"/>
    </contour>
  </outline>
</glyph>
<glyph name="aforementioned" format="2">
  <advance width="638"/>
  <unicode hex="104E"/>
  <note>
aforementioned
</note>
  <outline>
    <contour>
      <point x="304" y="140" type="curve" smooth="yes"/>
      <point x="425" y="140"/>
      <point x="510" y="200"/>
      <point x="543" y="292" type="curve"/>
      <point x="519" y="302" type="line"/>
      <point x="490" y="217"/>
      <point x="413" y="163"/>
      <point x="304" y="163" type="curve" smooth="yes"/>
      <point x="179" y="163"/>
      <point x="81" y="247"/>
      <point x="81" y="384" type="curve" smooth="yes"/>
      <point x="81" y="505"/>
      <point x="161" y="608"/>
      <point x="304" y="608" type="curve" smooth="yes"/>
      <point x="413" y="608"/>
      <point x="485" y="555"/>
      <point x="516" y="477" type="curve"/>
      <point x="540" y="486" type="line"/>
      <point x="504" y="571"/>
      <point x="423" y="631"/>
      <point x="304" y="631" type="curve" smooth="yes"/>
      <point x="146" y="631"/>
      <point x="55" y="516"/>
      <point x="55" y="384" type="curve" smooth="yes"/>
      <point x="55" y="249"/>
      <point x="150" y="140"/>
    </contour>
    <contour>
      <point x="519" y="-263" type="line"/>
      <point x="543" y="-263" type="line"/>
      <point x="543" y="292" type="line"/>
      <point x="519" y="259" type="line"/>
    </contour>
  </outline>
</glyph>
<glyph name="genitive" format="2">
  <advance width="977"/>
  <unicode hex="104F"/>
  <note>
genitive
</note>
  <outline>
    <contour>
      <point x="896" y="149" type="line"/>
      <point x="922" y="149" type="line"/>
      <point x="922" y="490" type="line" smooth="yes"/>
      <point x="922" y="644"/>
      <point x="878" y="717"/>
      <point x="739" y="762" type="curve" smooth="yes"/>
      <point x="617" y="801"/>
      <point x="581" y="838"/>
      <point x="581" y="910" type="curve" smooth="yes"/>
      <point x="581" y="976"/>
      <point x="645" y="1029"/>
      <point x="745" y="1029" type="curve" smooth="yes"/>
      <point x="807" y="1029"/>
      <point x="856" y="1008"/>
      <point x="880" y="959" type="curve"/>
      <point x="904" y="969" type="line"/>
      <point x="873" y="1027"/>
      <point x="818" y="1053"/>
      <point x="745" y="1053" type="curve" smooth="yes"/>
      <point x="638" y="1053"/>
      <point x="555" y="991"/>
      <point x="555" y="910" type="curve" smooth="yes"/>
      <point x="555" y="829"/>
      <point x="603" y="782"/>
      <point x="729" y="742" type="curve" smooth="yes"/>
      <point x="861" y="700"/>
      <point x="896" y="633"/>
      <point x="896" y="490" type="curve" smooth="yes"/>
    </contour>
    <contour>
      <point x="759" y="149" type="line"/>
      <point x="783" y="149" type="line"/>
      <point x="783" y="513" type="line" smooth="yes"/>
      <point x="783" y="593"/>
      <point x="737" y="631"/>
      <point x="666" y="631" type="curve" smooth="yes"/>
      <point x="570" y="631"/>
      <point x="539" y="570"/>
      <point x="531" y="531" type="curve"/>
      <point x="554" y="517" type="line"/>
      <point x="561" y="559"/>
      <point x="585" y="608"/>
      <point x="666" y="608" type="curve" smooth="yes"/>
      <point x="721" y="608"/>
      <point x="759" y="580"/>
      <point x="759" y="513" type="curve" smooth="yes"/>
    </contour>
    <component base="e_m"/>
  </outline>
</glyph>
<glyph name="sha_skt" format="2">
  <advance width="628"/>
  <unicode hex="1050"/>
  <note>
sha_skt
</note>
  <outline>
    <contour>
      <point x="324" y="352" type="curve" smooth="yes"/>
      <point x="348" y="352"/>
      <point x="351" y="364"/>
      <point x="351" y="379" type="curve" smooth="yes"/>
      <point x="351" y="394"/>
      <point x="348" y="407"/>
      <point x="324" y="407" type="curve" smooth="yes"/>
      <point x="304" y="407"/>
      <point x="299" y="394"/>
      <point x="299" y="379" type="curve" smooth="yes"/>
      <point x="299" y="364"/>
      <point x="304" y="352"/>
    </contour>
    <component base="ga"/>
  </outline>
</glyph>
<glyph name="ssa_skt" format="2">
  <advance width="629"/>
  <unicode hex="1051"/>
  <note>
ssa_skt
</note>
  <outline>
    <contour>
      <point x="318" y="140" type="curve" smooth="yes"/>
      <point x="465" y="140"/>
      <point x="574" y="243"/>
      <point x="574" y="397" type="curve" smooth="yes"/>
      <point x="574" y="487"/>
      <point x="524" y="588"/>
      <point x="462" y="631" type="curve"/>
      <point x="444" y="613" type="line"/>
      <point x="504" y="576"/>
      <point x="548" y="472"/>
      <point x="548" y="397" type="curve" smooth="yes"/>
      <point x="548" y="246"/>
      <point x="444" y="163"/>
      <point x="318" y="163" type="curve" smooth="yes"/>
      <point x="188" y="163"/>
      <point x="81" y="246"/>
      <point x="81" y="397" type="curve" smooth="yes"/>
      <point x="81" y="472"/>
      <point x="125" y="576"/>
      <point x="185" y="613" type="curve"/>
      <point x="167" y="631" type="line"/>
      <point x="105" y="588"/>
      <point x="55" y="487"/>
      <point x="55" y="397" type="curve" smooth="yes"/>
      <point x="55" y="243"/>
      <point x="167" y="140"/>
    </contour>
    <contour>
      <point x="319" y="364" type="curve" smooth="yes"/>
      <point x="343" y="364"/>
      <point x="346" y="378"/>
      <point x="346" y="392" type="curve" smooth="yes"/>
      <point x="346" y="407"/>
      <point x="343" y="420"/>
      <point x="319" y="420" type="curve" smooth="yes"/>
      <point x="299" y="420"/>
      <point x="294" y="407"/>
      <point x="294" y="392" type="curve" smooth="yes"/>
      <point x="294" y="378"/>
      <point x="299" y="364"/>
    </contour>
  </outline>
</glyph>
<glyph name="vocR_skt" format="2">
  <advance width="614"/>
  <unicode hex="1052"/>
  <note>
vocR_skt
</note>
  <outline>
    <contour>
      <point x="315" y="140" type="curve" smooth="yes"/>
      <point x="467" y="140"/>
      <point x="562" y="222"/>
      <point x="562" y="333" type="curve" smooth="yes"/>
      <point x="562" y="401"/>
      <point x="530" y="450"/>
      <point x="475" y="490" type="curve" smooth="yes"/>
      <point x="438" y="517"/>
      <point x="429" y="540"/>
      <point x="429" y="563" type="curve" smooth="yes"/>
      <point x="429" y="588"/>
      <point x="447" y="606"/>
      <point x="481" y="606" type="curve" smooth="yes"/>
      <point x="509" y="606"/>
      <point x="534" y="593"/>
      <point x="549" y="573" type="curve"/>
      <point x="568" y="589" type="line"/>
      <point x="549" y="611"/>
      <point x="522" y="630"/>
      <point x="481" y="630" type="curve" smooth="yes"/>
      <point x="434" y="630"/>
      <point x="403" y="600"/>
      <point x="403" y="563" type="curve" smooth="yes"/>
      <point x="403" y="532"/>
      <point x="414" y="510"/>
      <point x="459" y="473" type="curve" smooth="yes"/>
      <point x="509" y="432"/>
      <point x="536" y="397"/>
      <point x="536" y="333" type="curve" smooth="yes"/>
      <point x="536" y="233"/>
      <point x="453" y="163"/>
      <point x="315" y="163" type="curve" smooth="yes"/>
      <point x="184" y="163"/>
      <point x="81" y="248"/>
      <point x="81" y="397" type="curve" smooth="yes"/>
      <point x="81" y="483"/>
      <point x="125" y="568"/>
      <point x="185" y="613" type="curve"/>
      <point x="167" y="631" type="line"/>
      <point x="105" y="580"/>
      <point x="55" y="497"/>
      <point x="55" y="397" type="curve" smooth="yes"/>
      <point x="55" y="243"/>
      <point x="164" y="140"/>
    </contour>
  </outline>
</glyph>
<glyph name="vocRR_skt" format="2">
  <advance width="624"/>
  <unicode hex="1053"/>
  <note>
vocRR_skt
</note>
  <outline>
    <contour>
      <point x="310" y="140" type="curve" smooth="yes"/>
      <point x="462" y="140"/>
      <point x="562" y="217"/>
      <point x="562" y="333" type="curve" smooth="yes"/>
      <point x="562" y="401"/>
      <point x="523" y="452"/>
      <point x="463" y="492" type="curve" smooth="yes"/>
      <point x="413" y="525"/>
      <point x="399" y="540"/>
      <point x="399" y="563" type="curve" smooth="yes"/>
      <point x="399" y="593"/>
      <point x="423" y="606"/>
      <point x="455" y="606" type="curve" smooth="yes"/>
      <point x="490" y="606"/>
      <point x="519" y="593"/>
      <point x="539" y="573" type="curve"/>
      <point x="558" y="589" type="line"/>
      <point x="534" y="611"/>
      <point x="504" y="630"/>
      <point x="455" y="630" type="curve" smooth="yes"/>
      <point x="406" y="630"/>
      <point x="373" y="601"/>
      <point x="373" y="563" type="curve" smooth="yes"/>
      <point x="373" y="532"/>
      <point x="394" y="510"/>
      <point x="447" y="474" type="curve" smooth="yes"/>
      <point x="503" y="436"/>
      <point x="536" y="397"/>
      <point x="536" y="333" type="curve" smooth="yes"/>
      <point x="536" y="234"/>
      <point x="454" y="163"/>
      <point x="312" y="163" type="curve" smooth="yes"/>
      <point x="170" y="163"/>
      <point x="88" y="234"/>
      <point x="88" y="333" type="curve" smooth="yes"/>
      <point x="88" y="397"/>
      <point x="121" y="436"/>
      <point x="177" y="474" type="curve" smooth="yes"/>
      <point x="230" y="510"/>
      <point x="251" y="532"/>
      <point x="251" y="563" type="curve" smooth="yes"/>
      <point x="251" y="601"/>
      <point x="218" y="630"/>
      <point x="169" y="630" type="curve" smooth="yes"/>
      <point x="120" y="630"/>
      <point x="90" y="611"/>
      <point x="66" y="589" type="curve"/>
      <point x="85" y="573" type="line"/>
      <point x="105" y="593"/>
      <point x="134" y="606"/>
      <point x="169" y="606" type="curve" smooth="yes"/>
      <point x="201" y="606"/>
      <point x="225" y="593"/>
      <point x="225" y="563" type="curve" smooth="yes"/>
      <point x="225" y="540"/>
      <point x="211" y="525"/>
      <point x="161" y="492" type="curve" smooth="yes"/>
      <point x="101" y="452"/>
      <point x="62" y="401"/>
      <point x="62" y="333" type="curve" smooth="yes"/>
      <point x="62" y="223"/>
      <point x="155" y="140"/>
    </contour>
  </outline>
</glyph>
<glyph name="vocL_skt" format="2">
  <advance width="616"/>
  <unicode hex="1054"/>
  <note>
vocL_skt
</note>
  <outline>
    <contour>
      <point x="317" y="140" type="curve" smooth="yes"/>
      <point x="434" y="140"/>
      <point x="523" y="201"/>
      <point x="561" y="285" type="curve"/>
      <point x="538" y="296" type="line"/>
      <point x="504" y="218"/>
      <point x="424" y="163"/>
      <point x="317" y="163" type="curve" smooth="yes"/>
      <point x="162" y="163"/>
      <point x="81" y="262"/>
      <point x="81" y="388" type="curve" smooth="yes"/>
      <point x="81" y="520"/>
      <point x="173" y="608"/>
      <point x="313" y="608" type="curve" smooth="yes"/>
      <point x="401" y="608"/>
      <point x="476" y="568"/>
      <point x="518" y="496" type="curve"/>
      <point x="471" y="457"/>
      <point x="413" y="428"/>
      <point x="337" y="428" type="curve" smooth="yes"/>
      <point x="219" y="428"/>
      <point x="156" y="475"/>
      <point x="110" y="518" type="curve"/>
      <point x="91" y="505" type="line"/>
      <point x="134" y="456"/>
      <point x="214" y="405"/>
      <point x="337" y="405" type="curve" smooth="yes"/>
      <point x="426" y="405"/>
      <point x="494" y="440"/>
      <point x="551" y="492" type="curve"/>
      <point x="503" y="580"/>
      <point x="418" y="631"/>
      <point x="313" y="631" type="curve" smooth="yes"/>
      <point x="156" y="631"/>
      <point x="55" y="530"/>
      <point x="55" y="388" type="curve" smooth="yes"/>
      <point x="55" y="251"/>
      <point x="148" y="140"/>
    </contour>
  </outline>
</glyph>
<glyph name="vocLL_skt" format="2">
  <advance width="631"/>
  <unicode hex="1055"/>
  <note>
vocLL_skt
</note>
  <outline>
    <contour>
      <point x="224" y="139" type="curve" smooth="yes"/>
      <point x="277" y="139"/>
      <point x="310" y="160"/>
      <point x="331" y="202" type="curve"/>
      <point x="324" y="200" type="line"/>
      <point x="343" y="168"/>
      <point x="373" y="139"/>
      <point x="440" y="139" type="curve" smooth="yes"/>
      <point x="505" y="139"/>
      <point x="552" y="171"/>
      <point x="565" y="247" type="curve"/>
      <point x="539" y="252" type="line"/>
      <point x="529" y="179"/>
      <point x="488" y="163"/>
      <point x="440" y="163" type="curve" smooth="yes"/>
      <point x="385" y="163"/>
      <point x="340" y="194"/>
      <point x="340" y="246" type="curve" smooth="yes"/>
      <point x="340" y="259" type="line"/>
      <point x="314" y="259" type="line"/>
      <point x="314" y="246" type="line" smooth="yes"/>
      <point x="314" y="208"/>
      <point x="288" y="163"/>
      <point x="224" y="163" type="curve" smooth="yes"/>
      <point x="119" y="163"/>
      <point x="81" y="264"/>
      <point x="81" y="377" type="curve" smooth="yes"/>
      <point x="81" y="520"/>
      <point x="178" y="608"/>
      <point x="317" y="608" type="curve" smooth="yes"/>
      <point x="417" y="608"/>
      <point x="500" y="568"/>
      <point x="543" y="496" type="curve"/>
      <point x="494" y="457"/>
      <point x="422" y="428"/>
      <point x="350" y="428" type="curve" smooth="yes"/>
      <point x="218" y="428"/>
      <point x="155" y="475"/>
      <point x="109" y="518" type="curve"/>
      <point x="90" y="505" type="line"/>
      <point x="133" y="456"/>
      <point x="213" y="405"/>
      <point x="350" y="405" type="curve" smooth="yes"/>
      <point x="435" y="405"/>
      <point x="517" y="440"/>
      <point x="576" y="492" type="curve"/>
      <point x="527" y="580"/>
      <point x="434" y="631"/>
      <point x="317" y="631" type="curve" smooth="yes"/>
      <point x="161" y="631"/>
      <point x="55" y="530"/>
      <point x="55" y="377" type="curve" smooth="yes"/>
      <point x="55" y="241"/>
      <point x="108" y="139"/>
    </contour>
  </outline>
</glyph>
<glyph name="_vocR_skt" format="2">
  <advance width="356"/>
  <unicode hex="1056"/>
  <note>
_vocR_skt
</note>
  <outline>
    <contour>
      <point x="88" y="140" type="curve" smooth="yes"/>
      <point x="217" y="140"/>
      <point x="301" y="206"/>
      <point x="301" y="290" type="curve" smooth="yes"/>
      <point x="301" y="357"/>
      <point x="265" y="385"/>
      <point x="167" y="440" type="curve" smooth="yes"/>
      <point x="111" y="471"/>
      <point x="80" y="494"/>
      <point x="80" y="542" type="curve" smooth="yes"/>
      <point x="80" y="577"/>
      <point x="104" y="610"/>
      <point x="159" y="610" type="curve" smooth="yes"/>
      <point x="191" y="610"/>
      <point x="219" y="600"/>
      <point x="241" y="575" type="curve"/>
      <point x="262" y="588" type="line"/>
      <point x="235" y="618"/>
      <point x="203" y="633"/>
      <point x="159" y="633" type="curve" smooth="yes"/>
      <point x="92" y="633"/>
      <point x="54" y="591"/>
      <point x="54" y="542" type="curve" smooth="yes"/>
      <point x="54" y="484"/>
      <point x="90" y="454"/>
      <point x="157" y="419" type="curve" smooth="yes"/>
      <point x="254" y="369"/>
      <point x="275" y="338"/>
      <point x="275" y="290" type="curve" smooth="yes"/>
      <point x="275" y="218"/>
      <point x="201" y="163"/>
      <point x="88" y="163" type="curve" smooth="yes"/>
      <point x="-4" y="163"/>
      <point x="-67" y="193"/>
      <point x="-99" y="252" type="curve"/>
      <point x="-118" y="235" type="line"/>
      <point x="-91" y="184"/>
      <point x="-24" y="140"/>
    </contour>
  </outline>
</glyph>
<glyph name="_vocRR_skt" format="2">
  <advance width="371"/>
  <unicode hex="1057"/>
  <note>
_vocRR_skt
</note>
  <outline>
    <contour>
      <point x="-1" y="139" type="curve" smooth="yes"/>
      <point x="60" y="139"/>
      <point x="87" y="169"/>
      <point x="104" y="200" type="curve"/>
      <point x="97" y="202" type="line"/>
      <point x="119" y="160"/>
      <point x="154" y="140"/>
      <point x="209" y="140" type="curve" smooth="yes"/>
      <point x="285" y="140"/>
      <point x="320" y="196"/>
      <point x="320" y="271" type="curve" smooth="yes"/>
      <point x="320" y="346"/>
      <point x="286" y="382"/>
      <point x="176" y="446" type="curve" smooth="yes"/>
      <point x="128" y="474"/>
      <point x="99" y="494"/>
      <point x="99" y="542" type="curve" smooth="yes"/>
      <point x="99" y="577"/>
      <point x="123" y="610"/>
      <point x="178" y="610" type="curve" smooth="yes"/>
      <point x="210" y="610"/>
      <point x="238" y="600"/>
      <point x="260" y="575" type="curve"/>
      <point x="281" y="588" type="line"/>
      <point x="254" y="618"/>
      <point x="222" y="633"/>
      <point x="178" y="633" type="curve" smooth="yes"/>
      <point x="111" y="633"/>
      <point x="73" y="591"/>
      <point x="73" y="542" type="curve" smooth="yes"/>
      <point x="73" y="484"/>
      <point x="110" y="459"/>
      <point x="176" y="419" type="curve" smooth="yes"/>
      <point x="273" y="361"/>
      <point x="294" y="326"/>
      <point x="294" y="271" type="curve" smooth="yes"/>
      <point x="294" y="215"/>
      <point x="271" y="163"/>
      <point x="209" y="163" type="curve" smooth="yes"/>
      <point x="142" y="163"/>
      <point x="114" y="208"/>
      <point x="114" y="246" type="curve" smooth="yes"/>
      <point x="114" y="259" type="line"/>
      <point x="88" y="259" type="line"/>
      <point x="88" y="246" type="line" smooth="yes"/>
      <point x="88" y="194"/>
      <point x="48" y="163"/>
      <point x="-1" y="163" type="curve" smooth="yes"/>
      <point x="-48" y="163"/>
      <point x="-87" y="179"/>
      <point x="-97" y="252" type="curve"/>
      <point x="-121" y="235" type="line"/>
      <point x="-105" y="170"/>
      <point x="-65" y="139"/>
    </contour>
  </outline>
</glyph>
<glyph name="_vocL_skt" format="2">
  <unicode hex="1058"/>
  <note>
_vocL_skt
</note>
  <outline>
    <contour>
      <point x="-329" y="-263" type="curve" smooth="yes"/>
      <point x="-234" y="-263"/>
      <point x="-169" y="-212"/>
      <point x="-142" y="-141" type="curve"/>
      <point x="-165" y="-130" type="line"/>
      <point x="-188" y="-194"/>
      <point x="-244" y="-240"/>
      <point x="-329" y="-240" type="curve" smooth="yes"/>
      <point x="-431" y="-240"/>
      <point x="-493" y="-176"/>
      <point x="-493" y="-79" type="curve" smooth="yes"/>
      <point x="-493" y="14"/>
      <point x="-425" y="79"/>
      <point x="-327" y="79" type="curve" smooth="yes"/>
      <point x="-263" y="79"/>
      <point x="-210" y="45"/>
      <point x="-183" y="-16" type="curve"/>
      <point x="-218" y="-37"/>
      <point x="-270" y="-54"/>
      <point x="-322" y="-54" type="curve" smooth="yes"/>
      <point x="-404" y="-54"/>
      <point x="-443" y="-18"/>
      <point x="-472" y="15" type="curve"/>
      <point x="-486" y="-4" type="line"/>
      <point x="-459" y="-39"/>
      <point x="-408" y="-77"/>
      <point x="-322" y="-77" type="curve" smooth="yes"/>
      <point x="-257" y="-77"/>
      <point x="-195" y="-54"/>
      <point x="-150" y="-19" type="curve"/>
      <point x="-183" y="57"/>
      <point x="-247" y="102"/>
      <point x="-327" y="102" type="curve" smooth="yes"/>
      <point x="-442" y="102"/>
      <point x="-519" y="25"/>
      <point x="-519" y="-79" type="curve" smooth="yes"/>
      <point x="-519" y="-188"/>
      <point x="-446" y="-263"/>
    </contour>
  </outline>
</glyph>
<glyph name="_vocLL_skt" format="2">
  <unicode hex="1059"/>
  <note>
_vocLL_skt
</note>
  <outline>
    <contour>
      <point x="-390" y="-263" type="curve" smooth="yes"/>
      <point x="-352" y="-263"/>
      <point x="-329" y="-250"/>
      <point x="-314" y="-220" type="curve"/>
      <point x="-321" y="-223" type="line"/>
      <point x="-309" y="-243"/>
      <point x="-287" y="-263"/>
      <point x="-239" y="-263" type="curve" smooth="yes"/>
      <point x="-195" y="-263"/>
      <point x="-163" y="-235"/>
      <point x="-154" y="-169" type="curve"/>
      <point x="-180" y="-164" type="line"/>
      <point x="-186" y="-226"/>
      <point x="-210" y="-240"/>
      <point x="-239" y="-240" type="curve" smooth="yes"/>
      <point x="-275" y="-240"/>
      <point x="-305" y="-228"/>
      <point x="-305" y="-176" type="curve" smooth="yes"/>
      <point x="-305" y="-163" type="line"/>
      <point x="-331" y="-163" type="line"/>
      <point x="-331" y="-176" type="line" smooth="yes"/>
      <point x="-331" y="-215"/>
      <point x="-348" y="-240"/>
      <point x="-390" y="-240" type="curve" smooth="yes"/>
      <point x="-464" y="-240"/>
      <point x="-491" y="-166"/>
      <point x="-491" y="-92" type="curve" smooth="yes"/>
      <point x="-491" y="17"/>
      <point x="-420" y="80"/>
      <point x="-318" y="80" type="curve" smooth="yes"/>
      <point x="-252" y="80"/>
      <point x="-198" y="47"/>
      <point x="-169" y="-11" type="curve"/>
      <point x="-206" y="-37"/>
      <point x="-261" y="-57"/>
      <point x="-315" y="-57" type="curve" smooth="yes"/>
      <point x="-400" y="-57"/>
      <point x="-440" y="-18"/>
      <point x="-469" y="17" type="curve"/>
      <point x="-488" y="3" type="line"/>
      <point x="-460" y="-37"/>
      <point x="-406" y="-81"/>
      <point x="-315" y="-81" type="curve" smooth="yes"/>
      <point x="-248" y="-81"/>
      <point x="-183" y="-54"/>
      <point x="-136" y="-15" type="curve"/>
      <point x="-171" y="60"/>
      <point x="-236" y="103"/>
      <point x="-318" y="103" type="curve" smooth="yes"/>
      <point x="-437" y="103"/>
      <point x="-517" y="28"/>
      <point x="-517" y="-92" type="curve" smooth="yes"/>
      <point x="-517" y="-187"/>
      <point x="-477" y="-263"/>
    </contour>
  </outline>
</glyph>
<glyph name="nga_mon" format="2">
  <advance width="611"/>
  <unicode hex="105A"/>
  <note>
nga_mon
</note>
  <outline>
    <contour>
      <point x="320" y="140" type="curve" smooth="yes"/>
      <point x="437" y="140"/>
      <point x="523" y="200"/>
      <point x="558" y="292" type="curve"/>
      <point x="534" y="302" type="line"/>
      <point x="503" y="217"/>
      <point x="425" y="163"/>
      <point x="320" y="163" type="curve" smooth="yes"/>
      <point x="183" y="163"/>
      <point x="81" y="247"/>
      <point x="81" y="384" type="curve" smooth="yes"/>
      <point x="81" y="505"/>
      <point x="164" y="608"/>
      <point x="320" y="608" type="curve" smooth="yes"/>
      <point x="424" y="608"/>
      <point x="498" y="555"/>
      <point x="530" y="477" type="curve"/>
      <point x="554" y="486" type="line"/>
      <point x="517" y="571"/>
      <point x="435" y="631"/>
      <point x="320" y="631" type="curve" smooth="yes"/>
      <point x="150" y="631"/>
      <point x="55" y="516"/>
      <point x="55" y="384" type="curve" smooth="yes"/>
      <point x="55" y="249"/>
      <point x="154" y="140"/>
    </contour>
    <contour>
      <point x="392" y="-263" type="curve" smooth="yes"/>
      <point x="417" y="-263"/>
      <point x="441" y="-255"/>
      <point x="454" y="-247" type="curve"/>
      <point x="438" y="-228" type="line"/>
      <point x="427" y="-235"/>
      <point x="413" y="-240"/>
      <point x="392" y="-240" type="curve" smooth="yes"/>
      <point x="354" y="-240"/>
      <point x="332" y="-217"/>
      <point x="332" y="-189" type="curve" smooth="yes"/>
      <point x="332" y="-166"/>
      <point x="341" y="-150"/>
      <point x="393" y="-103" type="curve" smooth="yes"/>
      <point x="424" y="-75"/>
      <point x="449" y="-45"/>
      <point x="449" y="-3" type="curve" smooth="yes"/>
      <point x="449" y="56"/>
      <point x="397" y="105"/>
      <point x="316" y="105" type="curve" smooth="yes"/>
      <point x="240" y="105"/>
      <point x="185" y="59"/>
      <point x="185" y="-3" type="curve"/>
      <point x="211" y="-3" type="line"/>
      <point x="211" y="47"/>
      <point x="253" y="81"/>
      <point x="316" y="81" type="curve" smooth="yes"/>
      <point x="385" y="81"/>
      <point x="423" y="44"/>
      <point x="423" y="-3" type="curve" smooth="yes"/>
      <point x="423" y="-34"/>
      <point x="404" y="-62"/>
      <point x="372" y="-89" type="curve" smooth="yes"/>
      <point x="311" y="-142"/>
      <point x="306" y="-166"/>
      <point x="306" y="-189" type="curve" smooth="yes"/>
      <point x="306" y="-228"/>
      <point x="340" y="-263"/>
    </contour>
  </outline>
</glyph>
<glyph name="jha_mon" format="2">
  <advance width="773"/>
  <unicode hex="105B"/>
  <note>
jha_mon
</note>
  <outline>
    <contour>
      <point x="310" y="140" type="curve" smooth="yes"/>
      <point x="382" y="140"/>
      <point x="440" y="160"/>
      <point x="473" y="191" type="curve"/>
      <point x="458" y="210" type="line"/>
      <point x="428" y="181"/>
      <point x="375" y="163"/>
      <point x="310" y="163" type="curve" smooth="yes"/>
      <point x="179" y="163"/>
      <point x="81" y="247"/>
      <point x="81" y="384" type="curve" smooth="yes"/>
      <point x="81" y="505"/>
      <point x="166" y="608"/>
      <point x="355" y="608" type="curve" smooth="yes"/>
      <point x="379" y="608"/>
      <point x="399" y="608"/>
      <point x="414" y="606" type="curve"/>
      <point x="414" y="609" type="line"/>
      <point x="376" y="598"/>
      <point x="338" y="555"/>
      <point x="338" y="504" type="curve" smooth="yes"/>
      <point x="338" y="448"/>
      <point x="383" y="394"/>
      <point x="462" y="394" type="curve" smooth="yes"/>
      <point x="502" y="394"/>
      <point x="550" y="407"/>
      <point x="571" y="445" type="curve"/>
      <point x="567" y="442" type="line"/>
      <point x="567" y="346"/>
      <point x="587" y="307"/>
      <point x="672" y="307" type="curve" smooth="yes"/>
      <point x="688" y="307" type="line"/>
      <point x="688" y="330" type="line"/>
      <point x="677" y="330" type="line" smooth="yes"/>
      <point x="607" y="330"/>
      <point x="593" y="354"/>
      <point x="593" y="433" type="curve" smooth="yes"/>
      <point x="593" y="451"/>
      <point x="593" y="467"/>
      <point x="593" y="492" type="curve" smooth="yes"/>
      <point x="593" y="621"/>
      <point x="501" y="631"/>
      <point x="357" y="631" type="curve" smooth="yes"/>
      <point x="152" y="631"/>
      <point x="55" y="516"/>
      <point x="55" y="384" type="curve" smooth="yes"/>
      <point x="55" y="249"/>
      <point x="150" y="140"/>
    </contour>
    <contour>
      <point x="538" y="-263" type="curve" smooth="yes"/>
      <point x="660" y="-263"/>
      <point x="708" y="-193"/>
      <point x="708" y="-31" type="curve" smooth="yes"/>
      <point x="708" y="621" type="line"/>
      <point x="682" y="621" type="line"/>
      <point x="682" y="-31" type="line" smooth="yes"/>
      <point x="682" y="-182"/>
      <point x="644" y="-240"/>
      <point x="538" y="-240" type="curve" smooth="yes"/>
      <point x="427" y="-240"/>
      <point x="390" y="-185"/>
      <point x="390" y="-31" type="curve" smooth="yes"/>
      <point x="390" y="163" type="line"/>
      <point x="364" y="154" type="line"/>
      <point x="364" y="-31" type="line" smooth="yes"/>
      <point x="364" y="-189"/>
      <point x="410" y="-263"/>
    </contour>
    <contour>
      <point x="464" y="417" type="curve" smooth="yes"/>
      <point x="394" y="417"/>
      <point x="364" y="458"/>
      <point x="364" y="504" type="curve" smooth="yes"/>
      <point x="364" y="554"/>
      <point x="408" y="598"/>
      <point x="470" y="598" type="curve" smooth="yes"/>
      <point x="535" y="598"/>
      <point x="567" y="559"/>
      <point x="567" y="496" type="curve" smooth="yes"/>
      <point x="567" y="454"/>
      <point x="520" y="417"/>
    </contour>
  </outline>
</glyph>
<glyph name="bba_mon" format="2">
  <advance width="628"/>
  <unicode hex="105C"/>
  <note>
bba_mon
</note>
  <outline>
    <contour>
      <point x="310" y="140" type="curve" smooth="yes"/>
      <point x="467" y="140"/>
      <point x="573" y="242"/>
      <point x="573" y="384" type="curve" smooth="yes"/>
      <point x="573" y="521"/>
      <point x="472" y="631"/>
      <point x="310" y="631" type="curve" smooth="yes"/>
      <point x="146" y="631"/>
      <point x="55" y="516"/>
      <point x="55" y="384" type="curve" smooth="yes"/>
      <point x="55" y="249"/>
      <point x="150" y="140"/>
    </contour>
    <contour>
      <point x="310" y="163" type="curve" smooth="yes"/>
      <point x="179" y="163"/>
      <point x="81" y="247"/>
      <point x="81" y="384" type="curve" smooth="yes"/>
      <point x="81" y="505"/>
      <point x="161" y="608"/>
      <point x="310" y="608" type="curve" smooth="yes"/>
      <point x="458" y="608"/>
      <point x="547" y="510"/>
      <point x="547" y="384" type="curve" smooth="yes"/>
      <point x="547" y="252"/>
      <point x="450" y="163"/>
    </contour>
    <contour>
      <point x="315" y="300" type="curve" smooth="yes"/>
      <point x="376" y="300"/>
      <point x="413" y="338"/>
      <point x="413" y="387" type="curve" smooth="yes"/>
      <point x="413" y="435"/>
      <point x="376" y="473"/>
      <point x="315" y="473" type="curve" smooth="yes"/>
      <point x="251" y="473"/>
      <point x="215" y="433"/>
      <point x="215" y="387" type="curve" smooth="yes"/>
      <point x="215" y="341"/>
      <point x="251" y="300"/>
    </contour>
    <contour>
      <point x="315" y="324" type="curve" smooth="yes"/>
      <point x="267" y="324"/>
      <point x="241" y="353"/>
      <point x="241" y="387" type="curve" smooth="yes"/>
      <point x="241" y="420"/>
      <point x="267" y="450"/>
      <point x="315" y="450" type="curve" smooth="yes"/>
      <point x="360" y="450"/>
      <point x="387" y="423"/>
      <point x="387" y="387" type="curve" smooth="yes"/>
      <point x="387" y="351"/>
      <point x="360" y="324"/>
    </contour>
  </outline>
</glyph>
<glyph name="bbe_mon" format="2">
  <advance width="616"/>
  <unicode hex="105D"/>
  <note>
bbe_mon
</note>
  <outline>
    <contour>
      <point x="262" y="-271" type="curve" smooth="yes"/>
      <point x="345" y="-271" type="line" smooth="yes"/>
      <point x="469" y="-271"/>
      <point x="535" y="-216"/>
      <point x="535" y="-95" type="curve" smooth="yes"/>
      <point x="535" y="292" type="line"/>
      <point x="509" y="253" type="line"/>
      <point x="509" y="-95" type="line" smooth="yes"/>
      <point x="509" y="-197"/>
      <point x="453" y="-248"/>
      <point x="345" y="-248" type="curve" smooth="yes"/>
      <point x="262" y="-248" type="line" smooth="yes"/>
      <point x="155" y="-248"/>
      <point x="101" y="-216"/>
      <point x="101" y="-144" type="curve" smooth="yes"/>
      <point x="101" y="-87"/>
      <point x="140" y="-47"/>
      <point x="200" y="-47" type="curve" smooth="yes"/>
      <point x="253" y="-47"/>
      <point x="281" y="-65"/>
      <point x="309" y="-91" type="curve"/>
      <point x="328" y="-74" type="line"/>
      <point x="289" y="-43"/>
      <point x="260" y="-24"/>
      <point x="200" y="-24" type="curve" smooth="yes"/>
      <point x="129" y="-24"/>
      <point x="75" y="-72"/>
      <point x="75" y="-144" type="curve" smooth="yes"/>
      <point x="75" y="-229"/>
      <point x="140" y="-271"/>
    </contour>
    <contour>
      <point x="113" y="252" type="line"/>
      <point x="158" y="311"/>
      <point x="234" y="350"/>
      <point x="308" y="350" type="curve" smooth="yes"/>
      <point x="405" y="350"/>
      <point x="475" y="314"/>
      <point x="514" y="256" type="curve"/>
      <point x="532" y="272" type="line"/>
      <point x="491" y="330"/>
      <point x="412" y="373"/>
      <point x="308" y="373" type="curve" smooth="yes"/>
      <point x="225" y="373"/>
      <point x="143" y="336"/>
      <point x="93" y="268" type="curve"/>
    </contour>
    <contour>
      <point x="308" y="140" type="curve" smooth="yes"/>
      <point x="458" y="140"/>
      <point x="561" y="243"/>
      <point x="561" y="397" type="curve" smooth="yes"/>
      <point x="561" y="487"/>
      <point x="511" y="588"/>
      <point x="449" y="631" type="curve"/>
      <point x="431" y="613" type="line"/>
      <point x="491" y="576"/>
      <point x="535" y="472"/>
      <point x="535" y="397" type="curve" smooth="yes"/>
      <point x="535" y="246"/>
      <point x="437" y="163"/>
      <point x="308" y="163" type="curve" smooth="yes"/>
      <point x="188" y="163"/>
      <point x="81" y="246"/>
      <point x="81" y="397" type="curve" smooth="yes"/>
      <point x="81" y="472"/>
      <point x="125" y="576"/>
      <point x="185" y="613" type="curve"/>
      <point x="167" y="631" type="line"/>
      <point x="105" y="588"/>
      <point x="55" y="487"/>
      <point x="55" y="397" type="curve" smooth="yes"/>
      <point x="55" y="243"/>
      <point x="167" y="140"/>
    </contour>
  </outline>
</glyph>
<glyph name="_medialNa_mon" format="2">
  <unicode hex="105E"/>
  <note>
_medialNa_mon
</note>
  <outline>
    <contour>
      <point x="-430" y="-263" type="curve" smooth="yes"/>
      <point x="-356" y="-263"/>
      <point x="-306" y="-216"/>
      <point x="-306" y="-139" type="curve" smooth="yes"/>
      <point x="-306" y="119" type="line"/>
      <point x="-332" y="119" type="line"/>
      <point x="-332" y="-139" type="line" smooth="yes"/>
      <point x="-332" y="-205"/>
      <point x="-371" y="-240"/>
      <point x="-430" y="-240" type="curve" smooth="yes"/>
      <point x="-485" y="-240"/>
      <point x="-528" y="-207"/>
      <point x="-528" y="-147" type="curve" smooth="yes"/>
      <point x="-528" y="-87"/>
      <point x="-478" y="-39"/>
      <point x="-341" y="-39" type="curve" smooth="yes"/>
      <point x="-257" y="-39"/>
      <point x="-208" y="-62"/>
      <point x="-150" y="-94" type="curve"/>
      <point x="-137" y="-74" type="line"/>
      <point x="-203" y="-37"/>
      <point x="-257" y="-16"/>
      <point x="-341" y="-16" type="curve" smooth="yes"/>
      <point x="-487" y="-16"/>
      <point x="-554" y="-72"/>
      <point x="-554" y="-147" type="curve" smooth="yes"/>
      <point x="-554" y="-216"/>
      <point x="-501" y="-263"/>
    </contour>
  </outline>
</glyph>
<glyph name="_medialMa_mon" format="2">
  <unicode hex="105F"/>
  <note>
_medialMa_mon
</note>
  <outline>
    <contour>
      <point x="-323" y="-263" type="curve" smooth="yes"/>
      <point x="-232" y="-263"/>
      <point x="-160" y="-240"/>
      <point x="-96" y="-198" type="curve"/>
      <point x="-111" y="-180" type="line"/>
      <point x="-185" y="-228"/>
      <point x="-253" y="-240"/>
      <point x="-323" y="-240" type="curve" smooth="yes"/>
      <point x="-428" y="-240"/>
      <point x="-507" y="-216"/>
      <point x="-507" y="-136" type="curve" smooth="yes"/>
      <point x="-507" y="-67"/>
      <point x="-437" y="-34"/>
      <point x="-325" y="-34" type="curve" smooth="yes"/>
      <point x="-312" y="-34"/>
      <point x="-289" y="-36"/>
      <point x="-279" y="-37" type="curve"/>
      <point x="-279" y="119" type="line"/>
      <point x="-305" y="119" type="line"/>
      <point x="-305" y="-9" type="line"/>
      <point x="-451" y="-9"/>
      <point x="-533" y="-49"/>
      <point x="-533" y="-136" type="curve" smooth="yes"/>
      <point x="-533" y="-228"/>
      <point x="-442" y="-263"/>
    </contour>
  </outline>
</glyph>
<glyph name="_medialLa_mon" format="2">
  <unicode hex="1060"/>
  <note>
_medialLa_mon
</note>
  <outline>
    <contour>
      <point x="-490" y="-272" type="line"/>
      <point x="-125" y="-272" type="line"/>
      <point x="-125" y="-249" type="line"/>
      <point x="-448" y="-249" type="line"/>
      <point x="-245" y="103" type="line"/>
      <point x="-274" y="103" type="line"/>
    </contour>
  </outline>
</glyph>
<glyph name="eu_skn" format="2">
  <advance width="333"/>
  <unicode hex="1062"/>
  <note>
eu_skn
</note>
  <outline>
    <contour>
      <point x="203" y="149" type="line"/>
      <point x="229" y="149" type="line"/>
      <point x="229" y="622" type="line"/>
      <point x="32" y="622" type="line"/>
      <point x="32" y="599" type="line"/>
      <point x="203" y="599" type="line"/>
    </contour>
  </outline>
</glyph>
<glyph name="hathi_skn" format="2">
  <advance width="625"/>
  <unicode hex="1063"/>
  <note>
hathi_skn
</note>
  <outline>
    <contour>
      <point x="77" y="-272" type="line"/>
      <point x="103" y="-272" type="line"/>
      <point x="103" y="261" type="line"/>
      <point x="77" y="295" type="line"/>
    </contour>
    <contour>
      <point x="322" y="143" type="curve" smooth="yes"/>
      <point x="477" y="143"/>
      <point x="570" y="252"/>
      <point x="570" y="387" type="curve" smooth="yes"/>
      <point x="570" y="519"/>
      <point x="481" y="634"/>
      <point x="322" y="634" type="curve" smooth="yes"/>
      <point x="204" y="634"/>
      <point x="119" y="574"/>
      <point x="81" y="488" type="curve"/>
      <point x="105" y="479" type="line"/>
      <point x="138" y="558"/>
      <point x="214" y="611"/>
      <point x="322" y="611" type="curve" smooth="yes"/>
      <point x="466" y="611"/>
      <point x="544" y="508"/>
      <point x="544" y="387" type="curve" smooth="yes"/>
      <point x="544" y="250"/>
      <point x="449" y="166"/>
      <point x="322" y="166" type="curve" smooth="yes"/>
      <point x="214" y="166"/>
      <point x="133" y="219"/>
      <point x="101" y="305" type="curve"/>
      <point x="77" y="295" type="line"/>
      <point x="113" y="203"/>
      <point x="202" y="143"/>
    </contour>
  </outline>
</glyph>
<glyph name="kepho_skn" format="2">
  <advance width="377"/>
  <unicode hex="1064"/>
  <note>
kepho_skn
</note>
  <outline>
    <contour>
      <point x="176" y="149" type="line"/>
      <point x="340" y="149" type="line"/>
      <point x="340" y="172" type="line"/>
      <point x="202" y="172" type="line"/>
      <point x="202" y="622" type="line"/>
      <point x="36" y="622" type="line"/>
      <point x="36" y="599" type="line"/>
      <point x="176" y="599" type="line"/>
    </contour>
  </outline>
</glyph>
<glyph name="tha_wpk" format="2">
  <advance width="634"/>
  <unicode hex="1065"/>
  <note>
tha_wpk
</note>
  <outline>
    <contour>
      <point x="314" y="140" type="curve" smooth="yes"/>
      <point x="474" y="140"/>
      <point x="569" y="249"/>
      <point x="569" y="384" type="curve" smooth="yes"/>
      <point x="569" y="516"/>
      <point x="478" y="631"/>
      <point x="314" y="631" type="curve" smooth="yes"/>
      <point x="195" y="631"/>
      <point x="109" y="571"/>
      <point x="71" y="486" type="curve"/>
      <point x="95" y="477" type="line"/>
      <point x="128" y="555"/>
      <point x="205" y="608"/>
      <point x="314" y="608" type="curve" smooth="yes"/>
      <point x="463" y="608"/>
      <point x="543" y="505"/>
      <point x="543" y="384" type="curve" smooth="yes"/>
      <point x="543" y="247"/>
      <point x="445" y="163"/>
      <point x="314" y="163" type="curve" smooth="yes"/>
      <point x="205" y="163"/>
      <point x="123" y="217"/>
      <point x="91" y="302" type="curve"/>
      <point x="67" y="292" type="line"/>
      <point x="103" y="200"/>
      <point x="193" y="140"/>
    </contour>
  </outline>
</glyph>
<glyph name="pwa_wpk" format="2">
  <advance width="630"/>
  <unicode hex="1066"/>
  <note>
pwa_wpk
</note>
  <outline>
    <contour>
      <point x="310" y="140" type="curve" smooth="yes"/>
      <point x="464" y="140"/>
      <point x="571" y="226"/>
      <point x="571" y="397" type="curve" smooth="yes"/>
      <point x="571" y="487"/>
      <point x="521" y="588"/>
      <point x="459" y="631" type="curve"/>
      <point x="441" y="613" type="line"/>
      <point x="501" y="576"/>
      <point x="545" y="472"/>
      <point x="545" y="397" type="curve" smooth="yes"/>
      <point x="545" y="229"/>
      <point x="443" y="163"/>
      <point x="310" y="163" type="curve" smooth="yes"/>
      <point x="184" y="163"/>
      <point x="81" y="246"/>
      <point x="81" y="397" type="curve" smooth="yes"/>
      <point x="81" y="472"/>
      <point x="125" y="576"/>
      <point x="185" y="613" type="curve"/>
      <point x="167" y="631" type="line"/>
      <point x="105" y="588"/>
      <point x="55" y="487"/>
      <point x="55" y="397" type="curve" smooth="yes"/>
      <point x="55" y="243"/>
      <point x="164" y="140"/>
    </contour>
    <contour>
      <point x="173" y="-272" type="line"/>
      <point x="340" y="-272" type="line"/>
      <point x="340" y="144" type="line"/>
      <point x="314" y="145" type="line"/>
      <point x="314" y="-249" type="line"/>
      <point x="173" y="-249" type="line"/>
    </contour>
  </outline>
</glyph>
<glyph name="eu_wpk" format="2">
  <advance width="422"/>
  <unicode hex="1067"/>
  <note>
eu_wpk
</note>
  <outline>
    <contour>
      <point x="194" y="138" type="curve" smooth="yes"/>
      <point x="270" y="138"/>
      <point x="318" y="181"/>
      <point x="318" y="251" type="curve" smooth="yes"/>
      <point x="318" y="311"/>
      <point x="271" y="365"/>
      <point x="194" y="365" type="curve" smooth="yes"/>
      <point x="116" y="365"/>
      <point x="69" y="311"/>
      <point x="69" y="251" type="curve" smooth="yes"/>
      <point x="69" y="181"/>
      <point x="117" y="138"/>
    </contour>
    <contour>
      <point x="194" y="162" type="curve" smooth="yes"/>
      <point x="130" y="162"/>
      <point x="95" y="195"/>
      <point x="95" y="251" type="curve" smooth="yes"/>
      <point x="95" y="298"/>
      <point x="130" y="342"/>
      <point x="194" y="342" type="curve" smooth="yes"/>
      <point x="257" y="342"/>
      <point x="292" y="298"/>
      <point x="292" y="251" type="curve" smooth="yes"/>
      <point x="292" y="195"/>
      <point x="257" y="162"/>
    </contour>
    <contour>
      <point x="318" y="251" type="line"/>
      <point x="318" y="622" type="line"/>
      <point x="292" y="622" type="line"/>
      <point x="292" y="318" type="line"/>
    </contour>
  </outline>
</glyph>
<glyph name="ue_wpk" format="2">
  <advance width="268"/>
  <unicode hex="1068"/>
  <note>
ue_wpk
</note>
  <outline>
    <contour>
      <point x="36" y="149" type="line"/>
      <point x="201" y="149" type="line"/>
      <point x="201" y="622" type="line"/>
      <point x="175" y="622" type="line"/>
      <point x="175" y="172" type="line"/>
      <point x="36" y="172" type="line"/>
    </contour>
    <contour>
      <point x="172" y="747" type="curve" smooth="yes"/>
      <point x="226" y="747"/>
      <point x="265" y="777"/>
      <point x="265" y="831" type="curve" smooth="yes"/>
      <point x="265" y="888"/>
      <point x="221" y="913"/>
      <point x="172" y="913" type="curve" smooth="yes"/>
      <point x="121" y="913"/>
      <point x="82" y="884"/>
      <point x="82" y="831" type="curve" smooth="yes"/>
      <point x="82" y="777"/>
      <point x="119" y="747"/>
    </contour>
    <contour>
      <point x="172" y="770" type="curve" smooth="yes"/>
      <point x="134" y="770"/>
      <point x="108" y="794"/>
      <point x="108" y="831" type="curve" smooth="yes"/>
      <point x="108" y="866"/>
      <point x="134" y="890"/>
      <point x="172" y="890" type="curve" smooth="yes"/>
      <point x="210" y="890"/>
      <point x="239" y="866"/>
      <point x="239" y="831" type="curve" smooth="yes"/>
      <point x="239" y="794"/>
      <point x="212" y="770"/>
    </contour>
  </outline>
</glyph>
<glyph name="tone1_wpk" format="2">
  <advance width="386"/>
  <unicode hex="1069"/>
  <note>
tone1_wpk
</note>
  <outline>
    <contour>
      <point x="186" y="135" type="curve" smooth="yes"/>
      <point x="239" y="135"/>
      <point x="279" y="155"/>
      <point x="300" y="180" type="curve"/>
      <point x="281" y="195" type="line"/>
      <point x="264" y="174"/>
      <point x="228" y="158"/>
      <point x="186" y="158" type="curve" smooth="yes"/>
      <point x="124" y="158"/>
      <point x="89" y="190"/>
      <point x="89" y="240" type="curve" smooth="yes"/>
      <point x="89" y="288"/>
      <point x="110" y="317"/>
      <point x="216" y="370" type="curve" smooth="yes"/>
      <point x="310" y="417"/>
      <point x="340" y="456"/>
      <point x="340" y="523" type="curve" smooth="yes"/>
      <point x="340" y="586"/>
      <point x="286" y="631"/>
      <point x="212" y="631" type="curve" smooth="yes"/>
      <point x="155" y="631"/>
      <point x="108" y="615"/>
      <point x="72" y="571" type="curve"/>
      <point x="92" y="558" type="line"/>
      <point x="125" y="595"/>
      <point x="163" y="608"/>
      <point x="212" y="608" type="curve" smooth="yes"/>
      <point x="276" y="608"/>
      <point x="314" y="573"/>
      <point x="314" y="523" type="curve" smooth="yes"/>
      <point x="314" y="466"/>
      <point x="292" y="437"/>
      <point x="202" y="392" type="curve" smooth="yes"/>
      <point x="98" y="340"/>
      <point x="63" y="301"/>
      <point x="63" y="240" type="curve" smooth="yes"/>
      <point x="63" y="178"/>
      <point x="108" y="135"/>
    </contour>
  </outline>
</glyph>
<glyph name="tone2_wpk" format="2">
  <advance width="413"/>
  <unicode hex="106A"/>
  <note>
tone2_wpk
</note>
  <outline>
    <contour>
      <point x="189" y="138" type="curve" smooth="yes"/>
      <point x="259" y="138"/>
      <point x="308" y="176"/>
      <point x="308" y="262" type="curve" smooth="yes"/>
      <point x="308" y="622" type="line"/>
      <point x="282" y="622" type="line"/>
      <point x="282" y="262" type="line" smooth="yes"/>
      <point x="282" y="189"/>
      <point x="247" y="162"/>
      <point x="189" y="162" type="curve" smooth="yes"/>
      <point x="150" y="162"/>
      <point x="104" y="180"/>
      <point x="104" y="224" type="curve"/>
      <point x="78" y="224" type="line"/>
      <point x="78" y="170"/>
      <point x="132" y="138"/>
    </contour>
  </outline>
</glyph>
<glyph name="tone3_wpk" format="2">
  <advance width="413"/>
  <unicode hex="106B"/>
  <note>
tone3_wpk
</note>
  <outline>
    <contour>
      <point x="282" y="149" type="line"/>
      <point x="308" y="149" type="line"/>
      <point x="308" y="509" type="line" smooth="yes"/>
      <point x="308" y="595"/>
      <point x="259" y="633"/>
      <point x="189" y="633" type="curve" smooth="yes"/>
      <point x="132" y="633"/>
      <point x="78" y="602"/>
      <point x="78" y="548" type="curve"/>
      <point x="104" y="548" type="line"/>
      <point x="104" y="592"/>
      <point x="150" y="610"/>
      <point x="189" y="610" type="curve" smooth="yes"/>
      <point x="247" y="610"/>
      <point x="282" y="583"/>
      <point x="282" y="509" type="curve" smooth="yes"/>
    </contour>
  </outline>
</glyph>
<glyph name="tone4_wpk" format="2">
  <advance width="413"/>
  <unicode hex="106C"/>
  <note>
tone4_wpk
</note>
  <outline>
    <contour>
      <point x="224" y="138" type="curve" smooth="yes"/>
      <point x="281" y="138"/>
      <point x="335" y="170"/>
      <point x="335" y="224" type="curve"/>
      <point x="309" y="224" type="line"/>
      <point x="309" y="180"/>
      <point x="263" y="162"/>
      <point x="224" y="162" type="curve" smooth="yes"/>
      <point x="166" y="162"/>
      <point x="131" y="189"/>
      <point x="131" y="262" type="curve" smooth="yes"/>
      <point x="131" y="622" type="line"/>
      <point x="105" y="622" type="line"/>
      <point x="105" y="262" type="line" smooth="yes"/>
      <point x="105" y="176"/>
      <point x="154" y="138"/>
    </contour>
  </outline>
</glyph>
<glyph name="tone5_wpk" format="2">
  <advance width="386"/>
  <unicode hex="106D"/>
  <note>
tone5_wpk
</note>
  <outline>
    <contour>
      <point x="200" y="135" type="curve" smooth="yes"/>
      <point x="278" y="135"/>
      <point x="323" y="178"/>
      <point x="323" y="240" type="curve" smooth="yes"/>
      <point x="323" y="301"/>
      <point x="288" y="340"/>
      <point x="184" y="392" type="curve" smooth="yes"/>
      <point x="94" y="437"/>
      <point x="72" y="466"/>
      <point x="72" y="523" type="curve" smooth="yes"/>
      <point x="72" y="573"/>
      <point x="110" y="608"/>
      <point x="174" y="608" type="curve" smooth="yes"/>
      <point x="223" y="608"/>
      <point x="261" y="595"/>
      <point x="294" y="558" type="curve"/>
      <point x="314" y="571" type="line"/>
      <point x="278" y="615"/>
      <point x="231" y="631"/>
      <point x="174" y="631" type="curve" smooth="yes"/>
      <point x="100" y="631"/>
      <point x="46" y="586"/>
      <point x="46" y="523" type="curve" smooth="yes"/>
      <point x="46" y="456"/>
      <point x="76" y="417"/>
      <point x="170" y="370" type="curve" smooth="yes"/>
      <point x="276" y="317"/>
      <point x="297" y="288"/>
      <point x="297" y="240" type="curve" smooth="yes"/>
      <point x="297" y="190"/>
      <point x="262" y="158"/>
      <point x="200" y="158" type="curve" smooth="yes"/>
      <point x="158" y="158"/>
      <point x="122" y="174"/>
      <point x="105" y="195" type="curve"/>
      <point x="86" y="180" type="line"/>
      <point x="107" y="155"/>
      <point x="147" y="135"/>
    </contour>
  </outline>
</glyph>
<glyph name="nna_epk" format="2">
  <advance width="1128"/>
  <unicode hex="106E"/>
  <note>
nna_epk
</note>
  <outline>
    <contour>
      <point x="167" y="140" type="curve"/>
      <point x="185" y="158" type="line"/>
      <point x="125" y="196"/>
      <point x="81" y="299"/>
      <point x="81" y="375" type="curve" smooth="yes"/>
      <point x="81" y="525"/>
      <point x="151" y="608"/>
      <point x="263" y="608" type="curve" smooth="yes"/>
      <point x="374" y="608"/>
      <point x="431" y="522"/>
      <point x="431" y="375" type="curve" smooth="yes"/>
      <point x="431" y="299"/>
      <point x="388" y="196"/>
      <point x="330" y="158" type="curve"/>
      <point x="348" y="140" type="line"/>
      <point x="409" y="183"/>
      <point x="457" y="285"/>
      <point x="457" y="375" type="curve" smooth="yes"/>
      <point x="457" y="529"/>
      <point x="393" y="631"/>
      <point x="263" y="631" type="curve" smooth="yes"/>
      <point x="130" y="631"/>
      <point x="55" y="529"/>
      <point x="55" y="375" type="curve" smooth="yes"/>
      <point x="55" y="285"/>
      <point x="105" y="183"/>
    </contour>
    <contour>
      <point x="589" y="140" type="line"/>
      <point x="650" y="183"/>
      <point x="698" y="285"/>
      <point x="698" y="375" type="curve" smooth="yes"/>
      <point x="698" y="529"/>
      <point x="625" y="631"/>
      <point x="499" y="631" type="curve" smooth="yes"/>
      <point x="442" y="631"/>
      <point x="400" y="614"/>
      <point x="368" y="583" type="curve"/>
      <point x="386" y="567" type="line"/>
      <point x="415" y="594"/>
      <point x="451" y="608"/>
      <point x="499" y="608" type="curve" smooth="yes"/>
      <point x="606" y="608"/>
      <point x="672" y="522"/>
      <point x="672" y="375" type="curve" smooth="yes"/>
      <point x="672" y="299"/>
      <point x="629" y="196"/>
      <point x="571" y="158" type="curve"/>
    </contour>
    <contour>
      <point x="864" y="142" type="curve" smooth="yes"/>
      <point x="990" y="142"/>
      <point x="1073" y="230"/>
      <point x="1073" y="375" type="curve" smooth="yes"/>
      <point x="1073" y="533"/>
      <point x="1003" y="631"/>
      <point x="869" y="631" type="curve" smooth="yes"/>
      <point x="768" y="631"/>
      <point x="709" y="571"/>
      <point x="666" y="480" type="curve"/>
      <point x="683" y="457" type="line"/>
      <point x="730" y="559"/>
      <point x="782" y="608"/>
      <point x="869" y="608" type="curve" smooth="yes"/>
      <point x="992" y="608"/>
      <point x="1047" y="515"/>
      <point x="1047" y="375" type="curve" smooth="yes"/>
      <point x="1047" y="242"/>
      <point x="975" y="165"/>
      <point x="864" y="165" type="curve" smooth="yes"/>
      <point x="834" y="165"/>
      <point x="808" y="168"/>
      <point x="774" y="179" type="curve"/>
      <point x="760" y="158" type="line"/>
      <point x="799" y="145"/>
      <point x="825" y="142"/>
    </contour>
  </outline>
</glyph>
<glyph name="ywa_epk" format="2">
  <advance width="1118"/>
  <unicode hex="106F"/>
  <note>
ywa_epk
</note>
  <outline>
    <contour>
      <point x="318" y="140" type="curve" smooth="yes"/>
      <point x="474" y="140"/>
      <point x="581" y="243"/>
      <point x="581" y="397" type="curve" smooth="yes"/>
      <point x="581" y="487"/>
      <point x="531" y="588"/>
      <point x="469" y="631" type="curve"/>
      <point x="451" y="613" type="line"/>
      <point x="511" y="576"/>
      <point x="555" y="472"/>
      <point x="555" y="397" type="curve" smooth="yes"/>
      <point x="555" y="246"/>
      <point x="453" y="163"/>
      <point x="318" y="163" type="curve" smooth="yes"/>
      <point x="193" y="163"/>
      <point x="81" y="246"/>
      <point x="81" y="397" type="curve" smooth="yes"/>
      <point x="81" y="472"/>
      <point x="125" y="576"/>
      <point x="185" y="613" type="curve"/>
      <point x="167" y="631" type="line"/>
      <point x="105" y="588"/>
      <point x="55" y="487"/>
      <point x="55" y="397" type="curve" smooth="yes"/>
      <point x="55" y="243"/>
      <point x="171" y="140"/>
    </contour>
    <contour>
      <point x="663" y="-272" type="line"/>
      <point x="830" y="-272" type="line"/>
      <point x="830" y="149" type="line"/>
      <point x="804" y="149" type="line"/>
      <point x="804" y="-249" type="line"/>
      <point x="663" y="-249" type="line"/>
    </contour>
    <contour>
      <point x="814" y="142" type="curve" smooth="yes"/>
      <point x="964" y="142"/>
      <point x="1063" y="230"/>
      <point x="1063" y="375" type="curve" smooth="yes"/>
      <point x="1063" y="520"/>
      <point x="975" y="631"/>
      <point x="818" y="631" type="curve" smooth="yes"/>
      <point x="714" y="631"/>
      <point x="627" y="578"/>
      <point x="556" y="486" type="curve"/>
      <point x="568" y="460" type="line"/>
      <point x="656" y="573"/>
      <point x="729" y="608"/>
      <point x="818" y="608" type="curve" smooth="yes"/>
      <point x="964" y="608"/>
      <point x="1037" y="505"/>
      <point x="1037" y="375" type="curve" smooth="yes"/>
      <point x="1037" y="242"/>
      <point x="949" y="165"/>
      <point x="814" y="165" type="curve" smooth="yes"/>
      <point x="775" y="165"/>
      <point x="726" y="169"/>
      <point x="692" y="181" type="curve"/>
      <point x="678" y="160" type="line"/>
      <point x="719" y="146"/>
      <point x="761" y="142"/>
    </contour>
  </outline>
</glyph>
<glyph name="ghwa_epk" format="2">
  <advance width="1132"/>
  <unicode hex="1070"/>
  <note>
ghwa_epk
</note>
  <outline>
    <contour>
      <point x="328" y="140" type="curve" smooth="yes"/>
      <point x="479" y="140"/>
      <point x="591" y="243"/>
      <point x="591" y="397" type="curve" smooth="yes"/>
      <point x="591" y="497"/>
      <point x="541" y="580"/>
      <point x="479" y="631" type="curve"/>
      <point x="461" y="613" type="line"/>
      <point x="521" y="568"/>
      <point x="565" y="483"/>
      <point x="565" y="397" type="curve" smooth="yes"/>
      <point x="565" y="248"/>
      <point x="458" y="163"/>
      <point x="328" y="163" type="curve" smooth="yes"/>
      <point x="185" y="163"/>
      <point x="102" y="233"/>
      <point x="102" y="333" type="curve" smooth="yes"/>
      <point x="102" y="397"/>
      <point x="129" y="432"/>
      <point x="181" y="474" type="curve" smooth="yes"/>
      <point x="225" y="509"/>
      <point x="235" y="532"/>
      <point x="235" y="563" type="curve" smooth="yes"/>
      <point x="235" y="600"/>
      <point x="204" y="630"/>
      <point x="157" y="630" type="curve" smooth="yes"/>
      <point x="116" y="630"/>
      <point x="89" y="611"/>
      <point x="70" y="589" type="curve"/>
      <point x="89" y="573" type="line"/>
      <point x="104" y="593"/>
      <point x="129" y="606"/>
      <point x="157" y="606" type="curve" smooth="yes"/>
      <point x="191" y="606"/>
      <point x="209" y="588"/>
      <point x="209" y="563" type="curve" smooth="yes"/>
      <point x="209" y="540"/>
      <point x="199" y="519"/>
      <point x="165" y="492" type="curve" smooth="yes"/>
      <point x="108" y="446"/>
      <point x="76" y="401"/>
      <point x="76" y="333" type="curve" smooth="yes"/>
      <point x="76" y="222"/>
      <point x="171" y="140"/>
    </contour>
    <contour>
      <point x="661" y="-272" type="line"/>
      <point x="828" y="-272" type="line"/>
      <point x="828" y="149" type="line"/>
      <point x="802" y="149" type="line"/>
      <point x="802" y="-249" type="line"/>
      <point x="661" y="-249" type="line"/>
    </contour>
    <contour>
      <point x="821" y="142" type="curve" smooth="yes"/>
      <point x="977" y="142"/>
      <point x="1065" y="253"/>
      <point x="1065" y="398" type="curve" smooth="yes"/>
      <point x="1065" y="543"/>
      <point x="963" y="631"/>
      <point x="813" y="631" type="curve" smooth="yes"/>
      <point x="756" y="631"/>
      <point x="714" y="627"/>
      <point x="673" y="613" type="curve"/>
      <point x="687" y="593" type="line"/>
      <point x="721" y="604"/>
      <point x="770" y="608"/>
      <point x="813" y="608" type="curve" smooth="yes"/>
      <point x="948" y="608"/>
      <point x="1039" y="532"/>
      <point x="1039" y="398" type="curve" smooth="yes"/>
      <point x="1039" y="268"/>
      <point x="967" y="165"/>
      <point x="821" y="165" type="curve" smooth="yes"/>
      <point x="722" y="165"/>
      <point x="649" y="200"/>
      <point x="571" y="314" type="curve"/>
      <point x="559" y="288" type="line"/>
      <point x="620" y="195"/>
      <point x="707" y="142"/>
    </contour>
  </outline>
</glyph>
<glyph name="i_gkn" format="2">
  <unicode hex="1071"/>
  <note>
i_gkn
</note>
  <outline>
    <contour>
      <point x="-191" y="761" type="curve" smooth="yes"/>
      <point x="-138" y="761"/>
      <point x="-99" y="792"/>
      <point x="-99" y="845" type="curve" smooth="yes"/>
      <point x="-99" y="899"/>
      <point x="-142" y="926"/>
      <point x="-191" y="926" type="curve" smooth="yes"/>
      <point x="-245" y="926"/>
      <point x="-282" y="894"/>
      <point x="-282" y="844" type="curve" smooth="yes"/>
      <point x="-282" y="791"/>
      <point x="-246" y="761"/>
    </contour>
    <contour>
      <point x="-191" y="784" type="curve" smooth="yes"/>
      <point x="-234" y="784"/>
      <point x="-256" y="807"/>
      <point x="-256" y="844" type="curve" smooth="yes"/>
      <point x="-256" y="879"/>
      <point x="-230" y="902"/>
      <point x="-191" y="902" type="curve" smooth="yes"/>
      <point x="-151" y="902"/>
      <point x="-125" y="879"/>
      <point x="-125" y="844" type="curve" smooth="yes"/>
      <point x="-125" y="807"/>
      <point x="-151" y="784"/>
    </contour>
    <contour>
      <point x="-435" y="761" type="curve" smooth="yes"/>
      <point x="-383" y="761"/>
      <point x="-343" y="792"/>
      <point x="-343" y="845" type="curve" smooth="yes"/>
      <point x="-343" y="899"/>
      <point x="-385" y="926"/>
      <point x="-435" y="926" type="curve" smooth="yes"/>
      <point x="-487" y="926"/>
      <point x="-528" y="896"/>
      <point x="-528" y="844" type="curve" smooth="yes"/>
      <point x="-528" y="791"/>
      <point x="-488" y="761"/>
    </contour>
    <contour>
      <point x="-434" y="784" type="curve" smooth="yes"/>
      <point x="-478" y="784"/>
      <point x="-502" y="807"/>
      <point x="-502" y="844" type="curve" smooth="yes"/>
      <point x="-502" y="879"/>
      <point x="-474" y="902"/>
      <point x="-434" y="902" type="curve" smooth="yes"/>
      <point x="-395" y="902"/>
      <point x="-369" y="879"/>
      <point x="-369" y="844" type="curve" smooth="yes"/>
      <point x="-369" y="807"/>
      <point x="-395" y="784"/>
    </contour>
  </outline>
</glyph>
<glyph name="oe_kyh" format="2">
  <unicode hex="1072"/>
  <note>
oe_kyh
</note>
  <outline>
    <contour>
      <point x="-303" y="713" type="curve" smooth="yes"/>
      <point x="-231" y="713"/>
      <point x="-166" y="748"/>
      <point x="-139" y="811" type="curve"/>
      <point x="-162" y="821" type="line"/>
      <point x="-189" y="761"/>
      <point x="-245" y="737"/>
      <point x="-303" y="737" type="curve" smooth="yes"/>
      <point x="-389" y="737"/>
      <point x="-447" y="795"/>
      <point x="-447" y="882" type="curve" smooth="yes"/>
      <point x="-447" y="953"/>
      <point x="-394" y="1023"/>
      <point x="-303" y="1023" type="curve" smooth="yes"/>
      <point x="-233" y="1023"/>
      <point x="-187" y="992"/>
      <point x="-167" y="942" type="curve"/>
      <point x="-144" y="953" type="line"/>
      <point x="-172" y="1014"/>
      <point x="-224" y="1046"/>
      <point x="-303" y="1046" type="curve" smooth="yes"/>
      <point x="-407" y="1046"/>
      <point x="-473" y="967"/>
      <point x="-473" y="882" type="curve" smooth="yes"/>
      <point x="-473" y="789"/>
      <point x="-411" y="713"/>
    </contour>
  </outline>
</glyph>
<glyph name="u_kyh" format="2">
  <unicode hex="1073"/>
  <note>
u_kyh
</note>
  <outline>
    <contour>
      <point x="-559" y="723" type="line"/>
      <point x="-312" y="938" type="line"/>
      <point x="-67" y="723" type="line"/>
      <point x="-50" y="739" type="line"/>
      <point x="-312" y="969" type="line"/>
      <point x="-575" y="739" type="line"/>
    </contour>
  </outline>
</glyph>
<glyph name="ee_kyh" format="2">
  <unicode hex="1074"/>
  <note>
ee_kyh
</note>
  <outline>
    <contour>
      <point x="-312" y="716" type="line"/>
      <point x="-50" y="946" type="line"/>
      <point x="-67" y="962" type="line"/>
      <point x="-312" y="747" type="line"/>
      <point x="-559" y="962" type="line"/>
      <point x="-575" y="946" type="line"/>
    </contour>
  </outline>
</glyph>
